<svg width="794" height="595" viewBox="0 0 794 595" fill="none" xmlns="http://www.w3.org/2000/svg">
<g id="clipboard 1">
<g id="base inferior">
<path id="Vector" d="M108 376C245.159 374.23 384.79 376.924 522.5 377.5C540.108 428.593 551.917 485.665 567 537.5C574.919 559.382 621.251 569.202 636.5 586.973C612.3 587.053 561.347 587.067 537.147 586.973C540.12 574.387 543.267 561.827 546.507 549.293C548.547 549.253 550.6 549.227 552.653 549.187C543.307 535.067 534.28 520.733 524.88 506.653C488.5 488 488.5 488 488.5 488C402.64 505.036 286.857 495.184 199.5 490.5C199.5 490.5 138.484 412.771 108 376Z" fill="#665855"/>
<path id="Vector_2" d="M111.5 388C123.287 402.467 142.44 418.847 154 433.5C137.72 460.793 113.767 496.193 97.5 523.5C94.1531 529.737 85.5659 543.472 87.5 550C92.4867 561.333 116.893 575.307 121 587C88.96 587.04 37.6133 587.107 5.5733 586.947C20.36 574.12 35.64 561.88 50.6133 549.28C55.4933 549.267 60.3866 549.267 65.28 549.253C79.5866 498.467 96.9267 438.72 111.5 388Z" fill="#665855"/>
<path id="Vector_3" d="M625.986 453.6C587 414 614.5 385 667.8 402.053C684.96 451.053 701.573 500.253 718.666 549.267C723.906 549.413 729.2 548.907 734.413 549.547C750.786 561.88 767.186 574.227 783.32 586.88C751.106 587.187 718.88 586.893 686.666 587.027C690.213 576.453 693.546 565.8 697.12 555.24C673.556 521.065 643.247 476.612 625.986 453.6Z" fill="#524443"/>
<path id="Vector_4" d="M595 378.5C615.858 374.221 665.397 370.087 683.667 382.6C598.5 487 683.667 382.6 598.5 487C511.5 512.5 578.686 400.767 595 378.5Z" fill="#5B4D4C"/>
<path id="Vector_5" d="M94.7866 522.747C111.053 495.44 135.72 452.293 152 425C152 425 154.2 432.393 156 434.5C136 468.66 108.427 515.107 88.44 549.28C93.9066 549.267 99.3733 549.173 104.827 549.453C110.027 562.053 115.8 574.413 120.987 587.027C114.56 587 108.133 587 101.707 587C97.5999 575.307 92.1466 564.147 87.16 552.813C86.2 549.573 82.5866 549.44 79.9066 548.507C84.4133 539.667 90.0933 531.493 94.7866 522.747Z" fill="#524443"/>
<path id="Vector_6" d="M482.387 486.493C487.013 477.427 488.213 466.973 493.08 457.987C503.747 474.16 514.347 490.387 524.88 506.653C497.747 506.707 470.6 506.667 443.453 506.667C445.613 520.853 447.573 535.067 449.733 549.253C453.08 549.253 456.413 549.267 459.76 549.333C473.213 561.947 487.08 574.107 500.4 586.853C471.227 587.2 442.053 586.92 412.88 587C417.76 574.44 422.547 561.813 427.813 549.427C430.76 549.147 433.733 549.253 436.693 549.267C430.6 535.107 424.093 521.12 418.2 506.88C377.48 506.307 336.747 507.013 296.027 506.507C275.547 507.2 255.053 505.6 234.587 506.72C229.16 507.44 184.5 490.5 182.5 487C187 482 191 481.5 206 487C231 487.227 217.5 487.227 233.533 487.227C238.374 487.227 243.213 487.013 248.053 487C324.467 487.147 400.907 486.88 477.32 487.053C479.027 487.013 480.707 486.827 482.387 486.493Z" fill="#524443"/>
<path id="Vector_7" d="M96.6666 382.667C107.933 367 118.5 373.554 125.933 382.52C153.188 415.395 206 487 206 487C199.746 487.113 188 487 182.5 487C172.02 474.08 158.88 459.64 148.36 446.76C146.56 444.653 144.733 442.573 142.96 440.467C131.4 425.813 119.72 411.253 107.933 396.787C104.36 391.947 100.573 387.24 96.6666 382.667Z" fill="#5B4D4C"/>
</g>
<g id="base superior">
<path id="Base" d="M179.5 53.5L486 45L556.5 362L111.5 360L179.5 53.5Z" fill="#F0EBD5"/>
<path id="Vector_8" d="M185.5 51C163.053 154.227 117.12 353.213 117.12 353.213L99.5 360.5L81.2133 353.12C81.2133 353.12 130.608 150.19 169 56.175L185.5 51Z" fill="#DCDAC3"/>
<path id="Vector_9" d="M611.5 56.18C611.5 56.18 699.03 353.001 699 353C699.03 353.001 698.97 352.999 699 353L697.5 355L543.5 356L542.5 353L483.5 56.5L551 42C567.291 45.6515 598.481 45.7649 611.5 56.18Z" fill="#DCDAC3"/>
<path id="Vector_10" d="M197 35.2667H223.734L224.5 34.5L566 35L566.324 35.2667H583.5L611.5 56.1734H169L197 35.2667Z" fill="#DCDAC3"/>
</g>
<path id="Vector_11" d="M96.6666 369C291.845 366.533 488.48 367.16 683.667 369V382.6C658.326 382.739 604.36 382.987 604.36 382.987L569.36 486.76L598.5 487L562.613 501.933L577.76 549.227H599L648.267 586.8L609.733 586.987C609.733 586.987 587.773 564.853 577.133 553.453C574.96 550.8 571.6 549.867 568.667 548.413C566.693 546.093 566.16 542.907 565.147 540.107C549.639 486.81 531.535 434.958 513.44 382.453L96.6666 382.667V369Z" fill="#524443"/>
<path id="Vector_12" d="M81 353C170.477 352.798 699 353 699 353L690.5 371H90L81 353Z" fill="#CCC7AA"/>
<g id="#f0ebd5ff">
<path id="Vector_13" d="M262.493 22.7334C265.2 13.6134 274.253 6.26675 284.013 7.12009C330.813 7.37342 391.213 6.95333 438 7.5L429.5 23.0001C423.38 23.0401 312 31.0001 312 31.0001L262.493 22.7334Z" fill="#F0EBD5"/>
<path id="Vector_14" d="M223.72 35.27C226.08 28.9233 231.707 23.4667 238.667 22.9067C246.6 22.4667 254.56 22.8801 262.493 22.7334C304.827 22.7467 364.167 22.5133 406.5 22.5L389 35.2401C383.813 35.2534 364.987 35.1867 359.813 35.2401C365.253 42.3201 371.333 48.8667 376.773 55.9601C378.947 101.667 382.08 147.333 384.453 193.027C404.453 193.053 424.467 193.08 444.48 193.013C446.027 185.107 450.133 177.56 456.88 172.933C467.56 164.987 483.573 165.667 493.6 174.413C499.133 178.867 502.293 185.44 504 192.213L504.32 193.107C524.52 192.48 544.773 194.907 564.92 192.973C564.333 185.387 565.453 176.827 571.587 171.6C575.787 167.547 581.867 167.413 587.347 167.28C579.747 133.187 571.8 99.1734 564.173 65.0934C563.227 61.5067 563.147 57.2134 559.947 54.7601C553.667 48.9467 547.24 43.2667 541.227 37.1867C539.816 35.7601 536.5 35.0001 538 35.0001C540 35.0001 541.5 35.0001 542 35.0001C543.209 36.0001 542.359 35.2947 542.92 35.7601C549.24 41.0001 555.32 46.5067 561.613 51.7867C563.613 53.4667 565.653 55.3734 566.147 58.0934C574.493 94.8667 582.84 131.653 591.24 168.44C602.733 172.507 611.387 182.04 616.2 193.04C628.12 193.2 640.04 192.893 651.973 193.16L653 196.387C639.5 196.5 653.561 196.387 650.667 196.387C639 196.5 628.507 196.44 617.427 196.507C618.96 203.747 619.587 211.72 615.693 218.347C613.427 222.707 609 225.16 604.68 227.04C614.067 269.093 623.64 311.12 633.32 353.12C631.187 359.013 629.327 365.013 627.5 371H624C625.653 365.04 627.76 359.187 629.493 353.267C627.307 340.053 623.053 327.24 621.307 313.947C618.8 307.253 617.8 300.16 616.067 293.253C610.92 271.387 606.413 249.347 600.88 227.573C589.68 227.4 580 220.533 573.467 211.907C570.267 207.16 567.827 201.947 565.6 196.693C558.467 195.653 551.267 196.933 544.107 196.627C530.907 196.307 517.707 196.733 504.52 196.373L504.413 197.24C503.973 205.627 500.76 214.027 494.307 219.627C484.12 229.2 467.067 229.933 456.133 221.173C448.28 215.48 444.573 205.933 443.96 196.507C424.2 196.707 404.44 196.4 384.693 196.667C385.947 215.947 386.787 235.253 388.147 254.52C423.253 254.493 458.36 254.493 493.453 254.533C498.453 287.387 503.2 320.293 508.347 353.133C505.773 359.04 503.427 365.027 501 371H497.5C499.753 365.04 502.307 359.16 504.493 353.173C500.24 321.48 495.173 289.88 490.427 258.253C456.347 258.187 422.267 258.093 388.187 258.293C390.133 289.893 391.96 321.507 393.64 353.133C391.053 359.213 387.813 365.013 385 371H381C383.773 365.013 387.053 359.213 389.933 353.28C390 351.52 390 349.76 389.933 348C384.6 255.533 379.28 163.067 373.987 70.6001C373.693 65.6667 373.867 60.6401 372.467 55.8534C366.613 49.0267 360.853 42.1334 355.067 35.2667C311.394 35.0274 267.143 35.4684 223.72 35.27Z" fill="#665855"/>
<path id="Vector_15" d="M424.413 7.37341C454.027 6.89341 483.667 7.40007 513.293 7.13341C522.96 6.24007 532.84 13.1334 534.987 22.6801C534.987 22.6801 494.829 29.997 475 30C452.456 30.0034 407.867 22.7201 407.867 22.7201C410.787 15.4134 416.493 9.14674 424.413 7.37341Z" fill="#DCDAC3"/>
<path id="Vector_16" d="M202.76 35.0667C203.907 35.0934 206.187 35.1467 207.333 35.1734C200.787 42.1334 193.88 48.7334 187.107 55.4667C186 57 185.2 58.7334 184.8 60.5867C177.067 96.2534 169.173 131.88 161.32 167.52C165.787 171.827 167.307 177.987 167.04 184.027C167.093 196.067 163.44 208.093 156.8 218.12C154.613 221.533 151.133 223.8 148.64 226.933C147.36 230.24 146.787 233.747 146.04 237.2C137.813 275.827 128.947 314.333 120.8 352.973C122.373 359.093 124.907 365.053 127 371C126.431 371 123.588 370.992 123 371C121.08 365.067 118.787 359.227 117.12 353.213C125.813 311.44 135.48 269.867 144.387 228.133C141.133 226.467 137.733 224.373 136.773 220.573C133.64 209.72 136 198.04 139.893 187.693C143.413 179.133 148.493 169.867 157.893 166.827C165.867 130.8 173.8 94.7734 181.64 58.72C182.187 55.4534 184.547 53.0267 186.827 50.8267C192.227 45.6667 197.413 40.2934 202.76 35.0667Z" fill="#665855"/>
<path id="Vector_17" d="M326.04 154.907C332.613 157.613 336.587 164.213 338.453 170.8C340.813 178.16 339.813 185.987 338.8 193.48C342.227 193.68 345.653 193.813 349.08 193.893C347.84 199.827 346.653 205.787 345.307 211.707C342 211.933 338.36 211.147 335.267 212.413C333.587 219.76 332.707 227.28 331.067 234.667C328.76 249.933 325.067 265 323.387 280.36C326.6 280.427 329.827 280.467 333.04 280.507C332.213 286.213 331.787 292.133 329.693 297.56C326.973 299.427 323.213 298.187 320.093 298.853C318.827 300.747 318.893 303.2 318.307 305.347C315.133 323.88 300.48 339.56 282.64 345.013C274.027 347.8 264.867 346.52 255.987 346.773C245.933 346.48 235.213 348.213 225.867 343.533C221.387 341.12 216.667 338.253 214.453 333.453C218.48 336.747 222.933 336.613 228 338C235.787 340.227 243.027 340.96 251 341.107C260.173 340.933 269.12 340.84 278 338C293.2 333.24 302.813 326.04 308 311C311.16 300.84 312.167 288.347 314.5 278C320.047 247.293 327.587 217.707 333.04 187C334.92 176.08 333.413 163.04 326.04 154.907ZM336.387 197.773C335.493 201.467 334.947 205.227 334.64 209C337.173 208.973 339.72 208.933 342.267 208.907C343.4 205.28 344.027 201.52 344.133 197.72C341.547 197.733 338.973 197.76 336.387 197.773ZM321.12 284.987C320 288.267 319.347 291.68 319.333 295.16C321.813 295.133 324.307 295.107 326.8 295.08C327.76 291.693 328.36 288.213 328.653 284.707C326.133 284.8 323.627 284.893 321.12 284.987Z" fill="#CBC6A9"/>
<path id="Vector_18" d="M226.373 186.813C230.28 165.653 249.067 147.773 270.693 146.053C280.88 145.773 291.067 146.04 301.253 145.92C310.213 145.693 319.467 148.693 326.04 154.907C333.413 163.04 337.08 174.253 335.2 185.173C329.747 215.88 324.187 246.587 318.64 277.293C316.307 287.64 315.613 298.333 312.453 308.493C307.267 323.533 294.653 335.88 279.453 340.64C270.573 343.48 261.133 342.413 251.96 342.587C243.987 342.44 235.8 343.333 228.013 341.107C222.947 339.72 218.48 336.747 214.453 333.453C206.907 325.28 203.52 313.6 205.52 302.653C212.467 264.04 219.4 225.427 226.373 186.813ZM238.987 172.533C234.5 181 232.347 194 230 204.92C225.795 226.653 222.888 249.08 218.227 270.52C216.04 280.827 214.653 291.28 212.547 301.613C211.253 307.453 211.813 313.68 214.507 319.053C217.16 326.747 224.067 332.6 231.92 334.467C237.133 335.813 242.573 335.307 247.907 335.387C255.773 335.267 263.667 335.613 271.533 335.24C289.187 333.44 304.32 318.693 307.44 301.36C314.227 263.573 321.04 225.773 327.84 187.987C329.173 180.84 328.733 173.093 325.107 166.667C321.027 158.427 311.76 153.32 302.653 153.667C291.293 153.693 279.947 153.787 268.587 153.653C256.387 154.333 245.453 162.493 238.987 172.533Z" fill="#665855"/>
</g>
<g id="#514342ff">
<path id="Vector_19" d="M390 22.5C438.305 21.9738 486.672 22.7712 534.987 22.68C541.613 23.0133 548.413 21.96 554.907 23.6533C560.387 25.36 564.12 30.19 566.333 35.27C558.72 35.4167 566.333 35.1733 543.493 35.32H540.608C540.091 35.32 540 35.32 539.176 35.32C537.332 35.32 538.088 35.319 536 35.32C482.44 35.3467 428.92 35.2267 375.36 35.16C378 29.16 383.387 23.8733 390 22.5Z" fill="#514342"/>
</g>
<g id="#cac5a9ff">
<path id="Vector_20" d="M238.987 172.533C245.453 162.493 256.387 154.333 268.587 153.653C262.4 157.307 254.72 158.773 249.933 164.493C244.707 170.56 239.96 177.4 237.973 185.267C234.653 199.333 231.627 213.453 229.053 227.667C224.424 257.46 214.599 290.5 214.507 319.053C213.5 317 212.449 313.791 212 312C210.129 297.682 219.14 261.032 223.5 238.5C225.847 227.58 232.547 182.107 238.987 172.533Z" fill="#CAC5A9"/>
</g>
<g id="#655854ff">
<path id="Vector_21" d="M287.627 169.6C318 189 291 243 256.5 222.5C231 207.348 256.5 149.719 287.627 169.6Z" fill="#655854"/>
</g>
<g id="#ccc6a9ff">
<path id="Vector_22" d="M287.627 169.6C314.5 181.5 299 246 256.5 222.5C287.627 240.5 311.5 190 287.627 169.6Z" fill="#CCC6A9"/>
</g>
<g id="#483a39ff">
<path id="Vector_23" d="M157 174.5C166.5 176 158 208.993 148.147 217.62C133.5 227.993 142 176 157 174.5Z" fill="#483A39"/>
<path id="Vector_24" d="M273 176.5C291 173.5 297.5 206 275.293 214.267C251.698 223.051 246 181 273 176.5Z" fill="#483A39"/>
</g>
<g id="#483839ff">
<path id="Vector_25" d="M468.467 175.28C482 172 496.387 182 496.387 196.013C496.387 214 484.5 218.695 470.64 217.453C460 216.5 453.44 206.973 453.173 197.267C452.36 187.52 458.5 177.696 468.467 175.28Z" fill="#483839"/>
<path id="Vector_26" d="M580 176C591.877 166.012 628 197 605 215.5C590.759 226.955 558 194.5 580 176Z" fill="#483839"/>
</g>
<g id="#478fb5ff">
<path id="Vector_27" d="M456.5 189.5C448.29 215.5 482.5 223.5 491.653 206.84C502.5 172.5 462.5 170.5 456.5 189.5Z" fill="#478FB5"/>
<path id="Vector_28" d="M585.5 178.5C607.5 177 620.5 214.5 595 214.5C577.5 207.5 567.5 184.5 585.5 178.5Z" fill="#478FB5"/>
</g>
<g id="#468fb5ff">
<path id="Vector_29" d="M287.24 192.147C275.578 184.993 264.453 194.586 257.813 203.52C252 177.5 286.562 167.724 287.24 192.147Z" fill="#468FB5"/>
</g>
<g id="#4590b5ff">
<path id="Vector_30" d="M148 217.73C148 212.73 144.86 196.34 161 180C162 184.5 159 208.73 148 217.73Z" fill="#4590B5"/>
</g>
<g id="#7db2d4ff">
<path id="Vector_31" d="M472.973 187.293C483.307 187.44 491.2 196.867 491.653 206.84C489 211.5 484 215.653 473.227 215.653C462.827 215.147 454 207 455.47 194C460.657 190.067 466.067 186.853 472.973 187.293Z" fill="#7DB2D4"/>
<path id="Vector_32" d="M576.46 194.43C586.959 178.535 602.428 194.081 608.49 206C601.307 226.138 577.5 207.5 576.46 194.43Z" fill="#7DB2D4"/>
</g>
<g id="#7cb0d2ff">
<path id="Vector_33" d="M257.813 203.52C265 191 273 183 287.24 192.147C289 213.5 262.5 221 257.813 203.52Z" fill="#7CB0D2"/>
</g>
<g id="#7db2d2ff">
<path id="Vector_34" d="M149 200.5C152.5 194 159 185 160 193C158.8 202.253 155.24 211.53 148 217.73C146.92 212.023 147.667 206.14 149 200.5Z" fill="#7DB2D2"/>
</g>
<g id="#524443ff">
<path id="Vector_35" d="M73.9997 555.5C87 555.5 89.2971 576.5 73.9997 576.5C59 576.5 56.999 555.5 73.9997 555.5Z" fill="#524443"/>
<path id="Vector_36" d="M559.5 555.563C576.5 556.98 573 579.282 560 578.063C543.572 576.523 545.5 554.397 559.5 555.563Z" fill="#524443"/>
</g>
<g id="Group 1">
<path id="Vector_37" d="M250 467L311.047 467.187L314.447 478.72L253.5 479L250 467Z" fill="#524443"/>
<path id="Vector_38" d="M250 467L258 467L261.413 478.947H253.5C250 467 253.5 478.947 250 467Z" fill="#3A2E2E"/>
</g>
<g id="Group 2">
<path id="Vector_39" d="M242 443L303.047 443.187L306.447 454.72L245.5 455L242 443Z" fill="#524443"/>
<path id="Vector_40" d="M242 443L250 443L253.413 454.947H245.5C242 443 245.5 454.947 242 443Z" fill="#3A2E2E"/>
</g>
<g id="Group 3">
<path id="Vector_41" d="M234 418L295.047 418.187L298.447 429.72L237.5 430L234 418Z" fill="#524443"/>
<path id="Vector_42" d="M234 418L242 418L245.413 429.947H237.5C234 418 237.5 429.947 234 418Z" fill="#3A2E2E"/>
</g>
<g id="Group 4">
<path id="Vector_43" d="M226 394L287.047 394.187L290.447 405.72L229.5 406L226 394Z" fill="#524443"/>
<path id="Vector_44" d="M226 394L234 394L237.413 405.947H229.5C226 394 229.5 405.947 226 394Z" fill="#3A2E2E"/>
</g>
</g>
</svg>
