<svg width="512" height="512" viewBox="0 0 512 512" fill="none" xmlns="http://www.w3.org/2000/svg">
  <path
    d="M249.271 321.56C240.332 335.612 231.755 349.358 212.537 362.713C202.256 369.92 178.594 384 144.96 384C80.793 384 29 337.344 29 255.318C29 183.63 77.7201 127 146.329 127C174.124 127 198.82 136.61 217.007 151.026C233.824 164.408 241.701 177.792 248.573 189.805L200.551 213.802C197.116 205.923 192.981 197.682 182.365 188.77C170.689 179.494 159.039 176.757 149.066 176.757C109.957 176.757 89.3683 213.132 89.3683 253.614C89.3683 306.808 116.494 333.209 149.066 333.209C180.633 333.209 193.343 311.25 201.557 297.198L249.271 321.56ZM417.497 134.543H482L397.942 376.793H336.206L253.182 134.543H317.684L367.773 306.808L417.497 134.543Z"
    fill="white" />
</svg>