<?xml version="1.0" encoding="UTF-8" ?>
<!DOCTYPE svg PUBLIC "-//W3C//DTD SVG 1.1//EN" "http://www.w3.org/Graphics/SVG/1.1/DTD/svg11.dtd">
<svg width="500pt" height="500pt" viewBox="0 0 500 500" version="1.1" xmlns="http://www.w3.org/2000/svg">
<g id="#9b559aff">
<path fill="#9b559a" opacity="1.00" d=" M 0.00 0.00 L 0.06 0.00 C 0.05 0.03 0.02 0.08 0.00 0.11 L 0.00 0.00 Z" />
<path fill="#9b559a" opacity="1.00" d=" M 165.14 31.93 C 168.67 35.81 171.60 40.18 174.62 44.47 C 179.02 50.94 182.42 58.31 188.50 63.46 C 197.18 70.93 206.81 77.63 217.75 81.31 C 226.38 85.43 235.42 88.99 243.06 94.88 C 247.36 98.03 252.51 99.88 256.55 103.42 C 261.35 107.62 266.11 111.88 270.77 116.23 C 275.55 120.64 278.44 126.57 282.65 131.45 C 289.62 139.53 294.49 149.09 299.67 158.35 C 305.33 169.60 311.43 180.86 314.18 193.25 C 308.28 184.77 302.33 176.27 295.36 168.63 C 289.90 161.76 284.07 155.14 277.35 149.47 C 273.66 143.65 270.82 137.20 266.13 132.04 C 261.94 127.48 258.69 122.04 253.88 118.07 C 253.11 118.21 251.58 118.48 250.81 118.62 C 248.69 117.79 246.55 117.01 244.43 116.17 C 250.53 124.32 256.89 132.36 261.75 141.34 C 266.73 150.37 272.27 159.23 275.25 169.19 C 269.84 163.38 266.09 156.22 260.74 150.33 C 255.79 143.37 250.24 136.79 243.69 131.28 C 232.96 120.17 219.36 112.56 206.15 104.82 C 200.10 100.65 193.34 97.37 188.22 91.97 C 183.91 87.43 179.74 82.71 176.10 77.60 C 172.95 73.13 170.82 68.06 168.45 63.16 C 171.47 75.81 180.15 85.94 188.97 95.06 C 189.14 97.86 189.29 100.67 189.29 103.48 C 179.59 96.01 172.16 85.67 168.14 74.12 C 167.31 71.96 167.00 69.65 166.87 67.36 C 168.00 69.35 168.26 71.87 170.50 73.03 C 170.04 72.30 169.58 71.57 169.10 70.86 C 165.95 58.27 161.57 44.92 165.14 31.93 Z" />
<path fill="#9b559a" opacity="1.00" d=" M 155.12 116.11 C 155.50 116.24 156.27 116.48 156.65 116.60 C 158.82 122.71 159.77 129.16 161.66 135.36 C 163.22 140.48 164.57 145.68 165.11 151.02 C 166.15 159.20 165.12 167.47 165.96 175.67 L 165.98 175.96 C 164.04 178.41 162.09 180.86 160.05 183.23 C 161.53 176.04 162.26 168.65 161.38 161.34 C 160.57 151.66 157.28 142.44 155.76 132.89 C 154.86 127.34 155.27 121.70 155.12 116.11 Z" />
<path fill="#9b559a" opacity="1.00" d=" M 386.72 122.56 C 389.62 123.32 392.43 124.52 394.84 126.32 C 405.32 134.06 412.73 144.93 421.36 154.51 C 427.12 161.29 433.79 167.20 440.50 173.01 L 440.84 173.29 C 441.67 175.00 442.46 176.74 443.18 178.51 C 439.79 176.41 437.34 173.21 434.28 170.72 C 427.73 165.66 421.80 159.87 416.05 153.94 C 409.93 148.69 404.67 142.48 400.20 135.79 C 398.68 133.71 397.19 131.48 394.93 130.14 C 391.74 128.15 389.24 125.30 386.72 122.56 Z" />
<path fill="#9b559a" opacity="1.00" d=" M 154.26 137.98 C 154.99 140.61 155.65 143.26 156.17 145.94 C 152.11 150.94 151.03 157.45 148.03 163.02 C 143.79 171.07 139.98 179.39 137.13 188.04 C 133.61 204.11 132.14 220.67 133.39 237.10 C 133.74 243.62 134.32 250.21 136.67 256.36 C 139.71 264.31 142.32 272.42 145.64 280.26 C 149.39 289.90 152.65 299.73 156.81 309.20 C 161.87 320.02 166.21 331.16 170.84 342.17 C 173.79 347.91 177.69 353.15 180.12 359.17 C 177.32 356.88 175.41 353.78 173.08 351.06 C 171.83 349.47 170.28 348.02 169.68 346.05 C 167.87 339.88 165.24 334.01 163.11 327.95 C 160.92 322.95 157.83 318.41 155.48 313.49 C 151.17 306.37 148.96 298.28 144.98 290.99 C 139.83 278.63 134.87 266.10 131.96 252.99 C 128.34 240.68 127.39 227.81 126.90 215.05 C 126.47 204.93 129.58 195.17 132.47 185.61 C 135.33 175.09 139.92 165.01 146.16 156.07 C 150.03 150.72 155.40 145.16 154.26 137.98 Z" />
<path fill="#9b559a" opacity="1.00" d=" M 306.68 139.99 C 311.12 143.31 314.16 148.01 318.04 151.89 C 323.50 157.62 328.46 163.80 332.69 170.48 C 341.75 182.45 349.35 195.62 354.13 209.89 C 356.36 217.82 358.13 225.88 359.92 233.92 C 360.96 238.60 362.84 243.15 362.89 248.01 C 362.97 251.19 363.01 254.38 363.47 257.53 L 363.49 257.76 C 360.29 266.48 357.32 275.36 352.39 283.31 C 352.35 265.85 351.97 248.30 349.04 231.05 C 347.19 214.01 340.18 198.07 331.65 183.39 C 327.43 173.98 320.82 165.92 316.34 156.64 C 313.65 150.78 309.34 145.85 306.68 139.99 Z" />
<path fill="#9b559a" opacity="1.00" d=" M 313.76 157.63 C 314.57 158.68 315.39 159.76 315.96 160.98 C 320.73 171.10 324.08 181.80 327.34 192.48 C 328.89 199.66 331.11 206.83 330.82 214.26 C 327.18 204.96 325.96 194.93 322.29 185.65 C 320.57 181.21 319.29 176.63 317.89 172.09 C 316.47 167.28 313.96 162.73 313.76 157.63 Z" />
<path fill="#9b559a" opacity="1.00" d=" M 363.04 177.84 C 366.24 181.91 368.31 186.68 370.67 191.25 C 374.07 198.54 377.64 205.96 378.60 214.04 C 380.49 225.94 380.86 238.00 381.29 250.02 C 381.42 259.00 378.47 267.70 378.37 276.61 C 374.26 281.70 370.31 286.93 366.13 291.96 C 369.19 283.34 371.72 274.30 371.30 265.06 C 371.16 260.03 372.20 255.01 371.57 249.99 C 371.21 244.30 369.47 238.69 370.20 232.96 C 371.36 217.85 369.10 202.75 365.76 188.06 C 364.84 184.65 363.27 181.41 363.04 177.84 Z" />
<path fill="#9b559a" opacity="1.00" d=" M 161.37 312.42 C 162.97 312.48 164.99 315.92 163.22 316.84 C 161.83 316.04 161.02 313.94 161.37 312.42 Z" />
<path fill="#9b559a" opacity="1.00" d=" M 164.34 319.88 C 165.02 319.38 165.73 318.95 166.45 318.51 C 169.88 322.52 173.57 326.32 177.78 329.53 C 174.86 330.52 172.11 331.93 169.54 333.62 C 168.20 328.89 165.76 324.57 164.34 319.88 Z" />
<path fill="#9b559a" opacity="1.00" d=" M 321.66 336.06 C 325.95 332.96 329.81 329.32 334.00 326.11 C 340.71 328.59 347.20 331.75 353.25 335.58 C 349.13 339.18 344.49 342.11 340.32 345.64 C 334.05 342.54 328.17 338.67 321.66 336.06 Z" />
<path fill="#9b559a" opacity="1.00" d=" M 152.59 327.23 C 155.74 330.85 158.71 334.62 161.35 338.64 C 158.25 340.72 155.22 342.92 152.38 345.35 C 148.54 348.77 143.66 350.58 139.40 353.37 C 135.76 355.56 132.67 358.49 129.59 361.39 C 125.23 359.30 120.40 358.76 115.62 358.55 C 120.99 352.50 128.26 348.63 133.75 342.72 C 139.64 337.10 146.05 332.06 152.59 327.23 Z" />
<path fill="#9b559a" opacity="1.00" d=" M 383.11 399.21 C 388.48 397.30 394.04 396.04 399.61 394.90 C 401.41 396.28 403.38 397.43 405.38 398.51 C 398.99 401.26 391.86 401.64 385.55 404.60 C 376.48 408.69 367.49 412.95 358.68 417.55 C 355.40 419.21 352.10 420.88 349.26 423.24 C 342.12 429.07 334.55 434.49 328.39 441.41 C 324.79 445.47 320.42 448.72 316.67 452.62 C 312.12 457.11 308.24 462.19 304.12 467.07 C 300.96 470.92 297.47 474.51 294.64 478.62 C 289.60 485.89 283.67 492.51 278.95 500.00 L 226.01 500.00 C 215.73 482.83 200.80 468.98 184.69 457.34 C 175.90 452.21 167.61 446.28 158.82 441.13 C 148.65 434.97 137.42 430.92 126.36 426.67 C 112.52 422.39 99.70 414.23 84.90 413.63 C 103.68 409.18 122.64 404.97 141.97 404.06 C 145.48 404.07 148.57 405.98 151.72 407.29 C 156.94 409.75 162.53 411.48 167.41 414.62 C 174.27 419.44 181.49 423.74 187.92 429.14 C 193.65 434.00 200.20 437.92 205.28 443.52 C 209.16 447.72 213.38 451.58 217.34 455.71 C 222.26 460.62 225.44 466.89 229.75 472.30 C 235.49 479.68 239.10 488.69 246.06 495.11 L 246.24 494.53 C 246.44 493.97 246.85 492.84 247.05 492.28 C 249.52 493.75 253.33 493.90 254.33 490.59 L 254.88 489.47 C 255.00 490.23 255.24 491.76 255.36 492.53 C 256.09 492.74 257.55 493.17 258.28 493.39 C 258.55 493.47 259.08 493.63 259.35 493.71 C 262.60 488.22 266.75 483.31 269.69 477.63 C 272.23 472.97 274.85 468.34 277.96 464.04 C 282.53 457.89 289.81 454.46 294.18 448.13 C 299.26 440.90 306.95 436.30 313.47 430.53 C 325.24 421.14 339.15 415.09 352.65 408.68 C 357.19 406.69 361.91 405.15 366.61 403.59 C 372.01 401.76 377.73 401.11 383.11 399.21 Z" />
</g>
<g id="#2c2c2cff">
<path fill="#2c2c2c" opacity="1.00" d=" M 179.57 10.55 C 188.41 5.17 198.54 1.71 208.93 1.31 C 226.34 -0.42 243.96 1.34 261.02 5.03 C 271.60 6.86 282.12 9.25 292.26 12.84 C 303.92 16.92 314.76 22.87 325.85 28.22 C 338.98 35.76 351.36 44.55 363.35 53.76 C 369.81 59.60 376.78 64.92 382.49 71.56 C 387.08 76.97 392.34 81.75 397.11 87.00 C 406.05 97.88 413.49 109.95 419.43 122.71 C 425.12 134.93 431.30 146.94 436.71 159.29 C 438.93 167.18 444.72 173.71 445.83 181.93 C 442.11 180.79 439.33 178.05 436.65 175.39 C 431.94 170.74 426.58 166.82 421.89 162.15 C 415.13 155.14 407.61 148.85 401.54 141.18 C 397.11 135.54 392.94 129.39 386.81 125.43 C 389.78 131.93 393.19 138.22 396.44 144.59 C 400.91 152.74 403.45 161.73 406.52 170.45 C 410.25 184.23 412.30 198.76 410.19 212.98 C 408.80 227.86 403.13 242.04 395.54 254.80 C 392.14 260.67 387.51 265.78 384.42 271.83 C 384.87 278.51 387.20 284.95 389.45 291.22 C 395.16 304.35 401.86 317.15 410.38 328.68 C 413.18 332.62 417.35 335.88 418.25 340.89 C 409.09 341.00 400.97 336.14 393.31 331.69 C 388.26 329.11 383.41 326.17 378.56 323.23 C 376.50 327.76 379.25 332.47 380.45 336.84 C 382.76 344.29 386.15 351.30 389.91 358.11 C 391.38 360.65 394.03 362.13 396.28 363.89 C 405.15 370.19 413.06 377.69 420.74 385.34 C 422.76 387.21 423.28 389.97 423.82 392.54 C 416.54 392.53 409.34 393.76 402.07 393.79 C 401.51 393.54 400.37 393.04 399.81 392.79 C 407.11 391.56 414.52 391.34 421.91 391.05 C 419.42 385.95 415.02 382.34 410.88 378.65 C 405.47 373.90 400.61 368.46 394.49 364.61 C 389.76 361.18 385.22 357.52 380.67 353.89 C 376.41 350.20 371.41 347.54 366.97 344.10 C 362.70 340.79 357.87 338.34 353.25 335.58 C 347.20 331.75 340.71 328.59 334.00 326.11 C 329.81 329.32 325.95 332.96 321.66 336.06 C 328.17 338.67 334.05 342.54 340.32 345.64 C 345.80 348.25 350.75 351.75 355.74 355.17 C 361.56 358.62 367.00 362.67 372.81 366.14 C 379.56 369.74 385.15 375.10 390.37 380.61 C 391.67 382.08 393.71 384.68 391.41 386.26 C 386.09 388.07 380.55 389.21 375.35 391.40 C 358.89 397.84 341.17 401.46 325.96 410.80 C 313.65 417.64 301.92 425.90 292.47 436.43 C 285.56 443.22 279.88 451.10 273.65 458.49 C 269.05 463.97 264.21 469.34 260.52 475.50 C 258.13 479.93 256.40 484.68 254.88 489.47 L 254.33 490.59 C 254.38 489.52 254.47 487.36 254.52 486.28 C 253.86 486.75 252.54 487.71 251.88 488.18 C 251.73 487.63 251.42 486.51 251.26 485.96 C 245.26 479.05 243.27 469.73 239.28 461.66 C 232.41 448.90 225.45 436.19 218.57 423.44 C 211.70 412.03 205.37 400.33 199.13 388.57 C 204.44 386.05 207.37 380.65 209.48 375.43 C 212.24 367.48 211.43 358.92 211.28 350.67 C 200.60 345.37 190.60 338.81 180.90 331.95 C 177.36 332.64 173.94 334.09 170.94 336.09 C 171.57 339.08 173.23 341.70 174.69 344.34 C 178.35 350.48 181.95 356.70 184.95 363.19 C 185.75 364.31 184.98 366.77 183.34 365.61 C 182.50 365.18 181.75 364.64 181.07 363.99 C 173.90 356.92 168.68 348.22 162.47 340.36 C 156.97 344.27 151.87 348.77 145.95 352.06 C 141.20 354.73 136.45 357.53 132.60 361.44 C 127.10 367.17 119.39 370.07 113.96 375.89 C 109.67 380.42 104.22 383.47 99.16 387.01 C 104.06 387.11 109.00 386.76 113.87 387.51 C 125.33 389.55 136.71 392.29 147.62 396.38 C 155.81 400.46 164.22 404.11 172.08 408.84 C 183.46 414.17 193.71 421.58 203.47 429.44 C 207.71 433.58 212.58 436.95 217.22 440.60 C 220.93 444.62 224.45 448.80 227.84 453.10 C 234.57 460.70 239.27 469.86 242.89 479.28 C 244.40 483.23 247.04 486.84 247.45 491.14 C 240.94 480.79 237.50 468.77 230.01 458.97 C 224.00 451.73 218.65 443.67 210.83 438.19 C 206.44 435.30 202.86 431.38 198.63 428.28 C 192.29 423.53 186.06 418.53 179.02 414.82 C 167.07 408.80 155.71 401.50 143.06 396.98 C 132.60 393.72 121.95 390.90 111.09 389.37 C 106.06 388.47 100.42 390.66 95.82 387.96 C 97.52 384.30 101.87 383.31 104.65 380.71 C 108.34 377.36 112.22 374.25 116.13 371.17 C 120.40 367.60 125.65 365.38 129.59 361.39 C 132.67 358.49 135.76 355.56 139.40 353.37 C 143.66 350.58 148.54 348.77 152.38 345.35 C 155.22 342.92 158.25 340.72 161.35 338.64 C 158.71 334.62 155.74 330.85 152.59 327.23 C 146.05 332.06 139.64 337.10 133.75 342.72 C 128.26 348.63 120.99 352.50 115.62 358.55 C 110.22 364.19 104.92 369.94 99.05 375.11 C 92.49 380.93 85.82 386.75 80.57 393.83 C 92.71 392.28 105.16 392.33 117.16 394.90 C 122.33 396.01 127.61 396.67 132.63 398.36 C 143.58 402.14 154.56 405.94 165.01 410.96 C 167.15 412.03 169.12 413.39 171.06 414.79 C 176.07 418.58 181.68 421.51 186.49 425.58 C 193.58 431.46 201.45 436.50 207.67 443.37 C 213.75 449.66 220.58 455.41 225.22 462.93 C 230.65 470.50 236.21 478.03 240.49 486.34 C 241.91 489.40 244.04 492.01 246.24 494.53 L 246.06 495.11 C 239.10 488.69 235.49 479.68 229.75 472.30 C 225.44 466.89 222.26 460.62 217.34 455.71 C 213.38 451.58 209.16 447.72 205.28 443.52 C 200.20 437.92 193.65 434.00 187.92 429.14 C 181.49 423.74 174.27 419.44 167.41 414.62 C 162.53 411.48 156.94 409.75 151.72 407.29 C 148.57 405.98 145.48 404.07 141.97 404.06 C 122.64 404.97 103.68 409.18 84.90 413.63 C 79.23 415.06 73.57 416.54 67.93 418.09 C 76.92 436.14 88.80 452.49 99.68 469.39 C 108.11 479.79 116.65 490.13 125.70 500.00 L 121.68 500.00 C 115.22 490.70 107.17 482.65 100.23 473.72 C 90.74 460.34 82.15 446.36 73.63 432.36 C 71.18 427.89 69.56 423.03 67.46 418.40 C 65.83 418.89 64.19 419.39 62.56 419.90 C 68.99 435.32 76.61 450.34 85.67 464.40 C 93.14 477.46 104.34 487.79 113.00 500.00 L 110.06 500.00 C 105.47 493.04 99.56 487.12 94.52 480.50 C 87.01 472.24 82.10 462.14 76.28 452.72 C 73.99 448.85 72.13 444.74 70.15 440.71 C 66.94 434.06 63.57 427.37 62.21 420.05 C 59.49 421.21 56.80 422.45 54.14 423.75 C 59.78 436.01 66.50 447.76 73.84 459.09 C 77.05 465.56 81.89 470.97 86.32 476.60 C 92.30 484.33 98.17 492.16 104.01 500.00 L 52.05 500.00 C 54.16 491.20 58.20 483.08 61.09 474.54 C 56.98 479.21 54.47 484.95 51.18 490.17 C 49.24 493.21 48.02 496.61 46.84 500.00 L 42.27 500.00 C 48.53 487.74 56.78 476.66 64.04 464.99 C 65.70 462.04 69.21 460.27 70.46 457.24 C 64.91 448.04 59.93 438.52 54.71 429.13 C 53.79 427.11 52.40 424.55 53.48 422.41 C 61.18 418.49 69.49 415.73 77.94 413.94 C 97.45 408.65 117.43 405.28 137.44 402.51 C 130.98 398.49 123.21 397.54 115.90 396.02 C 103.78 393.56 91.32 394.09 79.11 395.57 C 79.34 390.95 82.81 387.76 85.87 384.74 C 96.00 374.42 107.56 365.51 116.53 354.08 C 108.62 355.55 100.59 356.42 92.78 358.45 C 88.72 359.30 84.63 360.94 80.43 360.20 C 80.13 358.05 82.20 356.77 83.46 355.39 C 88.48 350.79 93.96 346.62 98.26 341.28 C 101.80 336.82 105.93 332.82 109.02 328.02 C 113.16 321.02 116.20 313.20 116.64 305.01 C 101.83 310.97 87.02 317.92 70.94 319.55 C 69.33 319.56 65.42 320.10 66.42 317.38 C 69.55 312.63 74.63 309.57 78.30 305.25 C 85.14 297.13 93.56 290.19 98.48 280.61 C 104.13 271.61 109.93 262.61 113.91 252.72 C 106.77 230.13 102.82 206.66 100.84 183.09 C 98.98 168.14 98.33 153.00 99.05 137.94 C 99.65 124.05 103.13 110.37 108.66 97.64 C 116.37 81.45 128.40 67.32 142.94 56.84 C 148.67 52.41 155.32 49.22 162.36 47.51 C 162.11 43.49 161.52 39.38 162.56 35.42 C 164.90 25.40 171.58 16.80 179.57 10.55 M 183.97 9.94 C 175.54 14.98 169.06 22.97 165.14 31.93 C 161.57 44.92 165.95 58.27 169.10 70.86 C 169.58 71.57 170.04 72.30 170.50 73.03 C 168.26 71.87 168.00 69.35 166.87 67.36 C 165.29 60.95 163.13 54.65 161.97 48.11 C 160.02 49.77 157.36 49.97 155.21 51.24 C 150.40 54.03 145.75 57.09 141.46 60.62 C 132.49 66.46 126.19 75.32 119.25 83.27 C 110.31 95.89 104.91 110.76 102.18 125.91 C 98.85 144.41 100.07 163.36 102.53 181.89 C 104.95 205.03 107.88 228.33 115.48 250.43 C 116.92 256.66 120.56 261.97 123.30 267.65 C 127.23 275.22 131.34 282.72 134.31 290.74 C 138.82 299.62 143.65 308.36 149.25 316.62 C 154.68 327.33 163.03 336.11 169.68 346.05 C 170.28 348.02 171.83 349.47 173.08 351.06 C 175.41 353.78 177.32 356.88 180.12 359.17 C 177.69 353.15 173.79 347.91 170.84 342.17 C 166.21 331.16 161.87 320.02 156.81 309.20 C 152.65 299.73 149.39 289.90 145.64 280.26 C 142.32 272.42 139.71 264.31 136.67 256.36 C 134.32 250.21 133.74 243.62 133.39 237.10 C 132.14 220.67 133.61 204.11 137.13 188.04 C 139.98 179.39 143.79 171.07 148.03 163.02 C 151.03 157.45 152.11 150.94 156.17 145.94 C 155.65 143.26 154.99 140.61 154.26 137.98 C 152.87 130.65 152.69 123.12 153.91 115.75 L 155.12 116.11 C 155.27 121.70 154.86 127.34 155.76 132.89 C 157.28 142.44 160.57 151.66 161.38 161.34 C 162.26 168.65 161.53 176.04 160.05 183.23 C 162.09 180.86 164.04 178.41 165.98 175.96 L 165.96 175.67 C 170.77 169.13 175.42 162.30 178.50 154.75 C 181.12 150.88 182.57 146.36 184.19 142.02 C 186.57 135.60 188.28 128.86 188.55 122.01 L 188.66 122.56 C 189.81 116.31 190.66 109.73 189.29 103.48 C 189.29 100.67 189.14 97.86 188.97 95.06 C 180.15 85.94 171.47 75.81 168.45 63.16 C 170.82 68.06 172.95 73.13 176.10 77.60 C 179.74 82.71 183.91 87.43 188.22 91.97 C 193.34 97.37 200.10 100.65 206.15 104.82 C 219.36 112.56 232.96 120.17 243.69 131.28 C 250.24 136.79 255.79 143.37 260.74 150.33 C 266.09 156.22 269.84 163.38 275.25 169.19 C 278.80 176.77 283.16 184.01 287.81 190.96 C 286.67 176.77 281.26 163.41 275.17 150.71 C 271.91 145.07 269.25 139.04 265.01 134.02 C 260.44 128.75 256.33 122.98 250.81 118.62 C 251.58 118.48 253.11 118.21 253.88 118.07 C 258.69 122.04 261.94 127.48 266.13 132.04 C 270.82 137.20 273.66 143.65 277.35 149.47 C 284.07 155.14 289.90 161.76 295.36 168.63 C 302.33 176.27 308.28 184.77 314.18 193.25 C 317.88 200.95 322.80 208.04 326.07 215.96 C 328.83 221.20 330.54 226.86 332.79 232.30 C 332.89 226.25 331.92 220.19 330.82 214.26 C 331.11 206.83 328.89 199.66 327.34 192.48 C 324.08 181.80 320.73 171.10 315.96 160.98 C 315.39 159.76 314.57 158.68 313.76 157.63 L 313.70 157.05 C 311.21 150.68 306.88 145.27 303.35 139.47 C 300.89 135.27 297.06 131.89 295.49 127.19 C 300.17 130.46 302.66 135.99 306.68 139.99 C 309.34 145.85 313.65 150.78 316.34 156.64 C 320.82 165.92 327.43 173.98 331.65 183.39 C 340.18 198.07 347.19 214.01 349.04 231.05 C 351.97 248.30 352.35 265.85 352.39 283.31 C 357.32 275.36 360.29 266.48 363.49 257.76 L 363.47 257.53 C 365.82 250.87 366.74 243.83 367.70 236.87 C 368.18 226.12 368.68 215.24 366.62 204.60 C 366.22 192.73 361.38 181.66 358.16 170.38 C 358.37 169.94 358.79 169.06 359.00 168.62 C 360.08 171.79 361.30 174.97 363.04 177.84 C 363.27 181.41 364.84 184.65 365.76 188.06 C 369.10 202.75 371.36 217.85 370.20 232.96 C 369.47 238.69 371.21 244.30 371.57 249.99 C 372.20 255.01 371.16 260.03 371.30 265.06 C 371.72 274.30 369.19 283.34 366.13 291.96 C 370.31 286.93 374.26 281.70 378.37 276.61 C 381.69 273.12 383.98 268.85 386.49 264.78 L 386.49 264.63 C 391.49 257.72 395.88 250.40 399.84 242.86 C 409.15 223.44 411.43 200.89 406.87 179.89 C 405.69 172.71 402.83 165.98 400.83 159.02 C 398.66 152.87 395.37 147.19 392.87 141.18 C 390.28 134.49 385.29 129.14 382.44 122.57 C 380.78 118.22 376.49 116.05 373.26 113.05 L 374.98 112.80 C 378.97 115.65 382.87 118.65 386.09 122.38 L 386.72 122.56 C 389.24 125.30 391.74 128.15 394.93 130.14 C 397.19 131.48 398.68 133.71 400.20 135.79 C 404.67 142.48 409.93 148.69 416.05 153.94 C 421.80 159.87 427.73 165.66 434.28 170.72 C 437.34 173.21 439.79 176.41 443.18 178.51 C 442.46 176.74 441.67 175.00 440.84 173.29 L 440.50 173.01 C 436.55 164.84 434.18 155.87 429.11 148.26 C 426.16 140.05 421.54 132.58 418.50 124.40 C 416.51 119.62 413.66 115.26 411.26 110.68 C 404.80 98.46 396.35 87.28 386.02 78.05 C 378.89 69.19 370.10 61.95 361.48 54.62 C 350.30 45.52 338.12 37.77 325.88 30.20 C 320.96 27.14 315.35 25.50 310.36 22.59 C 298.30 16.99 285.89 11.91 272.92 8.85 C 260.75 7.15 248.79 3.93 236.49 3.24 C 218.93 1.96 200.10 1.77 183.97 9.94 M 191.57 110.29 C 191.61 121.15 189.29 131.82 186.38 142.23 C 181.36 157.76 172.15 171.47 162.44 184.43 C 161.35 186.03 159.78 187.39 157.71 187.24 C 156.96 185.91 156.84 184.55 157.33 183.17 C 160.71 172.10 159.78 159.99 156.77 148.95 C 154.96 152.73 152.96 156.44 151.46 160.37 C 147.73 170.35 142.43 179.73 139.70 190.07 C 136.36 199.66 136.49 209.85 135.69 219.82 C 134.24 225.90 135.27 232.10 136.16 238.17 C 137.27 236.51 138.45 234.89 139.33 233.10 C 142.65 228.66 146.38 224.56 149.93 220.30 L 149.00 219.86 L 149.77 220.20 C 151.87 213.85 155.79 208.29 160.72 203.81 C 164.37 199.04 166.99 193.54 170.76 188.81 C 176.09 182.42 180.26 175.10 186.10 169.12 C 191.87 162.20 197.16 154.86 203.45 148.39 C 209.05 141.04 215.80 134.61 221.10 127.03 C 222.64 125.24 224.39 123.65 225.91 121.83 C 226.74 121.20 226.88 119.81 225.93 119.21 C 222.77 116.52 218.93 114.80 215.47 112.55 C 207.18 108.02 199.40 102.65 191.59 97.38 C 191.12 96.83 190.17 95.72 189.70 95.17 C 190.01 100.24 190.65 105.29 191.57 110.29 M 227.30 120.12 C 225.43 122.44 223.75 124.92 222.33 127.54 C 215.32 137.62 207.09 146.77 199.19 156.14 C 193.14 164.39 185.89 171.66 179.98 180.01 C 175.39 186.66 169.77 192.57 165.95 199.75 C 170.14 196.41 175.04 194.25 179.76 191.81 C 186.07 185.65 190.47 177.82 196.04 171.02 C 199.39 167.32 202.86 163.71 205.69 159.58 C 209.59 153.89 214.66 149.15 218.74 143.59 C 221.92 139.96 224.12 135.54 227.69 132.24 C 229.66 129.87 231.60 127.49 233.62 125.17 C 231.65 123.33 229.49 121.69 227.30 120.12 M 233.71 125.76 C 232.13 127.99 230.49 130.17 228.75 132.28 C 227.01 134.09 225.40 136.04 224.15 138.22 C 218.97 147.36 211.24 154.64 205.30 163.24 C 202.38 167.61 198.17 170.90 195.28 175.29 C 191.56 180.61 187.49 185.67 183.69 190.93 C 192.26 189.81 201.16 192.56 207.68 198.22 C 214.50 203.46 220.55 210.00 223.79 218.07 C 225.41 222.54 228.90 226.20 229.88 230.89 C 229.68 231.16 229.28 231.68 229.09 231.95 C 225.13 227.43 223.59 221.49 220.59 216.40 C 218.94 213.45 217.09 210.61 214.96 207.99 C 214.62 211.54 214.10 215.08 213.40 218.58 C 209.96 228.43 202.24 238.22 191.21 239.46 C 184.81 239.88 178.07 238.71 172.45 235.54 C 168.04 232.44 164.69 227.90 162.51 223.00 C 159.83 216.87 161.60 210.03 163.92 204.10 C 159.57 206.86 158.14 212.06 155.03 215.89 C 152.13 219.53 149.85 223.60 146.96 227.24 C 144.57 230.64 141.85 233.81 139.82 237.45 C 138.74 238.98 137.63 240.49 136.48 241.97 C 136.82 244.66 137.14 247.40 138.27 249.90 C 139.73 248.46 141.18 247.00 142.63 245.55 C 146.28 241.74 150.55 238.40 153.02 233.62 C 153.34 233.88 153.99 234.42 154.31 234.68 C 151.65 241.00 146.36 245.45 141.25 249.76 C 149.63 249.45 157.93 248.07 166.30 247.82 C 166.35 252.21 163.15 255.55 161.43 259.34 C 158.51 265.44 155.73 271.60 152.80 277.69 C 152.06 279.98 151.10 282.24 149.33 283.94 C 153.50 292.71 154.85 303.37 162.44 310.11 C 164.09 308.19 165.83 306.35 167.74 304.69 C 171.55 301.19 174.76 297.07 178.68 293.68 C 183.60 289.21 187.54 283.86 191.96 278.94 C 204.11 267.78 215.79 256.12 227.00 244.03 C 234.80 237.17 241.21 228.81 249.62 222.64 C 253.84 218.94 258.18 215.16 261.15 210.34 C 254.37 212.27 247.66 214.70 240.64 215.58 C 241.31 210.00 245.95 206.29 248.54 201.60 C 254.30 191.60 261.56 182.61 268.21 173.22 C 269.35 171.64 270.51 170.08 271.66 168.51 C 268.01 163.48 264.40 158.42 260.69 153.44 C 256.98 147.26 251.63 142.36 246.94 136.96 C 242.60 133.16 238.96 128.36 233.71 125.76 M 278.98 152.90 C 281.12 158.39 283.69 163.71 285.18 169.43 L 285.49 169.47 C 287.53 175.81 289.14 182.32 289.84 188.96 C 289.89 190.53 290.18 192.24 289.50 193.72 C 288.25 195.89 286.93 193.50 285.92 192.51 C 281.16 185.05 277.05 177.22 272.58 169.59 C 270.93 170.97 269.74 172.76 268.67 174.61 C 265.73 179.32 262.64 183.93 259.28 188.35 C 253.92 196.61 248.91 205.10 243.12 213.08 C 254.63 211.24 265.16 204.98 276.98 205.02 C 277.66 209.50 273.49 212.08 270.72 214.78 C 261.06 223.44 252.75 233.40 243.29 242.27 C 237.35 248.98 231.13 255.46 224.98 261.98 C 218.86 270.09 210.83 276.57 205.02 284.93 C 200.99 290.27 195.98 294.77 191.86 300.04 C 188.86 303.62 186.20 307.55 182.60 310.57 C 180.61 312.21 178.82 314.08 177.37 316.22 L 177.32 316.17 C 175.53 318.35 173.75 320.54 171.98 322.73 C 182.10 330.66 192.94 337.61 203.97 344.18 C 208.33 347.36 213.50 349.04 218.10 351.80 C 222.07 353.86 225.88 356.39 230.29 357.41 C 237.92 360.98 246.72 360.90 255.00 361.12 C 265.64 361.29 275.06 355.90 284.93 352.77 C 297.25 348.02 309.57 342.56 319.72 333.98 C 329.32 329.25 335.51 320.33 343.02 313.08 C 347.72 308.92 350.37 303.10 353.94 298.05 C 360.53 288.75 364.67 278.02 368.42 267.35 C 370.24 263.85 369.92 259.83 369.92 256.02 C 369.78 252.01 369.97 247.89 368.70 244.03 C 366.35 257.17 362.25 270.06 355.82 281.79 C 354.14 284.76 352.75 288.08 349.95 290.19 C 349.65 286.77 350.02 283.35 350.16 279.94 C 350.57 265.30 349.63 250.67 348.33 236.09 C 347.85 232.32 347.22 228.58 346.58 224.84 C 343.73 229.23 340.08 233.00 335.81 236.03 C 335.84 237.81 335.88 239.59 335.88 241.38 C 335.93 241.80 336.02 242.65 336.07 243.07 C 335.40 242.77 334.05 242.17 333.38 241.87 C 332.99 240.93 332.69 239.98 332.47 239.00 C 320.32 245.37 303.71 241.50 295.67 230.36 C 292.64 224.65 290.57 218.37 289.69 211.96 C 285.71 218.23 282.05 224.68 278.28 231.07 L 278.05 229.26 C 282.07 219.82 286.96 210.57 293.91 202.95 C 296.87 198.76 301.89 196.99 306.33 194.87 C 308.16 194.40 310.01 193.94 311.86 193.51 C 301.80 179.29 291.19 165.36 278.98 152.90 M 322.17 169.87 C 325.22 176.87 327.05 184.29 329.32 191.56 C 331.26 191.95 333.20 192.36 335.14 192.79 C 330.72 185.21 327.59 176.83 322.17 169.87 M 169.22 200.26 C 165.23 203.23 164.68 208.59 163.66 213.10 C 162.27 220.26 166.45 226.92 171.26 231.80 C 176.62 236.37 184.13 237.34 190.92 237.13 C 201.44 235.95 208.72 226.35 211.57 216.83 C 211.91 212.73 213.21 208.31 211.74 204.35 C 208.61 201.52 205.22 198.95 201.65 196.72 C 202.87 199.93 203.79 203.26 205.14 206.42 C 205.00 208.79 204.99 211.17 205.22 213.54 C 203.54 214.64 201.14 215.64 201.12 218.01 C 200.63 219.77 202.40 220.79 203.32 221.94 L 203.09 222.60 C 199.85 225.98 196.66 229.81 191.93 231.06 C 183.67 234.43 173.25 230.00 170.58 221.33 C 168.56 213.17 170.61 204.34 174.60 197.08 C 172.68 197.90 170.76 198.82 169.22 200.26 M 292.56 208.61 C 291.48 209.85 291.90 211.57 292.05 213.05 C 293.22 219.83 295.17 226.80 299.99 231.95 C 303.77 235.52 308.59 237.86 313.53 239.38 C 319.57 240.92 326.68 240.27 331.53 236.07 C 331.13 234.01 330.42 232.04 329.79 230.06 C 324.67 231.35 319.40 233.63 314.08 231.96 C 308.80 230.13 304.17 226.13 301.76 221.07 C 299.64 214.51 300.08 207.36 302.08 200.82 C 298.68 203.11 295.04 205.27 292.56 208.61 M 181.61 204.65 C 176.79 205.54 176.36 212.36 180.00 214.93 C 183.00 217.78 188.50 216.24 189.18 212.04 C 190.84 207.58 186.04 202.76 181.61 204.65 M 310.38 206.35 C 306.45 209.23 307.68 217.31 313.07 217.47 C 316.45 218.13 319.98 214.84 318.56 211.39 C 317.38 208.38 313.89 204.02 310.38 206.35 M 262.80 209.83 C 259.96 212.73 258.15 216.48 255.29 219.37 C 251.05 223.78 246.07 227.41 241.93 231.93 C 236.81 237.48 231.08 242.44 226.01 248.04 C 218.48 256.13 210.52 263.80 202.76 271.67 C 199.59 274.87 195.88 277.50 192.90 280.90 C 188.98 284.98 185.85 289.77 181.62 293.56 C 176.97 297.63 173.22 302.57 169.32 307.32 L 169.26 307.23 C 167.51 308.97 165.77 310.71 164.08 312.51 C 166.18 314.67 168.15 316.95 169.96 319.36 C 171.84 317.43 173.67 315.44 175.53 313.49 C 179.83 310.16 183.79 306.38 187.29 302.21 C 192.36 295.38 198.54 289.50 203.88 282.89 C 208.69 276.13 214.75 270.40 220.29 264.27 C 234.11 248.17 249.31 233.34 264.07 218.12 C 267.78 214.21 272.34 211.09 275.48 206.65 C 271.15 207.21 266.82 208.11 262.80 209.83 M 335.62 213.65 C 334.02 216.19 335.83 219.41 338.52 220.19 C 337.34 221.82 336.04 223.35 334.93 225.03 C 334.79 227.73 335.27 230.42 335.52 233.12 C 340.02 230.59 343.33 226.30 345.54 221.72 C 345.36 218.95 344.27 216.34 343.60 213.67 L 342.55 212.50 C 342.53 212.48 342.49 212.44 342.47 212.42 L 341.58 211.54 C 339.51 211.82 336.77 211.45 335.62 213.65 M 304.80 221.70 C 304.85 225.29 308.57 226.98 311.29 228.46 C 311.16 224.93 307.18 223.60 304.80 221.70 M 174.67 222.52 C 175.15 225.76 177.67 229.37 181.29 229.20 C 179.39 226.70 177.30 224.28 174.67 222.52 M 144.03 251.92 C 142.14 251.91 140.25 251.90 138.36 251.90 C 141.00 258.75 142.55 265.96 145.01 272.88 C 146.22 276.29 147.37 279.72 148.44 283.18 C 149.29 281.21 150.15 279.25 151.09 277.33 C 151.42 276.44 151.68 275.53 151.88 274.60 C 155.83 266.30 159.58 257.90 164.13 249.90 C 157.44 250.63 150.74 251.37 144.03 251.92 M 99.68 281.62 C 95.00 290.60 87.04 297.09 80.73 304.83 C 76.94 309.62 71.79 313.08 68.04 317.91 C 83.07 317.57 97.03 311.30 110.61 305.50 C 112.92 304.32 115.28 303.12 117.92 302.96 C 118.00 309.24 116.47 315.45 114.42 321.35 C 111.51 329.65 105.09 335.90 99.50 342.43 C 94.67 348.56 88.33 353.24 82.96 358.86 C 94.38 356.35 105.77 353.50 117.46 352.51 C 119.48 350.79 121.67 349.28 123.94 347.90 C 129.74 344.20 134.12 338.78 139.49 334.54 C 143.35 331.12 147.72 328.37 151.67 325.07 C 147.14 317.11 141.74 309.68 137.45 301.58 C 132.80 293.33 129.61 284.37 125.14 276.03 C 121.37 268.78 117.31 261.64 114.45 253.95 C 110.14 263.48 105.30 272.79 99.68 281.62 M 361.41 290.36 C 357.16 297.62 352.58 304.70 347.58 311.48 C 343.54 315.97 339.27 320.26 335.17 324.71 C 337.98 326.34 340.94 327.76 344.06 328.74 C 350.33 330.67 355.69 334.58 361.39 337.69 C 365.47 339.81 367.82 344.11 371.98 346.14 C 377.00 348.78 381.37 352.43 386.21 355.38 C 383.01 346.58 378.38 338.24 376.47 329.01 C 376.14 326.58 375.91 322.57 378.93 321.81 C 383.27 323.07 386.50 326.55 390.48 328.59 C 398.80 332.86 406.81 338.44 416.39 339.40 C 412.93 333.41 407.94 328.52 404.43 322.57 C 395.51 307.33 386.54 291.52 383.84 273.80 C 376.19 282.53 369.44 292.01 361.78 300.74 C 360.93 301.60 359.90 302.16 358.70 302.42 C 359.45 299.01 361.57 296.19 363.19 293.16 C 366.68 286.97 367.59 279.78 368.81 272.89 C 366.03 278.58 364.63 284.85 361.41 290.36 M 161.37 312.42 C 161.02 313.94 161.83 316.04 163.22 316.84 C 164.99 315.92 162.97 312.48 161.37 312.42 M 164.34 319.88 C 165.76 324.57 168.20 328.89 169.54 333.62 C 172.11 331.93 174.86 330.52 177.78 329.53 C 173.57 326.32 169.88 322.52 166.45 318.51 C 165.73 318.95 165.02 319.38 164.34 319.88 M 301.20 348.23 C 298.42 349.21 295.74 350.45 293.20 351.95 C 293.89 358.34 293.74 364.79 294.65 371.16 C 295.98 379.93 301.37 387.34 307.04 393.87 C 299.03 402.19 295.50 413.52 288.72 422.70 C 283.98 430.66 278.45 438.20 274.73 446.72 C 268.73 457.98 259.61 467.66 256.15 480.21 C 256.59 479.47 257.00 478.72 257.37 477.95 C 261.88 466.48 271.93 458.65 278.78 448.72 C 284.52 441.26 291.22 434.64 297.79 427.93 L 297.88 427.65 C 309.35 418.15 321.78 409.75 335.27 403.37 C 343.22 400.64 350.87 397.11 358.96 394.76 C 369.52 391.61 379.53 386.68 390.39 384.57 C 386.29 378.48 380.45 373.74 374.47 369.58 C 365.11 363.61 355.43 358.08 346.54 351.41 C 343.79 349.43 340.65 348.15 337.57 346.81 C 334.05 344.87 330.58 342.84 327.02 340.98 C 324.80 339.76 322.14 338.90 321.04 336.40 C 314.42 340.33 308.57 345.67 301.20 348.23 M 211.64 351.00 C 212.83 357.26 213.90 363.65 213.00 370.03 C 212.43 376.20 209.50 382.02 205.26 386.48 C 203.91 387.67 201.70 388.09 201.07 389.93 C 202.35 392.60 204.19 394.94 205.62 397.52 C 211.09 406.40 216.45 415.36 221.72 424.37 C 223.70 428.26 225.47 432.26 227.83 435.95 C 232.37 443.04 235.73 450.79 240.00 458.04 C 242.83 464.30 245.49 470.63 248.38 476.86 C 249.69 479.54 250.86 482.28 251.82 485.11 C 253.79 478.69 256.86 472.70 259.66 466.62 C 263.64 459.12 269.37 452.71 273.09 445.05 C 278.74 433.78 285.76 423.29 292.82 412.88 C 295.94 406.25 300.41 400.47 305.27 395.04 C 301.33 391.34 298.35 386.81 295.90 382.02 C 291.75 372.75 291.56 362.38 292.41 352.43 C 286.26 355.03 279.79 356.77 273.74 359.59 C 262.96 364.64 250.62 363.85 239.13 362.38 C 229.06 361.18 220.44 355.56 211.64 351.00 Z" />
<path fill="#2c2c2c" opacity="1.00" d=" M 367.93 401.16 C 378.33 398.88 388.15 394.38 398.74 392.94 C 398.96 393.43 399.39 394.41 399.61 394.90 C 394.04 396.04 388.48 397.30 383.11 399.21 C 377.73 401.11 372.01 401.76 366.61 403.59 C 361.91 405.15 357.19 406.69 352.65 408.68 C 339.15 415.09 325.24 421.14 313.47 430.53 C 306.95 436.30 299.26 440.90 294.18 448.13 C 289.81 454.46 282.53 457.89 277.96 464.04 C 274.85 468.34 272.23 472.97 269.69 477.63 C 266.75 483.31 262.60 488.22 259.35 493.71 C 259.08 493.63 258.55 493.47 258.28 493.39 C 260.73 488.88 263.13 484.33 265.95 480.02 C 269.56 473.44 273.04 466.73 277.79 460.87 C 280.82 457.16 285.01 454.70 288.38 451.35 C 292.69 447.28 295.64 441.93 300.42 438.33 C 307.93 432.54 314.77 425.77 323.14 421.18 C 329.70 417.69 336.01 413.70 342.89 410.83 C 350.90 406.82 359.13 403.10 367.93 401.16 Z" />
<path fill="#2c2c2c" opacity="1.00" d=" M 456.70 425.48 C 457.48 425.65 458.28 425.81 459.08 425.97 C 452.52 433.43 444.43 439.26 437.40 446.23 C 440.93 451.11 445.62 455.01 449.07 459.95 C 453.70 466.11 456.40 473.40 459.48 480.41 C 462.18 486.62 462.50 493.43 463.70 500.00 L 462.32 500.00 C 460.76 495.60 460.79 490.87 459.51 486.40 C 456.58 476.45 452.31 466.59 445.04 459.02 C 449.25 466.87 452.62 475.23 454.18 484.04 C 455.39 488.92 455.60 494.05 457.30 498.80 L 459.13 500.00 L 395.76 500.00 C 399.48 490.65 403.44 480.99 410.57 473.65 C 416.26 467.30 420.44 459.63 427.00 454.07 C 431.55 449.97 435.72 445.47 440.04 441.14 C 444.01 437.66 448.02 434.23 451.95 430.71 C 453.77 429.19 455.34 427.41 456.70 425.48 Z" />
</g>
<g id="#d36ac2ff">
<path fill="#d36ac2" opacity="1.00" d=" M 183.97 9.94 C 200.10 1.77 218.93 1.96 236.49 3.24 C 241.63 5.48 247.25 6.03 252.66 7.31 C 266.09 10.09 279.14 14.37 292.05 18.95 C 305.53 23.88 318.03 31.08 329.97 38.98 C 335.80 43.16 342.00 46.87 347.28 51.78 C 353.90 57.87 361.62 62.69 367.74 69.33 C 373.53 75.21 380.81 79.52 385.94 86.08 C 391.81 93.26 398.83 99.66 403.15 107.98 C 406.34 113.61 410.62 118.49 414.20 123.85 C 419.56 131.75 423.18 140.74 429.11 148.26 C 434.18 155.87 436.55 164.84 440.50 173.01 C 433.79 167.20 427.12 161.29 421.36 154.51 C 412.73 144.93 405.32 134.06 394.84 126.32 C 392.43 124.52 389.62 123.32 386.72 122.56 L 386.09 122.38 C 382.87 118.65 378.97 115.65 374.98 112.80 L 373.26 113.05 C 368.36 109.50 363.06 106.55 357.67 103.83 C 365.08 116.63 375.34 127.70 381.88 141.05 C 384.77 148.68 388.25 156.08 391.26 163.67 C 394.02 170.47 395.46 177.71 396.35 184.97 C 398.14 201.80 399.44 219.17 394.52 235.63 C 391.97 243.45 389.57 251.32 387.16 259.19 C 386.62 260.95 386.50 262.80 386.49 264.63 L 386.49 264.78 C 383.98 268.85 381.69 273.12 378.37 276.61 C 378.47 267.70 381.42 259.00 381.29 250.02 C 380.86 238.00 380.49 225.94 378.60 214.04 C 377.64 205.96 374.07 198.54 370.67 191.25 C 368.31 186.68 366.24 181.91 363.04 177.84 C 361.30 174.97 360.08 171.79 359.00 168.62 C 357.37 160.34 353.38 152.84 349.86 145.27 C 345.90 134.70 338.30 125.87 329.78 118.67 C 332.55 128.17 339.30 135.72 343.44 144.58 C 348.34 152.96 351.12 162.30 354.60 171.30 C 359.61 186.44 362.73 202.19 364.51 218.02 C 365.66 213.63 366.34 209.13 366.62 204.60 C 368.68 215.24 368.18 226.12 367.70 236.87 C 366.74 243.83 365.82 250.87 363.47 257.53 C 363.01 254.38 362.97 251.19 362.89 248.01 C 362.84 243.15 360.96 238.60 359.92 233.92 C 358.13 225.88 356.36 217.82 354.13 209.89 C 349.35 195.62 341.75 182.45 332.69 170.48 C 328.46 163.80 323.50 157.62 318.04 151.89 C 314.16 148.01 311.12 143.31 306.68 139.99 C 302.66 135.99 300.17 130.46 295.49 127.19 C 297.06 131.89 300.89 135.27 303.35 139.47 C 306.88 145.27 311.21 150.68 313.70 157.05 L 313.76 157.63 C 313.96 162.73 316.47 167.28 317.89 172.09 C 319.29 176.63 320.57 181.21 322.29 185.65 C 325.96 194.93 327.18 204.96 330.82 214.26 C 331.92 220.19 332.89 226.25 332.79 232.30 C 330.54 226.86 328.83 221.20 326.07 215.96 C 322.80 208.04 317.88 200.95 314.18 193.25 C 311.43 180.86 305.33 169.60 299.67 158.35 C 294.49 149.09 289.62 139.53 282.65 131.45 C 278.44 126.57 275.55 120.64 270.77 116.23 C 266.11 111.88 261.35 107.62 256.55 103.42 C 252.51 99.88 247.36 98.03 243.06 94.88 C 235.42 88.99 226.38 85.43 217.75 81.31 C 206.81 77.63 197.18 70.93 188.50 63.46 C 182.42 58.31 179.02 50.94 174.62 44.47 C 171.60 40.18 168.67 35.81 165.14 31.93 C 169.06 22.97 175.54 14.98 183.97 9.94 M 285.91 117.86 C 287.21 122.02 289.39 125.82 291.49 129.62 C 299.81 144.96 308.76 160.00 315.76 176.02 C 316.09 171.78 313.97 167.95 312.99 163.94 C 311.32 157.26 307.27 151.59 304.49 145.37 C 301.80 139.68 297.99 134.64 294.75 129.27 C 292.31 125.10 289.34 121.26 285.91 117.86 Z" />
<path fill="#d36ac2" opacity="1.00" d=" M 155.21 51.24 C 157.36 49.97 160.02 49.77 161.97 48.11 C 163.13 54.65 165.29 60.95 166.87 67.36 C 167.00 69.65 167.31 71.96 168.14 74.12 C 172.16 85.67 179.59 96.01 189.29 103.48 C 190.66 109.73 189.81 116.31 188.66 122.56 L 188.55 122.01 C 187.41 116.67 186.86 111.22 185.43 105.95 C 184.60 114.65 183.72 123.38 181.84 131.94 C 179.62 141.73 174.55 150.55 171.94 160.21 C 174.12 158.38 176.34 156.60 178.50 154.75 C 175.42 162.30 170.77 169.13 165.96 175.67 C 165.12 167.47 166.15 159.20 165.11 151.02 C 164.57 145.68 163.22 140.48 161.66 135.36 C 159.77 129.16 158.82 122.71 156.65 116.60 C 156.27 116.48 155.50 116.24 155.12 116.11 L 153.91 115.75 C 152.69 123.12 152.87 130.65 154.26 137.98 C 155.40 145.16 150.03 150.72 146.16 156.07 C 139.92 165.01 135.33 175.09 132.47 185.61 C 129.58 195.17 126.47 204.93 126.90 215.05 C 127.39 227.81 128.34 240.68 131.96 252.99 C 134.87 266.10 139.83 278.63 144.98 290.99 C 148.96 298.28 151.17 306.37 155.48 313.49 C 157.83 318.41 160.92 322.95 163.11 327.95 C 165.24 334.01 167.87 339.88 169.68 346.05 C 163.03 336.11 154.68 327.33 149.25 316.62 C 143.65 308.36 138.82 299.62 134.31 290.74 C 131.34 282.72 127.23 275.22 123.30 267.65 C 120.56 261.97 116.92 256.66 115.48 250.43 C 107.88 228.33 104.95 205.03 102.53 181.89 C 100.07 163.36 98.85 144.41 102.18 125.91 C 104.91 110.76 110.31 95.89 119.25 83.27 C 126.19 75.32 132.49 66.46 141.46 60.62 C 145.75 57.09 150.40 54.03 155.21 51.24 Z" />
<path fill="#d36ac2" opacity="1.00" d=" M 244.43 116.17 C 246.55 117.01 248.69 117.79 250.81 118.62 C 256.33 122.98 260.44 128.75 265.01 134.02 C 269.25 139.04 271.91 145.07 275.17 150.71 C 281.26 163.41 286.67 176.77 287.81 190.96 C 283.16 184.01 278.80 176.77 275.25 169.19 C 272.27 159.23 266.73 150.37 261.75 141.34 C 256.89 132.36 250.53 124.32 244.43 116.17 Z" />
<path fill="#d36ac2" opacity="1.00" d=" M 340.32 345.64 C 344.49 342.11 349.13 339.18 353.25 335.58 C 357.87 338.34 362.70 340.79 366.97 344.10 C 371.41 347.54 376.41 350.20 380.67 353.89 C 378.38 353.19 376.06 352.60 373.75 351.98 C 379.11 357.69 384.61 363.42 391.20 367.75 C 399.00 373.20 406.39 379.20 414.02 384.89 C 412.97 382.80 411.98 380.70 410.88 378.65 C 415.02 382.34 419.42 385.95 421.91 391.05 C 414.52 391.34 407.11 391.56 399.81 392.79 L 398.74 392.94 C 388.15 394.38 378.33 398.88 367.93 401.16 C 359.13 403.10 350.90 406.82 342.89 410.83 C 336.01 413.70 329.70 417.69 323.14 421.18 C 314.77 425.77 307.93 432.54 300.42 438.33 C 295.64 441.93 292.69 447.28 288.38 451.35 C 285.01 454.70 280.82 457.16 277.79 460.87 C 273.04 466.73 269.56 473.44 265.95 480.02 C 263.13 484.33 260.73 488.88 258.28 493.39 C 257.55 493.17 256.09 492.74 255.36 492.53 C 255.24 491.76 255.00 490.23 254.88 489.47 C 256.40 484.68 258.13 479.93 260.52 475.50 C 264.21 469.34 269.05 463.97 273.65 458.49 C 279.88 451.10 285.56 443.22 292.47 436.43 C 301.92 425.90 313.65 417.64 325.96 410.80 C 341.17 401.46 358.89 397.84 375.35 391.40 C 380.55 389.21 386.09 388.07 391.41 386.26 C 393.71 384.68 391.67 382.08 390.37 380.61 C 385.15 375.10 379.56 369.74 372.81 366.14 C 367.00 362.67 361.56 358.62 355.74 355.17 C 350.75 351.75 345.80 348.25 340.32 345.64 Z" />
<path fill="#d36ac2" opacity="1.00" d=" M 99.05 375.11 C 104.92 369.94 110.22 364.19 115.62 358.55 C 120.40 358.76 125.23 359.30 129.59 361.39 C 125.65 365.38 120.40 367.60 116.13 371.17 C 112.22 374.25 108.34 377.36 104.65 380.71 C 101.87 383.31 97.52 384.30 95.82 387.96 C 100.42 390.66 106.06 388.47 111.09 389.37 C 121.95 390.90 132.60 393.72 143.06 396.98 C 155.71 401.50 167.07 408.80 179.02 414.82 C 186.06 418.53 192.29 423.53 198.63 428.28 C 202.86 431.38 206.44 435.30 210.83 438.19 C 218.65 443.67 224.00 451.73 230.01 458.97 C 237.50 468.77 240.94 480.79 247.45 491.14 L 247.05 492.28 C 246.85 492.84 246.44 493.97 246.24 494.53 C 244.04 492.01 241.91 489.40 240.49 486.34 C 236.21 478.03 230.65 470.50 225.22 462.93 C 220.58 455.41 213.75 449.66 207.67 443.37 C 201.45 436.50 193.58 431.46 186.49 425.58 C 181.68 421.51 176.07 418.58 171.06 414.79 C 169.12 413.39 167.15 412.03 165.01 410.96 C 154.56 405.94 143.58 402.14 132.63 398.36 C 127.61 396.67 122.33 396.01 117.16 394.90 C 105.16 392.33 92.71 392.28 80.57 393.83 C 85.82 386.75 92.49 380.93 99.05 375.11 Z" />
<path fill="#d36ac2" opacity="1.00" d=" M 385.55 404.60 C 391.86 401.64 398.99 401.26 405.38 398.51 C 410.18 400.94 415.29 402.77 419.75 405.84 C 415.67 405.28 411.85 403.64 407.79 403.00 C 411.22 406.02 415.14 408.41 418.69 411.29 C 422.39 414.23 425.83 417.55 430.01 419.82 C 432.87 421.37 435.78 422.84 438.61 424.46 C 434.75 427.65 430.85 430.79 427.05 434.05 C 418.13 440.65 410.55 448.86 403.30 457.21 C 399.80 461.82 396.67 466.70 393.51 471.55 C 387.67 480.16 384.39 490.15 381.33 500.00 L 278.95 500.00 C 283.67 492.51 289.60 485.89 294.64 478.62 C 297.47 474.51 300.96 470.92 304.12 467.07 C 308.24 462.19 312.12 457.11 316.67 452.62 C 320.42 448.72 324.79 445.47 328.39 441.41 C 334.55 434.49 342.12 429.07 349.26 423.24 C 352.10 420.88 355.40 419.21 358.68 417.55 C 367.49 412.95 376.48 408.69 385.55 404.60 M 362.74 424.72 C 357.89 433.52 350.68 441.18 348.35 451.20 C 352.44 452.87 356.50 454.68 360.79 455.79 C 359.74 467.03 354.17 477.10 351.91 488.05 C 358.29 484.78 361.00 477.72 365.35 472.43 C 368.96 465.77 373.19 459.48 377.02 452.96 C 378.68 450.88 377.19 447.87 374.87 447.10 C 371.68 445.78 368.36 444.81 365.12 443.67 C 366.29 434.14 370.84 425.31 371.19 415.66 C 366.83 416.75 365.02 421.33 362.74 424.72 Z" />
<path fill="#d36ac2" opacity="1.00" d=" M 67.93 418.09 C 73.57 416.54 79.23 415.06 84.90 413.63 C 99.70 414.23 112.52 422.39 126.36 426.67 C 137.42 430.92 148.65 434.97 158.82 441.13 C 167.61 446.28 175.90 452.21 184.69 457.34 C 200.80 468.98 215.73 482.83 226.01 500.00 L 125.70 500.00 C 116.65 490.13 108.11 479.79 99.68 469.39 C 88.80 452.49 76.92 436.14 67.93 418.09 Z" />
<path fill="#d36ac2" opacity="1.00" d=" M 54.14 423.75 C 56.80 422.45 59.49 421.21 62.21 420.05 C 63.57 427.37 66.94 434.06 70.15 440.71 C 72.13 444.74 73.99 448.85 76.28 452.72 C 82.10 462.14 87.01 472.24 94.52 480.50 C 99.56 487.12 105.47 493.04 110.06 500.00 L 104.01 500.00 C 98.17 492.16 92.30 484.33 86.32 476.60 C 81.89 470.97 77.05 465.56 73.84 459.09 C 66.50 447.76 59.78 436.01 54.14 423.75 Z" />
<path fill="#d36ac2" opacity="1.00" d=" M 425.33 445.29 C 432.22 439.49 438.87 433.34 446.35 428.31 C 448.20 429.13 450.07 429.92 451.95 430.71 C 448.02 434.23 444.01 437.66 440.04 441.14 C 435.72 445.47 431.55 449.97 427.00 454.07 C 420.44 459.63 416.26 467.30 410.57 473.65 C 403.44 480.99 399.48 490.65 395.76 500.00 L 388.02 500.00 C 393.75 483.89 401.79 468.24 414.08 456.14 C 417.92 452.61 421.23 448.55 425.33 445.29 Z" />
</g>
<g id="#dd8dcfff">
<path fill="#dd8dcf" opacity="1.00" d=" M 236.49 3.24 C 248.79 3.93 260.75 7.15 272.92 8.85 C 285.89 11.91 298.30 16.99 310.36 22.59 C 315.35 25.50 320.96 27.14 325.88 30.20 C 338.12 37.77 350.30 45.52 361.48 54.62 C 370.10 61.95 378.89 69.19 386.02 78.05 C 396.35 87.28 404.80 98.46 411.26 110.68 C 413.66 115.26 416.51 119.62 418.50 124.40 C 421.54 132.58 426.16 140.05 429.11 148.26 C 423.18 140.74 419.56 131.75 414.20 123.85 C 410.62 118.49 406.34 113.61 403.15 107.98 C 398.83 99.66 391.81 93.26 385.94 86.08 C 380.81 79.52 373.53 75.21 367.74 69.33 C 361.62 62.69 353.90 57.87 347.28 51.78 C 342.00 46.87 335.80 43.16 329.97 38.98 C 318.03 31.08 305.53 23.88 292.05 18.95 C 279.14 14.37 266.09 10.09 252.66 7.31 C 247.25 6.03 241.63 5.48 236.49 3.24 Z" />
<path fill="#dd8dcf" opacity="1.00" d=" M 357.67 103.83 C 363.06 106.55 368.36 109.50 373.26 113.05 C 376.49 116.05 380.78 118.22 382.44 122.57 C 385.29 129.14 390.28 134.49 392.87 141.18 C 395.37 147.19 398.66 152.87 400.83 159.02 C 402.83 165.98 405.69 172.71 406.87 179.89 C 411.43 200.89 409.15 223.44 399.84 242.86 C 395.88 250.40 391.49 257.72 386.49 264.63 C 386.50 262.80 386.62 260.95 387.16 259.19 C 389.57 251.32 391.97 243.45 394.52 235.63 C 399.44 219.17 398.14 201.80 396.35 184.97 C 395.46 177.71 394.02 170.47 391.26 163.67 C 388.25 156.08 384.77 148.68 381.88 141.05 C 375.34 127.70 365.08 116.63 357.67 103.83 Z" />
<path fill="#dd8dcf" opacity="1.00" d=" M 185.43 105.95 C 186.86 111.22 187.41 116.67 188.55 122.01 C 188.28 128.86 186.57 135.60 184.19 142.02 C 182.57 146.36 181.12 150.88 178.50 154.75 C 176.34 156.60 174.12 158.38 171.94 160.21 C 174.55 150.55 179.62 141.73 181.84 131.94 C 183.72 123.38 184.60 114.65 185.43 105.95 Z" />
<path fill="#dd8dcf" opacity="1.00" d=" M 285.91 117.86 C 289.34 121.26 292.31 125.10 294.75 129.27 C 297.99 134.64 301.80 139.68 304.49 145.37 C 307.27 151.59 311.32 157.26 312.99 163.94 C 313.97 167.95 316.09 171.78 315.76 176.02 C 308.76 160.00 299.81 144.96 291.49 129.62 C 289.39 125.82 287.21 122.02 285.91 117.86 Z" />
<path fill="#dd8dcf" opacity="1.00" d=" M 329.78 118.67 C 338.30 125.87 345.90 134.70 349.86 145.27 C 353.38 152.84 357.37 160.34 359.00 168.62 C 358.79 169.06 358.37 169.94 358.16 170.38 C 361.38 181.66 366.22 192.73 366.62 204.60 C 366.34 209.13 365.66 213.63 364.51 218.02 C 362.73 202.19 359.61 186.44 354.60 171.30 C 351.12 162.30 348.34 152.96 343.44 144.58 C 339.30 135.72 332.55 128.17 329.78 118.67 Z" />
<path fill="#dd8dcf" opacity="1.00" d=" M 373.75 351.98 C 376.06 352.60 378.38 353.19 380.67 353.89 C 385.22 357.52 389.76 361.18 394.49 364.61 C 400.61 368.46 405.47 373.90 410.88 378.65 C 411.98 380.70 412.97 382.80 414.02 384.89 C 406.39 379.20 399.00 373.20 391.20 367.75 C 384.61 363.42 379.11 357.69 373.75 351.98 Z" />
<path fill="#dd8dcf" opacity="1.00" d=" M 407.79 403.00 C 411.85 403.64 415.67 405.28 419.75 405.84 C 423.62 407.86 427.65 409.54 431.66 411.26 C 436.81 413.44 441.35 416.77 446.31 419.34 C 443.63 420.87 441.00 422.51 438.61 424.46 C 435.78 422.84 432.87 421.37 430.01 419.82 C 425.83 417.55 422.39 414.23 418.69 411.29 C 415.14 408.41 411.22 406.02 407.79 403.00 Z" />
<path fill="#dd8dcf" opacity="1.00" d=" M 452.37 422.66 C 453.80 423.62 455.22 424.57 456.70 425.48 C 455.34 427.41 453.77 429.19 451.95 430.71 C 450.07 429.92 448.20 429.13 446.35 428.31 C 448.59 426.69 450.51 424.69 452.37 422.66 Z" />
</g>
<g id="#ba9732ff">
<path fill="#ba9732" opacity="1.00" d=" M 191.57 110.29 C 190.65 105.29 190.01 100.24 189.70 95.17 C 190.17 95.72 191.12 96.83 191.59 97.38 C 199.40 102.65 207.18 108.02 215.47 112.55 C 218.93 114.80 222.77 116.52 225.93 119.21 C 226.88 119.81 226.74 121.20 225.91 121.83 C 224.39 123.65 222.64 125.24 221.10 127.03 C 213.85 122.89 206.84 118.34 199.31 114.73 C 196.29 113.35 194.19 110.72 192.16 108.20 C 191.95 108.89 191.75 109.59 191.57 110.29 Z" />
<path fill="#ba9732" opacity="1.00" d=" M 278.98 152.90 C 291.19 165.36 301.80 179.29 311.86 193.51 C 310.01 193.94 308.16 194.40 306.33 194.87 C 302.86 189.36 298.64 184.38 295.24 178.83 C 293.07 175.28 290.46 171.87 286.88 169.65 C 286.54 169.60 285.84 169.51 285.49 169.47 L 285.18 169.43 C 283.69 163.71 281.12 158.39 278.98 152.90 Z" />
<path fill="#ba9732" opacity="1.00" d=" M 268.67 174.61 C 269.74 172.76 270.93 170.97 272.58 169.59 C 277.05 177.22 281.16 185.05 285.92 192.51 C 284.49 194.57 283.07 196.64 281.62 198.70 C 276.96 190.85 274.30 181.92 268.67 174.61 Z" />
<path fill="#ba9732" opacity="1.00" d=" M 322.17 169.87 C 327.59 176.83 330.72 185.21 335.14 192.79 C 333.20 192.36 331.26 191.95 329.32 191.56 C 327.05 184.29 325.22 176.87 322.17 169.87 Z" />
<path fill="#ba9732" opacity="1.00" d=" M 139.70 190.07 C 140.51 190.07 142.14 190.05 142.95 190.04 C 140.57 196.78 140.58 204.03 139.73 211.05 C 138.89 218.38 139.52 225.75 139.33 233.10 C 138.45 234.89 137.27 236.51 136.16 238.17 C 135.27 232.10 134.24 225.90 135.69 219.82 C 136.49 209.85 136.36 199.66 139.70 190.07 Z" />
<path fill="#ba9732" opacity="1.00" d=" M 335.88 241.38 C 340.21 240.08 344.42 238.38 348.33 236.09 C 349.63 250.67 350.57 265.30 350.16 279.94 C 350.02 283.35 349.65 286.77 349.95 290.19 C 352.75 288.08 354.14 284.76 355.82 281.79 C 362.25 270.06 366.35 257.17 368.70 244.03 C 369.97 247.89 369.78 252.01 369.92 256.02 C 369.92 259.83 370.24 263.85 368.42 267.35 C 364.67 278.02 360.53 288.75 353.94 298.05 C 350.37 303.10 347.72 308.92 343.02 313.08 C 335.51 320.33 329.32 329.25 319.72 333.98 C 328.70 322.59 336.78 309.68 338.84 295.05 C 341.80 277.74 339.37 260.13 336.07 243.07 C 336.02 242.65 335.93 241.80 335.88 241.38 Z" />
<path fill="#ba9732" opacity="1.00" d=" M 138.36 251.90 C 140.25 251.90 142.14 251.91 144.03 251.92 C 146.35 259.58 148.95 267.15 151.88 274.60 C 151.68 275.53 151.42 276.44 151.09 277.33 C 150.27 275.97 149.45 274.61 148.64 273.25 C 147.43 273.12 146.22 273.00 145.01 272.88 C 142.55 265.96 141.00 258.75 138.36 251.90 Z" />
<path fill="#ba9732" opacity="1.00" d=" M 177.32 316.17 L 177.37 316.22 C 183.04 321.38 188.33 327.05 194.80 331.25 C 202.74 336.57 209.77 343.17 217.99 348.09 C 222.44 350.71 226.41 354.02 230.29 357.41 C 225.88 356.39 222.07 353.86 218.10 351.80 C 213.50 349.04 208.33 347.36 203.97 344.18 C 192.94 337.61 182.10 330.66 171.98 322.73 C 173.75 320.54 175.53 318.35 177.32 316.17 Z" />
<path fill="#ba9732" opacity="1.00" d=" M 211.64 351.00 C 220.44 355.56 229.06 361.18 239.13 362.38 C 250.62 363.85 262.96 364.64 273.74 359.59 C 279.79 356.77 286.26 355.03 292.41 352.43 C 291.56 362.38 291.75 372.75 295.90 382.02 C 298.35 386.81 301.33 391.34 305.27 395.04 C 300.41 400.47 295.94 406.25 292.82 412.88 C 285.76 423.29 278.74 433.78 273.09 445.05 C 269.37 452.71 263.64 459.12 259.66 466.62 C 256.86 472.70 253.79 478.69 251.82 485.11 C 250.86 482.28 249.69 479.54 248.38 476.86 C 252.49 470.60 252.73 462.79 256.25 456.25 C 260.36 448.66 263.58 440.60 268.21 433.28 C 271.90 426.63 275.20 419.75 279.20 413.26 C 281.01 410.02 283.45 406.82 283.67 402.99 C 283.51 393.47 281.73 384.09 279.51 374.86 C 273.05 376.81 266.88 380.19 259.99 380.26 C 250.07 380.32 240.54 377.12 231.42 373.56 C 227.73 372.11 224.49 369.76 221.48 367.23 C 219.43 378.63 214.19 389.59 205.62 397.52 C 204.19 394.94 202.35 392.60 201.07 389.93 C 201.70 388.09 203.91 387.67 205.26 386.48 C 209.50 382.02 212.43 376.20 213.00 370.03 C 213.90 363.65 212.83 357.26 211.64 351.00 Z" />
</g>
<g id="#ffca2cff">
<path fill="#ffca2c" opacity="1.00" d=" M 191.57 110.29 C 191.75 109.59 191.95 108.89 192.16 108.20 C 194.19 110.72 196.29 113.35 199.31 114.73 C 206.84 118.34 213.85 122.89 221.10 127.03 C 215.80 134.61 209.05 141.04 203.45 148.39 C 197.16 154.86 191.87 162.20 186.10 169.12 C 180.26 175.10 176.09 182.42 170.76 188.81 C 166.99 193.54 164.37 199.04 160.72 203.81 C 155.79 208.29 151.87 213.85 149.77 220.20 L 149.00 219.86 L 149.93 220.30 C 146.38 224.56 142.65 228.66 139.33 233.10 C 139.52 225.75 138.89 218.38 139.73 211.05 C 140.58 204.03 140.57 196.78 142.95 190.04 C 146.37 183.38 149.43 176.54 152.58 169.75 C 153.62 176.87 152.90 184.06 153.31 191.22 C 154.70 190.34 156.10 189.42 157.15 188.12 C 157.29 187.90 157.57 187.46 157.71 187.24 C 159.78 187.39 161.35 186.03 162.44 184.43 C 172.15 171.47 181.36 157.76 186.38 142.23 C 189.29 131.82 191.61 121.15 191.57 110.29 Z" />
<path fill="#ffca2c" opacity="1.00" d=" M 285.49 169.47 C 285.84 169.51 286.54 169.60 286.88 169.65 C 290.46 171.87 293.07 175.28 295.24 178.83 C 298.64 184.38 302.86 189.36 306.33 194.87 C 301.89 196.99 296.87 198.76 293.91 202.95 C 286.96 210.57 282.07 219.82 278.05 229.26 L 278.28 231.07 C 278.35 232.58 278.33 234.32 279.80 235.22 C 284.82 239.31 291.06 241.54 297.11 243.66 C 308.91 247.63 321.85 245.98 333.38 241.87 C 334.05 242.17 335.40 242.77 336.07 243.07 C 339.37 260.13 341.80 277.74 338.84 295.05 C 336.78 309.68 328.70 322.59 319.72 333.98 C 309.57 342.56 297.25 348.02 284.93 352.77 C 275.06 355.90 265.64 361.29 255.00 361.12 C 246.72 360.90 237.92 360.98 230.29 357.41 C 226.41 354.02 222.44 350.71 217.99 348.09 C 209.77 343.17 202.74 336.57 194.80 331.25 C 188.33 327.05 183.04 321.38 177.37 316.22 C 178.82 314.08 180.61 312.21 182.60 310.57 C 186.20 307.55 188.86 303.62 191.86 300.04 C 195.98 294.77 200.99 290.27 205.02 284.93 C 210.83 276.57 218.86 270.09 224.98 261.98 C 231.13 255.46 237.35 248.98 243.29 242.27 C 252.75 233.40 261.06 223.44 270.72 214.78 C 273.49 212.08 277.66 209.50 276.98 205.02 C 265.16 204.98 254.63 211.24 243.12 213.08 C 248.91 205.10 253.92 196.61 259.28 188.35 C 262.64 183.93 265.73 179.32 268.67 174.61 C 274.30 181.92 276.96 190.85 281.62 198.70 C 283.07 196.64 284.49 194.57 285.92 192.51 C 286.93 193.50 288.25 195.89 289.50 193.72 C 290.18 192.24 289.89 190.53 289.84 188.96 C 289.14 182.32 287.53 175.81 285.49 169.47 M 248.57 261.76 C 252.11 262.00 255.66 262.28 259.18 262.79 C 256.54 259.77 251.41 258.05 248.57 261.76 M 254.70 282.07 C 260.45 282.96 264.56 277.26 263.86 271.95 C 260.15 274.59 257.13 278.24 254.70 282.07 M 268.74 273.95 C 268.14 276.33 267.62 278.98 265.53 280.56 C 259.35 285.52 249.41 287.75 242.93 282.14 C 240.63 280.42 239.38 276.61 236.03 276.91 C 238.83 281.83 243.21 286.47 249.05 287.41 C 255.16 288.39 261.58 286.18 266.34 282.36 C 268.95 280.37 269.71 277.00 268.74 273.95 M 256.68 310.04 C 250.68 312.03 245.06 307.27 239.08 308.87 C 234.91 309.81 230.71 310.67 226.60 311.86 C 222.96 312.11 219.38 312.85 215.79 313.45 L 216.17 313.71 C 217.54 316.89 220.45 318.93 223.13 320.94 C 229.19 325.45 236.56 327.72 243.87 329.22 C 250.26 329.80 257.12 331.40 263.16 328.43 C 269.88 325.46 276.19 321.50 281.91 316.90 C 283.40 315.90 284.62 314.57 285.92 313.34 C 283.51 310.19 279.12 310.55 275.68 309.45 C 269.54 308.26 262.23 306.02 256.68 310.04 Z" />
<path fill="#ffca2c" opacity="1.00" d=" M 144.03 251.92 C 150.74 251.37 157.44 250.63 164.13 249.90 C 159.58 257.90 155.83 266.30 151.88 274.60 C 148.95 267.15 146.35 259.58 144.03 251.92 Z" />
<path fill="#ffca2c" opacity="1.00" d=" M 205.62 397.52 C 214.19 389.59 219.43 378.63 221.48 367.23 C 224.49 369.76 227.73 372.11 231.42 373.56 C 240.54 377.12 250.07 380.32 259.99 380.26 C 266.88 380.19 273.05 376.81 279.51 374.86 C 281.73 384.09 283.51 393.47 283.67 402.99 C 283.45 406.82 281.01 410.02 279.20 413.26 C 275.20 419.75 271.90 426.63 268.21 433.28 C 263.58 440.60 260.36 448.66 256.25 456.25 C 252.73 462.79 252.49 470.60 248.38 476.86 C 245.49 470.63 242.83 464.30 240.00 458.04 C 235.73 450.79 232.37 443.04 227.83 435.95 C 225.47 432.26 223.70 428.26 221.72 424.37 C 216.45 415.36 211.09 406.40 205.62 397.52 Z" />
</g>
<g id="#3a97b1ff">
<path fill="#3a97b1" opacity="1.00" d=" M 227.30 120.12 C 229.49 121.69 231.65 123.33 233.62 125.17 C 231.60 127.49 229.66 129.87 227.69 132.24 C 225.88 130.70 224.09 129.13 222.33 127.54 C 223.75 124.92 225.43 122.44 227.30 120.12 Z" />
<path fill="#3a97b1" opacity="1.00" d=" M 139.82 237.45 C 140.92 240.09 141.81 242.81 142.63 245.55 C 141.18 247.00 139.73 248.46 138.27 249.90 C 137.14 247.40 136.82 244.66 136.48 241.97 C 137.63 240.49 138.74 238.98 139.82 237.45 Z" />
<path fill="#3a97b1" opacity="1.00" d=" M 169.26 307.23 L 169.32 307.32 C 170.89 309.83 172.78 312.19 175.53 313.49 C 173.67 315.44 171.84 317.43 169.96 319.36 C 168.15 316.95 166.18 314.67 164.08 312.51 C 165.77 310.71 167.51 308.97 169.26 307.23 Z" />
<path fill="#3a97b1" opacity="1.00" d=" M 170.94 336.09 C 173.94 334.09 177.36 332.64 180.90 331.95 C 190.60 338.81 200.60 345.37 211.28 350.67 C 211.43 358.92 212.24 367.48 209.48 375.43 C 207.37 380.65 204.44 386.05 199.13 388.57 C 205.37 400.33 211.70 412.03 218.57 423.44 C 225.45 436.19 232.41 448.90 239.28 461.66 C 243.27 469.73 245.26 479.05 251.26 485.96 C 251.42 486.51 251.73 487.63 251.88 488.18 C 252.54 487.71 253.86 486.75 254.52 486.28 C 254.47 487.36 254.38 489.52 254.33 490.59 C 253.33 493.90 249.52 493.75 247.05 492.28 L 247.45 491.14 C 247.04 486.84 244.40 483.23 242.89 479.28 C 239.27 469.86 234.57 460.70 227.84 453.10 C 224.45 448.80 220.93 444.62 217.22 440.60 C 214.89 435.00 210.26 430.87 207.37 425.61 C 202.44 416.46 197.04 407.54 190.74 399.26 C 187.59 394.78 184.87 389.92 180.90 386.08 C 175.60 380.94 169.95 375.98 163.29 372.69 C 153.73 367.29 142.90 364.96 132.60 361.44 C 136.45 357.53 141.20 354.73 145.95 352.06 C 151.87 348.77 156.97 344.27 162.47 340.36 C 168.68 348.22 173.90 356.92 181.07 363.99 C 181.75 364.64 182.50 365.18 183.34 365.61 C 184.98 366.77 185.75 364.31 184.95 363.19 C 181.95 356.70 178.35 350.48 174.69 344.34 C 173.23 341.70 171.57 339.08 170.94 336.09 Z" />
<path fill="#3a97b1" opacity="1.00" d=" M 301.20 348.23 C 308.57 345.67 314.42 340.33 321.04 336.40 C 322.14 338.90 324.80 339.76 327.02 340.98 C 330.58 342.84 334.05 344.87 337.57 346.81 C 335.12 349.66 332.44 352.45 330.97 355.98 C 327.90 363.57 326.07 371.69 321.88 378.80 C 318.50 384.70 315.49 390.81 313.07 397.17 C 309.75 406.25 304.71 414.56 299.76 422.82 C 298.90 424.33 298.40 426.00 297.88 427.65 L 297.79 427.93 C 291.22 434.64 284.52 441.26 278.78 448.72 C 271.93 458.65 261.88 466.48 257.37 477.95 C 257.00 478.72 256.59 479.47 256.15 480.21 C 259.61 467.66 268.73 457.98 274.73 446.72 C 278.45 438.20 283.98 430.66 288.72 422.70 C 295.50 413.52 299.03 402.19 307.04 393.87 C 301.37 387.34 295.98 379.93 294.65 371.16 C 293.74 364.79 293.89 358.34 293.20 351.95 C 295.74 350.45 298.42 349.21 301.20 348.23 Z" />
</g>
<g id="#8a2078ff">
<path fill="#8a2078" opacity="1.00" d=" M 233.71 125.76 C 238.96 128.36 242.60 133.16 246.94 136.96 C 251.63 142.36 256.98 147.26 260.69 153.44 C 264.40 158.42 268.01 163.48 271.66 168.51 C 270.51 170.08 269.35 171.64 268.21 173.22 C 261.59 166.29 256.51 158.07 249.93 151.11 C 247.18 148.13 243.47 146.21 240.92 143.03 C 237.43 138.84 233.02 135.60 228.75 132.28 C 230.49 130.17 232.13 127.99 233.71 125.76 Z" />
<path fill="#8a2078" opacity="1.00" d=" M 149.33 283.94 C 151.10 282.24 152.06 279.98 152.80 277.69 C 157.79 286.68 161.61 296.38 167.74 304.69 C 165.83 306.35 164.09 308.19 162.44 310.11 C 154.85 303.37 153.50 292.71 149.33 283.94 Z" />
</g>
<g id="#46cae4ff">
<path fill="#46cae4" opacity="1.00" d=" M 199.19 156.14 C 207.09 146.77 215.32 137.62 222.33 127.54 C 224.09 129.13 225.88 130.70 227.69 132.24 C 224.12 135.54 221.92 139.96 218.74 143.59 C 214.66 149.15 209.59 153.89 205.69 159.58 C 202.86 163.71 199.39 167.32 196.04 171.02 C 190.47 177.82 186.07 185.65 179.76 191.81 C 175.04 194.25 170.14 196.41 165.95 199.75 C 169.77 192.57 175.39 186.66 179.98 180.01 C 185.89 171.66 193.14 164.39 199.19 156.14 Z" />
<path fill="#46cae4" opacity="1.00" d=" M 262.80 209.83 C 266.82 208.11 271.15 207.21 275.48 206.65 C 272.34 211.09 267.78 214.21 264.07 218.12 C 249.31 233.34 234.11 248.17 220.29 264.27 C 214.75 270.40 208.69 276.13 203.88 282.89 C 198.54 289.50 192.36 295.38 187.29 302.21 C 183.79 306.38 179.83 310.16 175.53 313.49 C 172.78 312.19 170.89 309.83 169.32 307.32 C 173.22 302.57 176.97 297.63 181.62 293.56 C 185.85 289.77 188.98 284.98 192.90 280.90 C 195.88 277.50 199.59 274.87 202.76 271.67 C 210.52 263.80 218.48 256.13 226.01 248.04 C 231.08 242.44 236.81 237.48 241.93 231.93 C 246.07 227.41 251.05 223.78 255.29 219.37 C 258.15 216.48 259.96 212.73 262.80 209.83 Z" />
<path fill="#46cae4" opacity="1.00" d=" M 139.82 237.45 C 141.85 233.81 144.57 230.64 146.96 227.24 C 148.94 229.39 150.87 231.61 153.02 233.62 C 150.55 238.40 146.28 241.74 142.63 245.55 C 141.81 242.81 140.92 240.09 139.82 237.45 Z" />
<path fill="#46cae4" opacity="1.00" d=" M 337.57 346.81 C 340.65 348.15 343.79 349.43 346.54 351.41 C 355.43 358.08 365.11 363.61 374.47 369.58 C 380.45 373.74 386.29 378.48 390.39 384.57 C 379.53 386.68 369.52 391.61 358.96 394.76 C 350.87 397.11 343.22 400.64 335.27 403.37 C 321.78 409.75 309.35 418.15 297.88 427.65 C 298.40 426.00 298.90 424.33 299.76 422.82 C 304.71 414.56 309.75 406.25 313.07 397.17 C 315.49 390.81 318.50 384.70 321.88 378.80 C 326.07 371.69 327.90 363.57 330.97 355.98 C 332.44 352.45 335.12 349.66 337.57 346.81 Z" />
<path fill="#46cae4" opacity="1.00" d=" M 113.96 375.89 C 119.39 370.07 127.10 367.17 132.60 361.44 C 142.90 364.96 153.73 367.29 163.29 372.69 C 169.95 375.98 175.60 380.94 180.90 386.08 C 184.87 389.92 187.59 394.78 190.74 399.26 C 197.04 407.54 202.44 416.46 207.37 425.61 C 210.26 430.87 214.89 435.00 217.22 440.60 C 212.58 436.95 207.71 433.58 203.47 429.44 C 193.71 421.58 183.46 414.17 172.08 408.84 C 164.22 404.11 155.81 400.46 147.62 396.38 C 136.71 392.29 125.33 389.55 113.87 387.51 C 109.00 386.76 104.06 387.11 99.16 387.01 C 104.22 383.47 109.67 380.42 113.96 375.89 Z" />
<path fill="#46cae4" opacity="1.00" d=" M 62.56 419.90 C 64.19 419.39 65.83 418.89 67.46 418.40 C 69.56 423.03 71.18 427.89 73.63 432.36 C 82.15 446.36 90.74 460.34 100.23 473.72 C 107.17 482.65 115.22 490.70 121.68 500.00 L 113.00 500.00 C 104.34 487.79 93.14 477.46 85.67 464.40 C 76.61 450.34 68.99 435.32 62.56 419.90 Z" />
<path fill="#46cae4" opacity="1.00" d=" M 422.03 439.99 C 428.48 435.26 434.45 429.94 440.63 424.86 C 441.93 425.74 443.22 426.62 444.53 427.51 C 439.76 430.31 436.14 434.57 431.61 437.70 C 423.63 443.63 416.94 451.02 409.87 457.95 C 399.21 470.09 391.04 484.51 386.42 500.00 L 382.97 500.00 C 386.34 488.15 391.56 476.79 398.72 466.74 C 404.64 456.36 413.73 448.40 422.03 439.99 Z" />
</g>
<g id="#ba1d92ff">
<path fill="#ba1d92" opacity="1.00" d=" M 224.15 138.22 C 225.40 136.04 227.01 134.09 228.75 132.28 C 233.02 135.60 237.43 138.84 240.92 143.03 C 243.47 146.21 247.18 148.13 249.93 151.11 C 256.51 158.07 261.59 166.29 268.21 173.22 C 261.56 182.61 254.30 191.60 248.54 201.60 C 245.95 206.29 241.31 210.00 240.64 215.58 C 247.66 214.70 254.37 212.27 261.15 210.34 C 258.18 215.16 253.84 218.94 249.62 222.64 C 241.21 228.81 234.80 237.17 227.00 244.03 C 215.79 256.12 204.11 267.78 191.96 278.94 C 187.54 283.86 183.60 289.21 178.68 293.68 C 174.76 297.07 171.55 301.19 167.74 304.69 C 161.61 296.38 157.79 286.68 152.80 277.69 C 155.73 271.60 158.51 265.44 161.43 259.34 C 163.15 255.55 166.35 252.21 166.30 247.82 C 157.93 248.07 149.63 249.45 141.25 249.76 C 146.36 245.45 151.65 241.00 154.31 234.68 C 162.39 239.56 171.42 242.60 180.61 244.58 C 188.51 246.15 196.91 246.17 204.56 243.39 C 210.47 241.15 216.08 238.19 221.86 235.64 C 224.28 234.44 226.72 233.25 229.09 231.95 C 229.28 231.68 229.68 231.16 229.88 230.89 C 228.90 226.20 225.41 222.54 223.79 218.07 C 220.55 210.00 214.50 203.46 207.68 198.22 C 201.16 192.56 192.26 189.81 183.69 190.93 C 187.49 185.67 191.56 180.61 195.28 175.29 C 198.17 170.90 202.38 167.61 205.30 163.24 C 211.24 154.64 218.97 147.36 224.15 138.22 Z" />
</g>
<g id="#b08b1eff">
<path fill="#b08b1e" opacity="1.00" d=" M 151.46 160.37 C 152.96 156.44 154.96 152.73 156.77 148.95 C 159.78 159.99 160.71 172.10 157.33 183.17 C 156.84 184.55 156.96 185.91 157.71 187.24 C 157.57 187.46 157.29 187.90 157.15 188.12 C 156.10 189.42 154.70 190.34 153.31 191.22 C 152.90 184.06 153.62 176.87 152.58 169.75 C 149.43 176.54 146.37 183.38 142.95 190.04 C 142.14 190.05 140.51 190.07 139.70 190.07 C 142.43 179.73 147.73 170.35 151.46 160.37 Z" />
<path fill="#b08b1e" opacity="1.00" d=" M 145.01 272.88 C 146.22 273.00 147.43 273.12 148.64 273.25 C 149.45 274.61 150.27 275.97 151.09 277.33 C 150.15 279.25 149.29 281.21 148.44 283.18 C 147.37 279.72 146.22 276.29 145.01 272.88 Z" />
</g>
<g id="#b0782aff">
<path fill="#b0782a" opacity="1.00" d=" M 169.22 200.26 C 170.76 198.82 172.68 197.90 174.60 197.08 C 170.61 204.34 168.56 213.17 170.58 221.33 C 173.25 230.00 183.67 234.43 191.93 231.06 C 196.66 229.81 199.85 225.98 203.09 222.60 C 205.36 222.15 208.67 221.90 208.84 218.90 C 209.56 216.25 206.87 214.94 205.22 213.54 C 204.99 211.17 205.00 208.79 205.14 206.42 C 207.50 209.74 210.65 212.70 211.57 216.83 C 208.72 226.35 201.44 235.95 190.92 237.13 C 184.13 237.34 176.62 236.37 171.26 231.80 C 166.45 226.92 162.27 220.26 163.66 213.10 C 164.68 208.59 165.23 203.23 169.22 200.26 Z" />
<path fill="#b0782a" opacity="1.00" d=" M 292.56 208.61 C 295.04 205.27 298.68 203.11 302.08 200.82 C 300.08 207.36 299.64 214.51 301.76 221.07 C 304.17 226.13 308.80 230.13 314.08 231.96 C 319.40 233.63 324.67 231.35 329.79 230.06 C 330.42 232.04 331.13 234.01 331.53 236.07 C 326.68 240.27 319.57 240.92 313.53 239.38 C 308.59 237.86 303.77 235.52 299.99 231.95 C 295.17 226.80 293.22 219.83 292.05 213.05 C 291.90 211.57 291.48 209.85 292.56 208.61 Z" />
</g>
<g id="#835e31ff">
<path fill="#835e31" opacity="1.00" d=" M 201.65 196.72 C 205.22 198.95 208.61 201.52 211.74 204.35 C 213.21 208.31 211.91 212.73 211.57 216.83 C 210.65 212.70 207.50 209.74 205.14 206.42 C 203.79 203.26 202.87 199.93 201.65 196.72 Z" />
<path fill="#835e31" opacity="1.00" d=" M 342.47 212.42 C 342.49 212.44 342.53 212.48 342.55 212.50 C 342.53 212.48 342.49 212.44 342.47 212.42 Z" />
<path fill="#835e31" opacity="1.00" d=" M 343.60 213.67 C 344.27 216.34 345.36 218.95 345.54 221.72 C 343.33 226.30 340.02 230.59 335.52 233.12 C 335.27 230.42 334.79 227.73 334.93 225.03 C 336.04 223.35 337.34 221.82 338.52 220.19 L 338.95 220.30 C 342.41 219.93 343.70 216.78 343.60 213.67 Z" />
</g>
<g id="#f8f8f5ff">
<path fill="#f8f8f5" opacity="1.00" d=" M 155.03 215.89 C 158.14 212.06 159.57 206.86 163.92 204.10 C 161.60 210.03 159.83 216.87 162.51 223.00 C 164.69 227.90 168.04 232.44 172.45 235.54 C 178.07 238.71 184.81 239.88 191.21 239.46 C 202.24 238.22 209.96 228.43 213.40 218.58 C 217.29 223.72 219.37 229.78 221.86 235.64 C 216.08 238.19 210.47 241.15 204.56 243.39 C 196.91 246.17 188.51 246.15 180.61 244.58 C 171.42 242.60 162.39 239.56 154.31 234.68 C 153.99 234.42 153.34 233.88 153.02 233.62 C 150.87 231.61 148.94 229.39 146.96 227.24 C 149.85 223.60 152.13 219.53 155.03 215.89 Z" />
<path fill="#f8f8f5" opacity="1.00" d=" M 181.61 204.65 C 186.04 202.76 190.84 207.58 189.18 212.04 C 188.50 216.24 183.00 217.78 180.00 214.93 C 176.36 212.36 176.79 205.54 181.61 204.65 Z" />
<path fill="#f8f8f5" opacity="1.00" d=" M 310.38 206.35 C 313.89 204.02 317.38 208.38 318.56 211.39 C 319.98 214.84 316.45 218.13 313.07 217.47 C 307.68 217.31 306.45 209.23 310.38 206.35 Z" />
<path fill="#f8f8f5" opacity="1.00" d=" M 278.28 231.07 C 282.05 224.68 285.71 218.23 289.69 211.96 C 290.57 218.37 292.64 224.65 295.67 230.36 C 303.71 241.50 320.32 245.37 332.47 239.00 C 332.69 239.98 332.99 240.93 333.38 241.87 C 321.85 245.98 308.91 247.63 297.11 243.66 C 291.06 241.54 284.82 239.31 279.80 235.22 C 278.33 234.32 278.35 232.58 278.28 231.07 Z" />
</g>
<g id="#b5b7bdff">
<path fill="#b5b7bd" opacity="1.00" d=" M 214.96 207.99 C 217.09 210.61 218.94 213.45 220.59 216.40 C 223.59 221.49 225.13 227.43 229.09 231.95 C 226.72 233.25 224.28 234.44 221.86 235.64 C 219.37 229.78 217.29 223.72 213.40 218.58 C 214.10 215.08 214.62 211.54 214.96 207.99 Z" />
<path fill="#b5b7bd" opacity="1.00" d=" M 335.81 236.03 C 340.08 233.00 343.73 229.23 346.58 224.84 C 347.22 228.58 347.85 232.32 348.33 236.09 C 344.42 238.38 340.21 240.08 335.88 241.38 C 335.88 239.59 335.84 237.81 335.81 236.03 Z" />
</g>
<g id="#606060ff">
<path fill="#606060" opacity="1.00" d=" M 335.62 213.65 C 336.77 211.45 339.51 211.82 341.58 211.54 C 340.72 214.46 339.84 217.38 338.95 220.30 L 338.52 220.19 C 335.83 219.41 334.02 216.19 335.62 213.65 Z" />
<path fill="#606060" opacity="1.00" d=" M 201.12 218.01 C 201.14 215.64 203.54 214.64 205.22 213.54 C 204.95 216.40 204.40 219.25 203.32 221.94 C 202.40 220.79 200.63 219.77 201.12 218.01 Z" />
</g>
<g id="#977c5bff">
<path fill="#977c5b" opacity="1.00" d=" M 341.58 211.54 L 342.47 212.42 C 342.49 212.44 342.53 212.48 342.55 212.50 L 343.60 213.67 C 343.70 216.78 342.41 219.93 338.95 220.30 C 339.84 217.38 340.72 214.46 341.58 211.54 Z" />
</g>
<g id="#c2995fff">
<path fill="#c2995f" opacity="1.00" d=" M 205.22 213.54 C 206.87 214.94 209.56 216.25 208.84 218.90 C 208.67 221.90 205.36 222.15 203.09 222.60 L 203.32 221.94 C 204.40 219.25 204.95 216.40 205.22 213.54 Z" />
</g>
<g id="#5c5c5cff">
<path fill="#5c5c5c" opacity="1.00" d=" M 304.80 221.70 C 307.18 223.60 311.16 224.93 311.29 228.46 C 308.57 226.98 304.85 225.29 304.80 221.70 Z" />
</g>
<g id="#5a5a5aff">
<path fill="#5a5a5a" opacity="1.00" d=" M 174.67 222.52 C 177.30 224.28 179.39 226.70 181.29 229.20 C 177.67 229.37 175.15 225.76 174.67 222.52 Z" />
</g>
<g id="#754177ff">
<path fill="#754177" opacity="1.00" d=" M 99.68 281.62 C 105.30 272.79 110.14 263.48 114.45 253.95 C 117.31 261.64 121.37 268.78 125.14 276.03 C 129.61 284.37 132.80 293.33 137.45 301.58 C 141.74 309.68 147.14 317.11 151.67 325.07 C 147.72 328.37 143.35 331.12 139.49 334.54 C 134.12 338.78 129.74 344.20 123.94 347.90 C 121.67 349.28 119.48 350.79 117.46 352.51 C 105.77 353.50 94.38 356.35 82.96 358.86 C 88.33 353.24 94.67 348.56 99.50 342.43 C 105.09 335.90 111.51 329.65 114.42 321.35 C 116.47 315.45 118.00 309.24 117.92 302.96 C 115.28 303.12 112.92 304.32 110.61 305.50 C 97.03 311.30 83.07 317.57 68.04 317.91 C 71.79 313.08 76.94 309.62 80.73 304.83 C 87.04 297.09 95.00 290.60 99.68 281.62 Z" />
<path fill="#754177" opacity="1.00" d=" M 361.41 290.36 C 364.63 284.85 366.03 278.58 368.81 272.89 C 367.59 279.78 366.68 286.97 363.19 293.16 C 361.57 296.19 359.45 299.01 358.70 302.42 C 359.90 302.16 360.93 301.60 361.78 300.74 C 369.44 292.01 376.19 282.53 383.84 273.80 C 386.54 291.52 395.51 307.33 404.43 322.57 C 407.94 328.52 412.93 333.41 416.39 339.40 C 406.81 338.44 398.80 332.86 390.48 328.59 C 386.50 326.55 383.27 323.07 378.93 321.81 C 375.91 322.57 376.14 326.58 376.47 329.01 C 378.38 338.24 383.01 346.58 386.21 355.38 C 381.37 352.43 377.00 348.78 371.98 346.14 C 367.82 344.11 365.47 339.81 361.39 337.69 C 355.69 334.58 350.33 330.67 344.06 328.74 C 340.94 327.76 337.98 326.34 335.17 324.71 C 339.27 320.26 343.54 315.97 347.58 311.48 C 352.58 304.70 357.16 297.62 361.41 290.36 Z" />
</g>
<g id="#fed65cff">
<path fill="#fed65c" opacity="1.00" d=" M 248.57 261.76 C 251.41 258.05 256.54 259.77 259.18 262.79 C 255.66 262.28 252.11 262.00 248.57 261.76 Z" />
</g>
<g id="#fed65eff">
<path fill="#fed65e" opacity="1.00" d=" M 254.70 282.07 C 257.13 278.24 260.15 274.59 263.86 271.95 C 264.56 277.26 260.45 282.96 254.70 282.07 Z" />
</g>
<g id="#26282cff">
<path fill="#26282c" opacity="1.00" d=" M 268.74 273.95 C 269.71 277.00 268.95 280.37 266.34 282.36 C 261.58 286.18 255.16 288.39 249.05 287.41 C 243.21 286.47 238.83 281.83 236.03 276.91 C 239.38 276.61 240.63 280.42 242.93 282.14 C 249.41 287.75 259.35 285.52 265.53 280.56 C 267.62 278.98 268.14 276.33 268.74 273.95 Z" />
</g>
<g id="#f8cd5aff">
<path fill="#f8cd5a" opacity="1.00" d=" M 256.68 310.04 C 262.23 306.02 269.54 308.26 275.68 309.45 C 279.12 310.55 283.51 310.19 285.92 313.34 C 285.03 313.18 283.27 312.84 282.39 312.67 C 277.45 310.85 272.17 310.46 267.03 309.57 C 263.58 308.94 260.08 309.42 256.68 310.04 Z" />
</g>
<g id="#b96456ff">
<path fill="#b96456" opacity="1.00" d=" M 226.60 311.86 C 230.71 310.67 234.91 309.81 239.08 308.87 C 245.06 307.27 250.68 312.03 256.68 310.04 C 260.08 309.42 263.58 308.94 267.03 309.57 C 272.17 310.46 277.45 310.85 282.39 312.67 C 277.56 312.38 272.78 311.57 267.97 311.10 C 261.99 310.43 256.08 312.89 250.12 311.61 C 242.33 309.84 234.46 312.11 226.60 311.86 Z" />
</g>
<g id="#a13125ff">
<path fill="#a13125" opacity="1.00" d=" M 226.60 311.86 C 234.46 312.11 242.33 309.84 250.12 311.61 C 256.08 312.89 261.99 310.43 267.97 311.10 C 272.78 311.57 277.56 312.38 282.39 312.67 C 283.27 312.84 285.03 313.18 285.92 313.34 C 284.62 314.57 283.40 315.90 281.91 316.90 C 275.24 319.75 268.92 323.35 262.27 326.24 C 255.40 329.21 247.76 327.30 240.87 325.45 C 235.52 323.90 229.70 323.30 225.03 320.04 C 222.05 317.96 219.21 315.69 216.17 313.71 L 215.79 313.45 C 219.38 312.85 222.96 312.11 226.60 311.86 M 260.02 313.37 C 262.55 316.30 267.65 315.95 270.18 313.16 C 266.86 311.89 263.36 312.76 260.02 313.37 M 222.82 315.20 C 226.38 316.52 230.09 317.35 233.71 318.46 C 239.01 320.00 244.57 319.26 250.00 319.32 C 254.87 319.27 259.75 320.69 264.61 319.61 C 269.00 318.72 273.75 318.48 277.58 315.89 C 271.75 316.97 265.95 318.46 259.99 318.62 C 256.97 318.62 253.98 317.98 250.96 317.92 C 246.21 317.78 241.36 318.61 236.69 317.36 C 232.17 316.12 227.58 314.45 222.82 315.20 M 249.85 322.45 C 252.44 326.11 257.66 324.63 261.22 323.44 C 258.24 320.68 253.50 322.42 249.85 322.45 Z" />
</g>
<g id="#b55d53ff">
<path fill="#b55d53" opacity="1.00" d=" M 260.02 313.37 C 263.36 312.76 266.86 311.89 270.18 313.16 C 267.65 315.95 262.55 316.30 260.02 313.37 Z" />
</g>
<g id="#6d201dff">
<path fill="#6d201d" opacity="1.00" d=" M 216.17 313.71 C 219.21 315.69 222.05 317.96 225.03 320.04 C 229.70 323.30 235.52 323.90 240.87 325.45 C 247.76 327.30 255.40 329.21 262.27 326.24 C 268.92 323.35 275.24 319.75 281.91 316.90 C 276.19 321.50 269.88 325.46 263.16 328.43 C 257.12 331.40 250.26 329.80 243.87 329.22 C 236.56 327.72 229.19 325.45 223.13 320.94 C 220.45 318.93 217.54 316.89 216.17 313.71 Z" />
</g>
<g id="#65130dff">
<path fill="#65130d" opacity="1.00" d=" M 222.82 315.20 C 227.58 314.45 232.17 316.12 236.69 317.36 C 241.36 318.61 246.21 317.78 250.96 317.92 C 253.98 317.98 256.97 318.62 259.99 318.62 C 265.95 318.46 271.75 316.97 277.58 315.89 C 273.75 318.48 269.00 318.72 264.61 319.61 C 259.75 320.69 254.87 319.27 250.00 319.32 C 244.57 319.26 239.01 320.00 233.71 318.46 C 230.09 317.35 226.38 316.52 222.82 315.20 Z" />
</g>
<g id="#b76258ff">
<path fill="#b76258" opacity="1.00" d=" M 249.85 322.45 C 253.50 322.42 258.24 320.68 261.22 323.44 C 257.66 324.63 252.44 326.11 249.85 322.45 Z" />
</g>
<g id="#010101ff">
<path fill="#010101" opacity="1.00" d=" M 398.74 392.94 L 399.81 392.79 C 400.37 393.04 401.51 393.54 402.07 393.79 C 407.11 397.53 412.90 400.00 418.64 402.44 C 428.96 407.21 439.25 412.08 449.00 417.94 C 452.57 420.23 457.31 421.80 459.08 425.97 C 458.28 425.81 457.48 425.65 456.70 425.48 C 455.22 424.57 453.80 423.62 452.37 422.66 C 450.51 424.69 448.59 426.69 446.35 428.31 C 438.87 433.34 432.22 439.49 425.33 445.29 C 421.23 448.55 417.92 452.61 414.08 456.14 C 401.79 468.24 393.75 483.89 388.02 500.00 L 386.42 500.00 C 391.04 484.51 399.21 470.09 409.87 457.95 C 416.94 451.02 423.63 443.63 431.61 437.70 C 436.14 434.57 439.76 430.31 444.53 427.51 C 447.16 425.79 449.63 423.84 452.04 421.81 C 450.38 421.03 448.71 420.25 447.05 419.49 C 444.99 421.37 442.83 423.15 440.63 424.86 C 434.45 429.94 428.48 435.26 422.03 439.99 C 413.73 448.40 404.64 456.36 398.72 466.74 C 391.56 476.79 386.34 488.15 382.97 500.00 L 381.33 500.00 C 384.39 490.15 387.67 480.16 393.51 471.55 C 396.67 466.70 399.80 461.82 403.30 457.21 C 410.55 448.86 418.13 440.65 427.05 434.05 C 430.85 430.79 434.75 427.65 438.61 424.46 C 441.00 422.51 443.63 420.87 446.31 419.34 C 441.35 416.77 436.81 413.44 431.66 411.26 C 427.65 409.54 423.62 407.86 419.75 405.84 C 415.29 402.77 410.18 400.94 405.38 398.51 C 403.38 397.43 401.41 396.28 399.61 394.90 C 399.39 394.41 398.96 393.43 398.74 392.94 Z" />
</g>
<g id="#2d2c2cff">
<path fill="#2d2c2c" opacity="1.00" d=" M 362.74 424.72 C 365.02 421.33 366.83 416.75 371.19 415.66 C 370.84 425.31 366.29 434.14 365.12 443.67 C 368.36 444.81 371.68 445.78 374.87 447.10 C 377.19 447.87 378.68 450.88 377.02 452.96 C 373.19 459.48 368.96 465.77 365.35 472.43 C 361.00 477.72 358.29 484.78 351.91 488.05 C 354.17 477.10 359.74 467.03 360.79 455.79 C 356.50 454.68 352.44 452.87 348.35 451.20 C 350.68 441.18 357.89 433.52 362.74 424.72 M 364.31 426.33 C 359.77 434.13 353.90 441.20 350.88 449.81 C 354.47 451.59 358.43 452.36 362.13 453.83 C 364.18 455.94 363.87 459.28 362.67 461.76 C 360.60 468.88 356.18 475.10 354.74 482.41 C 359.88 476.14 364.52 469.34 367.93 461.96 C 369.87 457.84 373.46 454.90 375.83 451.08 C 372.37 447.65 367.29 447.23 363.29 444.76 C 362.39 443.61 363.08 442.18 363.32 440.95 C 365.06 433.91 367.20 426.96 368.44 419.80 C 366.53 421.60 365.65 424.13 364.31 426.33 Z" />
</g>
<g id="#fff629ff">
<path fill="#fff629" opacity="1.00" d=" M 364.31 426.33 C 365.65 424.13 366.53 421.60 368.44 419.80 C 367.20 426.96 365.06 433.91 363.32 440.95 C 363.08 442.18 362.39 443.61 363.29 444.76 C 367.29 447.23 372.37 447.65 375.83 451.08 C 373.46 454.90 369.87 457.84 367.93 461.96 C 364.52 469.34 359.88 476.14 354.74 482.41 C 356.18 475.10 360.60 468.88 362.67 461.76 C 363.87 459.28 364.18 455.94 362.13 453.83 C 358.43 452.36 354.47 451.59 350.88 449.81 C 353.90 441.20 359.77 434.13 364.31 426.33 Z" />
</g>
<g id="#72d6e8ff">
<path fill="#72d6e8" opacity="1.00" d=" M 440.63 424.86 C 442.83 423.15 444.99 421.37 447.05 419.49 C 448.71 420.25 450.38 421.03 452.04 421.81 C 449.63 423.84 447.16 425.79 444.53 427.51 C 443.22 426.62 441.93 425.74 440.63 424.86 Z" />
</g>
<g id="#5f5f5eff">
<path fill="#5f5f5e" opacity="1.00" d=" M 445.04 459.02 C 452.31 466.59 456.58 476.45 459.51 486.40 C 460.79 490.87 460.76 495.60 462.32 500.00 L 459.13 500.00 L 457.30 498.80 C 455.60 494.05 455.39 488.92 454.18 484.04 C 452.62 475.23 449.25 466.87 445.04 459.02 Z" />
<path fill="#5f5f5e" opacity="1.00" d=" M 51.18 490.17 C 54.47 484.95 56.98 479.21 61.09 474.54 C 58.20 483.08 54.16 491.20 52.05 500.00 L 46.84 500.00 C 48.02 496.61 49.24 493.21 51.18 490.17 Z" />
</g>
</svg>
