<svg width="551" height="551" viewBox="0 0 551 551" fill="none" xmlns="http://www.w3.org/2000/svg">
<g clip-path="url(#clip0_2097_6)">
<path d="M192.34 58.6654H132.34C95.0033 58.6654 76.321 58.6654 62.0603 65.9317C49.516 72.323 39.3247 82.5144 32.9333 95.0587C25.667 109.319 25.667 128.002 25.667 165.339V418.672C25.667 456.009 25.667 474.669 32.9333 488.929C39.3247 501.472 49.516 511.682 62.0603 518.072C76.307 525.332 94.9667 525.332 132.231 525.332H385.77C423.034 525.332 441.667 525.332 455.914 518.072C468.457 511.682 478.684 501.462 485.074 488.919C492.334 474.672 492.334 456.032 492.334 418.769V358.665M525.667 191.999V25.332M525.667 25.332H359M525.667 25.332L292.334 258.665" stroke="white" stroke-width="50" stroke-linecap="round" stroke-linejoin="round"/>
</g>
<defs>
<clipPath id="clip0_2097_6">
<rect width="551" height="551" fill="white"/>
</clipPath>
</defs>
</svg>
