<svg width="2500" height="2432" viewBox="0 0 256 249" xmlns="http://www.w3.org/2000/svg" preserveAspectRatio="xMinYMin meet"><g fill="#ffffff"><path d="M 127.5 0 C 57.1 0 0 57.1 0 127.5 c 0 56.3 36.5 104.1 87.2 121 c 6.4 1.2 8.7 -2.8 8.7 -6.1 c 0 -3 -0.1 -13.1 -0.2 -23.7 c -35.5 7.7 -43 -15 -43 -15 c -5.8 -14.7 -14.2 -18.7 -14.2 -18.7 c -11.6 -7.9 0.9 -7.8 0.9 -7.8 c 12.8 0.9 19.5 13.1 19.5 13.1 c 11.4 19.5 29.8 13.9 37.1 10.6 c 1.1 -8.2 4.4 -13.9 8.1 -17.1 c -28.3 -3.2 -58.1 -14.2 -58.1 -63 c 0 -13.9 5 -25.3 13.1 -34.2 c -1.3 -3.2 -5.7 -16.2 1.2 -33.7 c 0 0 10.7 -3.4 35.1 13.1 c 10.2 -2.8 21.1 -4.2 31.9 -4.3 c 10.8 0 21.8 1.5 31.9 4.3 c 24.3 -16.5 35 -13.1 35 -13.1 c 6.9 17.6 2.6 30.5 1.3 33.7 c 8.2 8.9 13.1 20.3 13.1 34.2 c 0 49 -29.8 59.8 -58.2 62.9 c 4.6 4 8.6 11.7 8.6 23.6 c 0 17.1 -0.1 30.8 -0.1 35 c 0 3.4 2.3 7.4 8.8 6.1 c 50.6 -16.9 87.1 -64.7 87.1 -121 C 255 57.1 197.9 0 127.5 0"/><path d="M 47.8 181.6 c -0.3 0.6 -1.3 0.8 -2.2 0.4 c -0.9 -0.4 -1.4 -1.3 -1.1 -1.9 c 0.3 -0.7 1.3 -0.8 2.2 -0.4 c 0.9 0.4 1.5 1.3 1.1 1.9 M 54 187.2 c -0.6 0.6 -1.8 0.3 -2.6 -0.6 c -0.8 -0.9 -1 -2.1 -0.4 -2.6 c 0.6 -0.6 1.8 -0.3 2.6 0.6 c 0.8 0.9 1 2.1 0.4 2.6 M 58.3 194.4 c -0.8 0.5 -2.1 0 -2.8 -1.1 c -0.8 -1.1 -0.8 -2.5 0 -3 c 0.8 -0.5 2 -0.1 2.9 1.1 c 0.8 1.2 0.8 2.5 0 3.1 M 65.6 202.7 c -0.7 0.8 -2.2 0.6 -3.3 -0.5 c -1.1 -1 -1.4 -2.5 -0.7 -3.3 c 0.7 -0.8 2.2 -0.6 3.3 0.5 c 1.1 1 1.4 2.5 0.7 3.3 M 75 205.5 c -0.3 1 -1.7 1.5 -3.2 1 c -1.4 -0.4 -2.4 -1.6 -2.1 -2.6 c 0.3 -1 1.7 -1.5 3.2 -1 c 1.4 0.4 2.4 1.6 2.1 2.6 M 85.7 206.7 c 0 1.1 -1.2 1.9 -2.7 1.9 c -1.5 0 -2.8 -0.8 -2.8 -1.9 c 0 -1.1 1.2 -1.9 2.7 -2 c 1.5 0 2.8 0.8 2.8 1.9 M 96.2 206.3 c 0.2 1 -0.9 2.1 -2.4 2.4 c -1.5 0.3 -2.9 -0.4 -3 -1.4 c -0.2 -1.1 0.9 -2.1 2.4 -2.4 c 1.5 -0.3 2.9 0.4 3 1.4"/></g></svg>