<svg xmlns="http://www.w3.org/2000/svg" xmlns:xlink="http://www.w3.org/1999/xlink" version="1.1" width="256" height="256" viewBox="0 0 256 256" xml:space="preserve">

<defs>
</defs>
<g style="fill: none; fill-rule: nonzero; stroke: none; stroke-width: 0; stroke-linecap: butt; stroke-linejoin: miter; stroke-dasharray: none; stroke-miterlimit: 10; opacity: 1" transform="matrix(2.8,0,0,2.8,1.4,1.4)" >
	<path d="M 45 0 C 20.2 0 0 20.2 0 45 c 0 24.8 20.2 45 45 45 c 24.8 0 45 -20.2 45 -45 C 90 20.2 69.8 0 45 0 z M 4.1 47 H 20.1 c 0.1 6.1 0.9 11.9 2.3 17.1 H 8.7 C 6 58.9 4.3 53.1 4.1 47 z M 47 21.9 V 4.2 c 6.2 1.2 11.7 8 15.2 17.7 H 47 z M 63.5 25.9 C 64.9 31.1 65.8 36.9 65.9 43 H 47 V 25.9 H 63.5 z M 43 4.2 v 17.7 H 27.8 C 31.3 12.2 36.8 5.4 43 4.2 z M 43 25.9 V 43 H 24.1 c 0.2 -6.1 1 -11.9 2.5 -17.1 H 43 z M 20.1 43 H 4.1 c 0.3 -6.1 2 -11.9 4.7 -17.1 h 13.6 C 21 31.1 20.2 36.9 20.1 43 z M 24.1 47 H 43 v 17.1 H 26.5 C 25.1 58.9 24.2 53.1 24.1 47 z M 43 68.1 V 85.8 c -6.2 -1.2 -11.7 -8 -15.2 -17.7 H 43 z M 47 85.8 V 68.1 h 15.2 C 58.7 77.8 53.2 84.6 47 85.8 z M 47 64.1 V 47 h 18.9 c -0.2 6.1 -1 11.9 -2.5 17.1 H 47 z M 69.9 47 h 16 c -0.3 6.1 -2 11.9 -4.7 17.1 H 67.7 C 69 58.9 69.8 53.1 69.9 47 z M 69.9 43 c -0.1 -6.1 -0.9 -11.9 -2.3 -17.1 h 13.6 c 2.7 5.2 4.4 10.9 4.7 17.1 H 69.9 z M 78.9 21.9 H 66.5 c -2.2 -6.6 -5.2 -12.1 -8.9 -15.9 C 66.3 8.8 73.8 14.5 78.9 21.9 z M 32.4 6 c -3.7 3.8 -6.8 9.3 -8.9 15.9 H 11.1 C 16.2 14.5 23.7 8.8 32.4 6 z M 11.1 68.1 h 12.3 c 2.2 6.6 5.2 12.1 8.9 15.9 C 23.7 81.2 16.2 75.5 11.1 68.1 z M 57.6 84 c 3.7 -3.8 6.8 -9.3 8.9 -15.9 h 12.3 C 73.8 75.5 66.3 81.2 57.6 84 z" style="fill: white; fill-rule: nonzero; stroke: none; stroke-width: 1; stroke-linecap: butt; stroke-linejoin: miter; stroke-dasharray: none; stroke-miterlimit: 10; opacity: 1" transform="matrix(1,0,0,1,0,0)" stroke-linecap="round" />
</g>
</svg>