<svg width="245" height="245" viewBox="0 0 245 245" fill="none" xmlns="http://www.w3.org/2000/svg">
<path d="M96.7854 236.866L210.554 123.097C215.653 117.998 215.653 109.734 210.554 104.635L140.091 34.1713C134.992 29.0725 126.728 29.0725 121.629 34.1713L7.85976 147.94C2.76093 153.039 2.76093 161.303 7.85976 166.402L78.3237 236.866C83.4198 241.965 91.6866 241.965 96.7854 236.866Z" fill="#EFEDEF"/>
<path d="M66.8054 139.084C66.1224 127.859 75.3653 117.137 90.6995 117.011C90.8259 101.677 101.548 92.4339 112.773 93.117C124.713 93.8457 134.179 108.021 136.247 124.85C137.296 133.381 135.852 150.42 133.254 159.566C124.108 162.161 107.069 163.605 98.5387 162.559C81.7093 160.491 67.5315 151.025 66.8054 139.084Z" fill="#FE93D3"/>
<path d="M217.06 113.865C217.06 109.831 215.527 105.799 212.456 102.731L141.994 32.2698C139.02 29.2955 135.067 27.6577 130.861 27.6577C126.655 27.6577 122.702 29.2955 119.727 32.2698L5.95826 146.042C2.98394 149.013 1.34619 152.966 1.34619 157.172C1.34619 161.376 2.98394 165.329 5.95826 168.306L76.4222 238.767C82.5591 244.904 92.5497 244.904 98.6866 238.767L212.456 124.995C215.527 121.927 217.06 117.896 217.06 113.865ZM6.7247 157.172C6.7247 154.405 7.80309 151.802 9.76087 149.841L123.533 36.0724C125.493 34.1146 128.094 33.0362 130.864 33.0362C133.633 33.0362 136.234 34.1146 138.194 36.0724L208.656 106.536C212.695 110.578 212.695 117.154 208.656 121.195L94.8866 234.967C90.8447 239.009 84.2695 239.009 80.2275 234.967L9.76087 164.503C7.80309 162.543 6.7247 159.942 6.7247 157.172Z" fill="#3F3F3F"/>
<path d="M139.278 131.686C139.278 128.994 139.163 126.544 138.913 124.522C136.584 105.544 125.657 91.2076 112.934 90.4331C106.827 90.0593 100.938 92.2188 96.3416 96.5055C91.5897 100.937 88.7202 107.238 88.1232 114.437C80.9241 115.034 74.6258 117.904 70.1939 122.656C65.9073 127.249 63.7505 133.147 64.1216 139.249C64.8961 151.971 79.2325 162.898 98.2106 165.227C107.16 166.327 124.547 164.834 133.991 162.153C134.887 161.897 135.589 161.198 135.841 160.303C137.915 152.991 139.278 140.919 139.278 131.686ZM69.4598 137.907C69.4598 133.652 71.0948 129.57 74.1283 126.321C78.0627 122.107 83.9549 119.754 90.721 119.698C92.1894 119.687 93.3753 118.498 93.3888 117.03C93.4453 110.261 95.7984 104.369 100.012 100.434C103.517 97.1644 107.991 95.5185 112.609 95.7982C122.581 96.406 131.595 109.035 133.577 125.176C134.534 132.975 133.295 148.333 131.055 157.366C122.021 159.604 106.666 160.846 98.8641 159.889C82.7232 157.907 70.0944 148.892 69.4867 138.92C69.4705 138.582 69.4598 138.243 69.4598 137.907Z" fill="#3F3F3F"/>
<path d="M123.371 111.243C123.371 110.826 123.274 110.401 123.067 110.006C120.478 105.02 116.532 102.011 112.249 101.75C107.583 101.467 103.218 103.958 100.857 108.252C100.141 109.554 100.617 111.189 101.916 111.904C103.218 112.622 104.853 112.146 105.568 110.845C106.918 108.39 109.355 106.962 111.923 107.117C114.276 107.26 116.597 109.218 118.297 112.485C118.98 113.803 120.604 114.317 121.922 113.631C122.844 113.152 123.371 112.214 123.371 111.243Z" fill="#3F3F3F"/>
<path d="M75.5615 151.358C75.5615 151.288 75.5588 151.216 75.5534 151.146C75.4378 149.664 74.1442 148.559 72.6624 148.674L3.84164 154.066C2.36255 154.182 1.26533 155.502 1.37021 156.957C1.48585 158.439 2.77938 159.544 4.26117 159.429L73.082 154.037C74.4911 153.926 75.5615 152.749 75.5615 151.358Z" fill="#3F3F3F"/>
<path d="M133.074 30.99C133.074 29.5997 132.007 28.4218 130.595 28.3115C129.113 28.1959 127.819 29.3012 127.704 30.783L122.363 98.9852C122.229 100.464 123.353 101.761 124.834 101.876C126.316 101.992 127.61 100.887 127.725 99.4048L133.066 31.2052C133.072 31.1326 133.074 31.0599 133.074 30.99Z" fill="#3F3F3F"/>
<path d="M106.537 162.882C106.537 161.621 105.646 160.496 104.364 160.246C102.906 159.961 101.494 160.911 101.206 162.368L85.9798 240.123C85.684 241.599 86.6441 242.992 88.1017 243.28C89.5592 243.568 90.9711 242.616 91.2588 241.158L106.485 163.404C106.52 163.226 106.537 163.054 106.537 162.882Z" fill="#3F3F3F"/>
<path d="M217.017 114.937C217.017 114.768 217.001 114.593 216.966 114.418C216.681 112.961 215.266 112.012 213.808 112.297L136.054 127.523C134.599 127.808 133.644 129.201 133.932 130.68C134.217 132.138 135.632 133.09 137.089 132.802L214.846 117.573C216.127 117.323 217.017 116.199 217.017 114.937Z" fill="#3F3F3F"/>
<path d="M243.38 4.03539C243.38 3.34694 243.116 2.65849 242.592 2.13409C241.54 1.08259 239.841 1.08259 238.789 2.13409L188.438 52.4851C187.387 53.5366 187.387 55.2362 188.438 56.2877C189.49 57.3392 191.189 57.3392 192.241 56.2877L242.592 5.9367C243.116 5.41229 243.38 4.72384 243.38 4.03539Z" fill="#3F3F3F"/>
<path d="M205.079 4.99804C205.079 4.30959 204.815 3.62114 204.291 3.09673C203.239 2.04523 201.54 2.04523 200.488 3.09673L169.772 33.8161C168.72 34.8676 168.72 36.5672 169.772 37.6187C170.823 38.6702 172.523 38.6702 173.574 37.6187L204.291 6.89934C204.815 6.37494 205.079 5.68649 205.079 4.99804Z" fill="#3F3F3F"/>
<path d="M242.417 42.3359C242.417 41.6475 242.153 40.959 241.629 40.4346C240.577 39.3831 238.878 39.3831 237.826 40.4346L207.109 71.1513C206.058 72.2028 206.058 73.9024 207.109 74.9539C208.161 76.0054 209.861 76.0054 210.912 74.9539L241.629 44.2372C242.153 43.7128 242.417 43.0244 242.417 42.3359Z" fill="#3F3F3F"/>
</svg>
