<svg width="230" height="231" viewBox="0 0 230 231" fill="none" xmlns="http://www.w3.org/2000/svg">
<g filter="url(#filter0_d_2003_626)">
<path d="M192.035 112.054C192.035 109.831 191.167 107.744 189.598 106.173L120.576 37.1507C117.333 33.9101 112.057 33.9101 108.816 37.1507L6.66485 139.302C3.42421 142.543 3.42421 147.821 6.66484 151.062L75.6844 220.084C78.9275 223.325 84.2015 223.325 87.4446 220.084L189.598 117.933C191.167 116.362 192.035 114.274 192.035 112.054ZM9.14818 145.183C9.14818 144.313 9.48011 143.442 10.1415 142.779L112.293 40.6274C113.618 39.3021 115.774 39.3021 117.1 40.6274L186.119 109.649C187.403 110.933 187.405 113.168 186.119 114.456L83.968 216.607C82.6427 217.93 80.4864 217.93 79.1611 216.607L10.1415 147.585C9.48011 146.924 9.14818 146.054 9.14818 145.183Z" fill="black"/>
<path d="M78.3767 204.81L81.0199 147.42L22.4451 148.93C21.0878 148.965 19.9593 147.893 19.9249 146.533C19.8511 145.198 20.9624 144.047 22.3197 144.013L111.235 141.719L113.527 52.8029C113.561 51.4456 114.69 50.3736 116.047 50.408C117.382 50.4425 118.445 51.5341 118.445 52.8643C118.445 52.8865 118.442 52.9086 118.442 52.9283L116.935 111.368L174.467 108.717C175.824 108.656 176.975 109.703 177.037 111.06C177.039 111.1 177.039 111.137 177.039 111.176C177.039 112.482 176.011 113.568 174.693 113.63L116.809 116.295L116.091 144.177C116.057 145.485 115.007 146.54 113.697 146.575L85.9472 147.29L83.2868 205.031C83.2254 206.389 82.0747 207.439 80.7174 207.375C79.3627 207.316 78.3349 206.148 78.3767 204.81Z" fill="black"/>
<path d="M225.516 3.69179C225.516 3.06235 225.275 2.43291 224.795 1.95345C223.834 0.992081 222.28 0.992081 221.319 1.95345L168.571 54.701C167.61 55.6624 167.61 57.2163 168.571 58.1777C169.532 59.1391 171.086 59.1391 172.048 58.1777L224.795 5.43013C225.275 4.94821 225.516 4.32123 225.516 3.69179Z" fill="black"/>
<path d="M175.866 6.78749C175.866 6.15805 175.625 5.52861 175.146 5.04915C174.185 4.08778 172.631 4.08778 171.669 5.04915L145.294 31.4242C144.333 32.3855 144.333 33.9395 145.294 34.9008C146.256 35.8622 147.81 35.8622 148.771 34.9008L175.146 8.52583C175.625 8.04391 175.866 7.41447 175.866 6.78749Z" fill="black"/>
<path d="M222.42 53.3436C222.42 52.7142 222.179 52.0848 221.7 51.6053C220.738 50.6439 219.184 50.6439 218.223 51.6053L191.848 77.9803C190.887 78.9417 190.887 80.4956 191.848 81.457C192.809 82.4184 194.363 82.4184 195.325 81.457L221.7 55.082C222.182 54.6001 222.42 53.9706 222.42 53.3436Z" fill="black"/>
</g>
<defs>
<filter id="filter0_d_2003_626" x="-1" y="0" width="232" height="232" filterUnits="userSpaceOnUse" color-interpolation-filters="sRGB">
<feFlood flood-opacity="0" result="BackgroundImageFix"/>
<feColorMatrix in="SourceAlpha" type="matrix" values="0 0 0 0 0 0 0 0 0 0 0 0 0 0 0 0 0 0 127 0" result="hardAlpha"/>
<feOffset dy="4"/>
<feGaussianBlur stdDeviation="2"/>
<feComposite in2="hardAlpha" operator="out"/>
<feColorMatrix type="matrix" values="0 0 0 0 0 0 0 0 0 0 0 0 0 0 0 0 0 0 0.25 0"/>
<feBlend mode="normal" in2="BackgroundImageFix" result="effect1_dropShadow_2003_626"/>
<feBlend mode="normal" in="SourceGraphic" in2="effect1_dropShadow_2003_626" result="shape"/>
</filter>
</defs>
</svg>
