<svg width="656" height="656" viewBox="0 0 656 656" fill="none" xmlns="http://www.w3.org/2000/svg">
  <g clip-path="url(#clip0_2075_8)">
    <path
      d="M573.439 0H81.9202C36.6769 0 0 36.6769 0 81.9202V573.439C0 618.682 36.6769 655.359 81.9202 655.359H573.439C618.682 655.359 655.359 618.682 655.359 573.439V81.9202C655.359 36.6769 618.682 0 573.439 0Z"
      fill="url(#paint0_linear_2075_8)" />
    <path fill-rule="evenodd" clip-rule="evenodd"
      d="M185.247 130H378.681V212.86C378.681 221.97 386.069 229.36 395.175 229.36H478V517.75C478 522.306 474.308 526 469.753 526H185.247C180.692 526 177 522.306 177 517.75V138.25C177 133.694 180.693 130 185.247 130ZM220.409 383.592H434.592V395.966H220.409V383.592ZM220.409 341.127H434.592V353.502H220.409V341.127ZM220.409 426.056H434.592V438.431H220.409V426.056ZM265.865 275.141C260.423 275.134 253.864 272.91 248.874 268.093C244.889 264.247 241.876 258.783 241.173 251.533C241.122 250.996 241.081 250.065 241.051 249.059C241.01 247.716 240.985 246.085 240.98 245.301C240.907 235.948 243.925 229.846 248.693 225.97C253.334 222.198 259.413 220.812 265.778 220.686C265.974 220.683 266.167 220.675 266.357 220.696C272.575 220.872 278.494 222.279 283.036 225.97C287.804 229.846 290.822 235.948 290.75 245.301C290.744 246.085 290.719 247.716 290.679 249.059C290.649 250.065 290.608 250.996 290.556 251.533C289.834 258.989 287.057 264.458 283.096 268.281C278.47 272.746 272.353 274.821 266.077 275.123C266.006 275.127 265.935 275.141 265.865 275.141ZM240.128 263.682C234.918 266.624 230.431 270.99 227.06 276.328C222.882 282.943 220.409 291.055 220.409 299.772V300.429C220.409 303.289 221.453 305.931 223.134 307.882C224.963 310.004 227.535 311.322 230.408 311.322H301.322C304.195 311.322 306.767 310.004 308.595 307.882C310.277 305.931 311.321 303.289 311.321 300.429V299.772C311.321 291.116 308.888 283.062 304.773 276.484C301.424 271.129 296.958 266.741 291.765 263.771C290.382 266.594 288.541 269.195 286.177 271.477C272.051 285.113 248.95 280.761 240.128 263.682ZM395.175 221.111C390.62 221.111 386.928 217.417 386.928 212.86V138.318C386.928 133.723 390.563 130.001 395.175 130.001C397.478 130.001 399.56 130.946 401.056 132.469L475.584 207.027C478.804 210.249 478.805 215.472 475.584 218.694C473.974 220.305 471.864 221.111 469.753 221.11L395.175 221.111ZM327.389 301.591H433.597V313.966H327.389V301.591ZM365.687 272.276L376.776 275.789C375.073 281.984 372.248 286.58 368.288 289.591C364.34 292.589 359.31 294.094 353.224 294.094C345.699 294.094 339.508 291.519 334.663 286.382C329.817 281.231 327.389 274.191 327.389 265.276C327.389 255.833 329.831 248.503 334.702 243.273C339.574 238.056 345.977 235.441 353.924 235.441C360.855 235.441 366.492 237.488 370.822 241.596C373.41 244.013 375.337 247.499 376.631 252.043L365.291 254.75C364.631 251.805 363.231 249.481 361.093 247.777C358.967 246.073 356.379 245.228 353.343 245.228C349.145 245.228 345.726 246.734 343.112 249.758C340.498 252.769 339.191 257.656 339.191 264.418C339.191 271.589 340.472 276.701 343.059 279.738C345.633 282.789 348.987 284.308 353.106 284.308C356.155 284.308 358.769 283.344 360.96 281.403C363.152 279.474 364.723 276.423 365.687 272.276ZM401.068 293.13L380.803 236.406H393.226L407.563 278.391L421.451 236.406H433.597L413.292 293.13H401.068Z"
      fill="#FFFFFE" />
  </g>
  <defs>
    <linearGradient id="paint0_linear_2075_8" x1="-7.14366e-06" y1="180" x2="639.5" y2="655"
      gradientUnits="userSpaceOnUse">
      <stop stop-color="#ff00ea" />
      <stop offset="1" stop-color="#ffd000" />
    </linearGradient>
    <clipPath id="clip0_2075_8">
      <rect width="655.359" height="655.359" fill="white" />
    </clipPath>
  </defs>
</svg>