<svg width="382" height="503" viewBox="0 0 382 503" fill="none" xmlns="http://www.w3.org/2000/svg">
  <path fill-rule="evenodd" clip-rule="evenodd"
    d="M10.4664 0.000398186H255.954V105.249C255.954 116.82 265.33 126.208 276.886 126.208H382V492.521C382 498.308 377.314 503 371.534 503H10.466C4.68599 503 0 498.308 0 492.521V10.4794C0 4.692 4.68641 0.000398186 10.4664 0.000398186ZM55.0899 322.112H326.91V337.831H55.0899V322.112ZM55.0899 268.174H326.91V283.892H55.0899V268.174ZM55.0899 376.051H326.91V391.77H55.0899V376.051ZM112.779 184.359C105.872 184.35 97.5481 181.525 91.2157 175.407C86.1585 170.52 82.3339 163.58 81.4427 154.372C81.3771 153.689 81.3253 152.507 81.2871 151.229C81.2353 149.523 81.204 147.452 81.1967 146.455C81.1047 134.575 84.9351 126.824 90.9863 121.902C96.876 117.11 104.591 115.349 112.668 115.19C112.918 115.185 113.162 115.176 113.403 115.202C121.294 115.426 128.807 117.212 134.571 121.902C140.622 126.824 144.452 134.575 144.36 146.455C144.353 147.452 144.322 149.523 144.27 151.229C144.232 152.507 144.18 153.689 144.114 154.372C143.198 163.843 139.673 170.789 134.646 175.645C128.776 181.317 121.013 183.952 113.048 184.336C112.958 184.34 112.868 184.359 112.779 184.359ZM80.1158 169.803C73.5038 173.54 67.8096 179.086 63.5311 185.867C58.2286 194.268 55.09 204.573 55.09 215.645V216.479C55.09 220.112 56.415 223.467 58.5492 225.946C60.87 228.641 64.1337 230.315 67.7798 230.315H157.777C161.423 230.315 164.687 228.641 167.008 225.946C169.142 223.467 170.467 220.112 170.467 216.479V215.645C170.467 204.65 167.379 194.42 162.158 186.064C157.907 179.263 152.239 173.689 145.649 169.917C143.894 173.502 141.558 176.805 138.557 179.704C120.63 197.025 91.3119 191.497 80.1158 169.803ZM276.886 115.729C271.106 115.729 266.42 111.037 266.42 105.249V10.5661C266.42 4.72886 271.034 0.000884208 276.886 0.000884208C279.809 0.000884208 282.451 1.20106 284.35 3.13573L378.934 97.8403C383.021 101.932 383.021 108.567 378.934 112.659C376.891 114.705 374.212 115.729 371.534 115.728L276.886 115.729ZM190.859 217.956H325.648V233.674H190.859V217.956ZM239.463 180.719L253.537 185.182C251.376 193.05 247.79 198.888 242.764 202.713C237.754 206.521 231.371 208.433 223.647 208.433C214.097 208.433 206.239 205.162 200.09 198.636C193.941 192.094 190.859 183.152 190.859 171.828C190.859 159.834 193.958 150.523 200.141 143.88C206.323 137.253 214.449 133.932 224.535 133.932C233.331 133.932 240.485 136.532 245.98 141.749C249.264 144.819 251.71 149.248 253.352 155.019L238.96 158.458C238.123 154.717 236.347 151.764 233.633 149.6C230.935 147.436 227.651 146.363 223.798 146.363C218.47 146.363 214.13 148.275 210.813 152.117C207.495 155.942 205.837 162.149 205.837 170.738C205.837 179.847 207.462 186.339 210.746 190.198C214.013 194.073 218.269 196.002 223.496 196.002C227.366 196.002 230.683 194.778 233.465 192.312C236.246 189.862 238.24 185.987 239.463 180.719ZM284.365 207.208L258.647 135.156H274.413L292.608 188.487L310.234 135.156H325.648L299.879 207.208H284.365Z"
    fill="url(#paint0_linear_2075_12)" />
  <defs>
    <linearGradient id="paint0_linear_2075_12" x1="378" y1="497" x2="-1.99994" y2="13.4999"
      gradientUnits="userSpaceOnUse">
      <stop stop-color="#FF00EA" />
      <stop offset="1" stop-color="#FFD000" />
    </linearGradient>
  </defs>
</svg>