<svg width="382" height="503" viewBox="0 0 382 503" fill="none" xmlns="http://www.w3.org/2000/svg">
<path fill-rule="evenodd" clip-rule="evenodd" d="M10.4664 0H255.954V105.249C255.954 116.82 265.33 126.207 276.886 126.207H382V492.52C382 498.308 377.314 503 371.534 503H10.466C4.68599 503 0 498.308 0 492.52V10.479C0 4.6916 4.68641 0 10.4664 0ZM55.09 322.112H326.91V337.831H55.09V322.112ZM55.09 268.173H326.91V283.892H55.09V268.173ZM55.09 376.051H326.91V391.77H55.09V376.051ZM112.779 184.358C105.872 184.349 97.5481 181.524 91.2157 175.406C86.1585 170.52 82.3339 163.58 81.4427 154.371C81.3771 153.689 81.3253 152.507 81.287 151.229C81.2353 149.522 81.204 147.451 81.1967 146.455C81.1047 134.575 84.9351 126.824 90.9863 121.901C96.876 117.11 104.591 115.349 112.668 115.19C112.918 115.185 113.162 115.175 113.403 115.202C121.294 115.426 128.807 117.212 134.571 121.901C140.622 126.824 144.452 134.575 144.36 146.455C144.353 147.451 144.322 149.522 144.27 151.229C144.232 152.507 144.18 153.689 144.114 154.371C143.198 163.842 139.673 170.789 134.646 175.645C128.776 181.316 121.013 183.952 113.048 184.336C112.958 184.34 112.868 184.358 112.779 184.358ZM80.1158 169.802C73.5038 173.54 67.8096 179.086 63.5311 185.866C58.2286 194.268 55.09 204.572 55.09 215.645V216.478C55.09 220.112 56.4149 223.467 58.5492 225.945C60.87 228.641 64.1337 230.315 67.7798 230.315H157.777C161.423 230.315 164.687 228.641 167.008 225.945C169.142 223.467 170.467 220.112 170.467 216.478V215.645C170.467 204.649 167.379 194.42 162.158 186.064C157.907 179.262 152.239 173.688 145.649 169.916C143.894 173.501 141.558 176.805 138.557 179.703C120.63 197.024 91.3119 191.497 80.1158 169.802ZM276.886 115.728C271.106 115.728 266.42 111.036 266.42 105.249V10.5657C266.42 4.72846 271.034 0.000486022 276.886 0.000486022C279.809 0.000486022 282.451 1.20066 284.35 3.13533L378.934 97.8399C383.021 101.932 383.021 108.567 378.934 112.659C376.891 114.705 374.212 115.728 371.534 115.728L276.886 115.728ZM190.859 217.955H325.648V233.674H190.859V217.955ZM239.463 180.719L253.537 185.181C251.376 193.05 247.79 198.887 242.764 202.712C237.754 206.52 231.371 208.433 223.647 208.433C214.097 208.433 206.239 205.162 200.09 198.636C193.941 192.093 190.859 183.152 190.859 171.828C190.859 159.833 193.958 150.522 200.141 143.879C206.323 137.253 214.449 133.931 224.535 133.931C233.331 133.931 240.485 136.531 245.98 141.749C249.264 144.819 251.71 149.248 253.352 155.018L238.96 158.457C238.123 154.716 236.347 151.764 233.633 149.6C230.935 147.436 227.651 146.362 223.798 146.362C218.47 146.362 214.13 148.275 210.813 152.116C207.495 155.941 205.837 162.148 205.837 170.737C205.837 179.847 207.462 186.339 210.746 190.198C214.013 194.073 218.269 196.002 223.496 196.002C227.366 196.002 230.683 194.777 233.465 192.312C236.246 189.862 238.24 185.987 239.463 180.719ZM284.365 207.208L258.647 135.156H274.413L292.608 188.486L310.234 135.156H325.648L299.879 207.208H284.365Z" fill="url(#paint0_linear_2075_11)"/>
<defs>
<linearGradient id="paint0_linear_2075_11" x1="434" y1="479.5" x2="-1.99993" y2="13.5" gradientUnits="userSpaceOnUse">
<stop stop-color="#FF00EA"/>
<stop offset="1" stop-color="#FFD000"/>
</linearGradient>
</defs>
</svg>
