<svg width="128" height="128" viewBox="0 0 128 128" fill="none" xmlns="http://www.w3.org/2000/svg">
<path d="M126.671 98.4407C122.111 99.6007 119.291 98.4907 116.761 94.6907C111.081 86.1807 104.811 78.0606 98.7608 69.7906C97.9808 68.7206 97.1708 67.6706 96.1608 66.3406C89.0008 76.0006 81.8508 85.2006 75.1408 94.7706C72.7408 98.1906 70.2208 99.6806 65.7408 98.4706L92.6608 62.3406L67.6008 29.7106C71.9108 28.8706 74.8908 29.3006 77.5308 33.1606C83.3608 41.6806 89.7908 49.7906 96.2008 58.3706C102.651 49.8206 109.001 41.7006 115.001 33.2606C117.411 29.8406 120.001 28.5406 124.331 29.8006C121.051 34.1506 117.841 38.4306 114.611 42.6806C110.251 48.4106 105.971 54.2106 101.451 59.8206C99.8408 61.8206 100.101 63.1207 101.541 65.0107C109.901 76.0007 118.161 87.1007 126.671 98.4407ZM1.33078 61.7407C2.05078 58.1307 2.53078 54.4506 3.53078 50.9106C9.53078 29.4806 34.1308 20.5706 51.0308 33.8506C60.9308 41.6406 63.3908 52.6206 62.9008 65.0006H7.10078C6.26078 87.2106 22.2508 100.621 42.6308 93.7806C49.7808 91.3806 53.9908 85.7806 56.1008 78.7806C57.1708 75.2706 58.9408 74.7206 62.2408 75.7206C60.5508 84.4806 56.7208 91.8006 48.7208 96.3806C36.7208 103.241 19.5908 101.021 10.5808 91.4906C5.26078 85.8906 3.00078 78.9206 2.00078 71.3906C1.85078 70.1906 1.54078 69.0106 1.30078 67.8206C1.32078 65.794 1.33078 63.7673 1.33078 61.7407ZM7.20078 60.2506H57.6308C57.3008 44.1906 47.3008 32.7806 33.6308 32.6806C18.6308 32.5606 7.85078 43.7006 7.20078 60.2506Z" fill="white"/>
</svg>
