<svg width="591" height="591" viewBox="0 0 591 591" fill="none" xmlns="http://www.w3.org/2000/svg">
<path d="M211.34 79.6654H151.34C114.003 79.6654 95.321 79.6654 81.0603 86.9317C68.516 93.323 58.3247 103.514 51.9333 116.059C44.667 130.319 44.667 149.002 44.667 186.339V439.672C44.667 477.009 44.667 495.669 51.9333 509.929C58.3247 522.472 68.516 532.682 81.0603 539.072C95.307 546.332 113.967 546.332 151.231 546.332H404.77C442.034 546.332 460.667 546.332 474.914 539.072C487.457 532.682 497.684 522.462 504.074 509.919C511.334 495.672 511.334 477.032 511.334 439.769V379.665M544.667 212.999V46.332M544.667 46.332H378M544.667 46.332L311.334 279.665" stroke="white" stroke-width="50" stroke-linecap="round" stroke-linejoin="round"/>
</svg>
