<svg width="64" height="64" viewBox="0 0 64 64" fill="none" xmlns="http://www.w3.org/2000/svg">
<g clip-path="url(#clip0_1002_1989)">
<g clip-path="url(#clip1_1002_1989)">
<path d="M27.7982 57.381L31.0275 56.4497C32.3306 56.0739 33.0818 54.7139 32.7059 53.4108C32.3309 52.1102 30.9735 51.3583 29.6722 51.7308L26.4414 52.6569C25.1383 53.0327 24.3845 54.3935 24.7604 55.6966L24.7619 55.7018C25.1377 57.005 26.4977 57.7561 27.7982 57.381ZM34.7348 9.61251C35.0783 10.8036 36.2565 11.5705 37.4815 11.364C46.5195 9.84147 55.5953 15.1061 58.3266 24.058C61.3228 33.8793 55.6717 44.2579 45.8381 47.0939L39.5721 48.8898C38.2716 49.2648 37.5215 50.6189 37.8966 51.9194C38.2717 53.22 39.6257 53.97 40.9236 53.5957L46.9051 51.8706C59.2148 48.3205 66.5918 35.5471 63.1616 23.2029C59.9445 11.6272 48.2513 4.57945 36.6635 6.50138C35.2217 6.73932 34.3271 8.20846 34.7322 9.61326L34.7348 9.61251ZM16.2606 17.3853L27.5962 14.0992C28.8941 13.7248 29.6408 12.369 29.2665 11.071C28.8921 9.77307 27.5355 9.02379 26.2376 9.39812L14.8975 12.6686C13.5995 13.0429 12.8503 14.3996 13.2246 15.6975L13.2291 15.7131C13.6042 17.0137 14.9634 17.7622 16.2606 17.3853Z" fill="#78F493"/>
<path d="M2.53902 37.1305C1.10535 37.544 0.278152 39.0408 0.691416 40.4738C1.10468 41.9067 2.60192 42.7332 4.03559 42.3197L35.6997 33.1877C37.1334 32.7743 37.9606 31.2774 37.5473 29.8445C37.134 28.4115 35.6368 27.5851 34.2031 27.9986L2.53902 37.1305Z" fill="#78F493"/>
<circle cx="17.1814" cy="57.5318" r="2.57691" transform="rotate(27.9124 17.1814 57.5318)" fill="#78F493"/>
</g>
</g>
<defs>
<clipPath id="clip0_1002_1989">
<rect width="64" height="64" fill="white"/>
</clipPath>
<clipPath id="clip1_1002_1989">
<rect width="46.5363" height="64.8134" fill="white" transform="translate(7.27344 63.2998) rotate(-106.088)"/>
</clipPath>
</defs>
</svg>
