<svg width="128" height="128" viewBox="0 0 128 128" fill="none" xmlns="http://www.w3.org/2000/svg">
<path fill-rule="evenodd" clip-rule="evenodd" d="M88.0372 42.8125C89.6422 47.4555 90.7982 52.1955 91.1782 57.1085C91.6502 63.2035 91.4342 69.2555 90.1492 75.2505C90.1142 75.4155 90.0402 75.5705 89.9852 75.7305C89.5822 75.7315 89.1712 75.6815 88.7772 75.7425C85.4482 76.2655 82.1222 76.8075 78.7962 77.3465C75.3582 77.9035 71.9152 78.4385 68.4832 79.0335C67.2672 79.2435 65.7622 78.9925 65.2712 80.6745C65.2572 80.7205 65.1172 80.7285 65.0362 80.7545L65.2022 70.7035L65.0332 46.4515L66.6352 46.1765C69.2552 45.7475 71.8752 45.3125 74.4972 44.8955C77.6262 44.3985 80.7582 43.9155 83.8892 43.4305C85.2702 43.2155 86.6532 43.0185 88.0372 42.8125Z" fill="#439934"/>
<path fill-rule="evenodd" clip-rule="evenodd" d="M61.7288 110.054C60.0388 108.601 58.2898 107.212 56.6698 105.684C47.9528 97.4624 41.5768 87.7854 38.4368 76.1184C37.5718 72.9074 36.9948 69.6444 36.8098 66.3264C36.6798 64.0044 36.4918 61.6614 36.6558 59.3514C37.0928 53.2074 37.9808 47.1224 39.7828 41.2044L39.8818 41.0664C40.0568 41.2994 40.3088 41.5054 40.3978 41.7684C42.1568 46.9484 43.9028 52.1324 45.6398 57.3194C51.0978 73.6194 56.5488 89.9234 62.0158 106.219C62.1228 106.537 62.3998 106.798 62.5988 107.085L61.7288 110.054Z" fill="#45A538"/>
<path fill-rule="evenodd" clip-rule="evenodd" d="M88.037 42.8114C86.653 43.0174 85.269 43.2144 83.888 43.4274C80.757 43.9124 77.625 44.3954 74.496 44.8924C71.874 45.3094 69.254 45.7444 66.634 46.1734L65.032 46.4484L65.02 45.4034C64.967 44.5444 64.876 43.6864 64.866 42.8274C64.797 37.3494 64.754 31.8714 64.686 26.3934C64.644 22.9644 64.581 19.5364 64.511 16.1084C64.468 13.9784 64.422 11.8474 64.326 9.72036C64.274 8.57736 64.09 7.44036 64.015 6.29736C63.973 5.64036 64.031 4.97836 64.044 4.31836C64.861 5.90136 65.66 7.49636 66.5 9.06736C67.827 11.5514 69.941 13.3814 71.844 15.3784C79.367 23.2704 84.708 32.4464 88.037 42.8114Z" fill="#46A037"/>
<path fill-rule="evenodd" clip-rule="evenodd" d="M65.0355 80.7537C65.1165 80.7277 65.2575 80.7197 65.2705 80.6737C65.7615 78.9917 67.2665 79.2427 68.4825 79.0327C71.9145 78.4387 75.3574 77.9027 78.7954 77.3457C82.1214 76.8067 85.4475 76.2647 88.7765 75.7417C89.1705 75.6797 89.5815 75.7307 89.9845 75.7297C89.3625 77.9497 88.8725 80.2177 88.0835 82.3767C87.1875 84.8257 86.1035 87.2157 84.9525 89.5587C83.2293 93.0534 81.0967 96.3308 78.5994 99.3217C76.6804 101.63 74.5415 103.763 72.3975 105.87C71.2125 107.035 69.8154 107.984 68.5154 109.031L68.1785 108.801L66.9644 107.763L65.7085 105.01C64.8505 101.798 64.3825 98.4951 64.3145 95.1717L64.3374 94.6107L64.5085 92.1847C64.5655 91.3567 64.6415 90.5297 64.6765 89.6997C64.8055 86.7177 64.9175 83.7357 65.0355 80.7537Z" fill="#409433"/>
<path fill-rule="evenodd" clip-rule="evenodd" d="M65.0363 80.7536C64.9183 83.7356 64.8063 86.7176 64.6793 89.7006C64.6443 90.5306 64.5683 91.3576 64.5113 92.1856L63.7463 92.4746C62.0473 87.4726 60.3473 82.5236 58.6843 77.5616C55.9343 69.3526 53.2173 61.1306 50.4713 52.9196C48.2534 46.2921 46.0201 39.6697 43.7713 33.0526C43.6663 32.7426 43.3643 32.5006 43.1543 32.2266L48.0503 23.2246C48.2183 23.5166 48.4403 23.7896 48.5463 24.1036C50.8138 30.8057 53.0698 37.5117 55.3143 44.2216C58.2303 52.9516 61.1283 61.6886 64.0423 70.4196C64.1583 70.7686 64.3503 71.0906 64.5333 71.4816L65.2033 70.7016L65.0363 80.7536Z" fill="#4FAA41"/>
<path fill-rule="evenodd" clip-rule="evenodd" d="M43.1548 32.2266C43.3648 32.5006 43.6658 32.7426 43.7718 33.0526C46.0206 39.6697 48.2539 46.292 50.4718 52.9196C53.2178 61.1306 55.9348 69.3526 58.6848 77.5616C60.3468 82.5226 62.0468 87.4726 63.7468 92.4746L64.5118 92.1856L64.3408 94.6116L64.1858 95.1706C63.9198 97.8266 63.6958 100.489 63.3718 103.139C63.2088 104.467 62.8628 105.771 62.5998 107.086C62.4018 106.799 62.1238 106.538 62.0168 106.22C56.5498 89.9226 51.0988 73.6196 45.6408 57.3196C43.9044 52.1322 42.1571 46.9485 40.3988 41.7686C40.3098 41.5056 40.0588 41.2996 39.8828 41.0666L43.1548 32.2266Z" fill="#4AA73C"/>
<path fill-rule="evenodd" clip-rule="evenodd" d="M65.2018 70.7018L64.5318 71.4818C64.3488 71.0908 64.1568 70.7678 64.0408 70.4198C61.1278 61.6888 58.2288 52.9518 55.3128 44.2218C53.0684 37.5119 50.8124 30.8059 48.5448 24.1038C48.4398 23.7898 48.2178 23.5158 48.0488 23.2248L54.1038 15.2598C54.2948 15.5148 54.5668 15.7418 54.6658 16.0288C56.3468 20.9498 58.0128 25.8768 59.6688 30.8068C61.2158 35.4108 62.7398 40.0218 64.3048 44.6198C64.4098 44.9278 64.7748 45.1458 65.0188 45.4058L65.0308 46.4508C65.0888 54.5328 65.1458 62.6178 65.2018 70.7018Z" fill="#57AE47"/>
<path fill-rule="evenodd" clip-rule="evenodd" d="M65.0205 45.4037C64.7765 45.1437 64.4115 44.9257 64.3065 44.6177C62.7415 40.0197 61.2175 35.4087 59.6705 30.8047C58.0145 25.8747 56.3485 20.9487 54.6675 16.0267C54.5685 15.7397 54.2965 15.5127 54.1055 15.2577C56.0745 13.3297 57.9825 11.3327 60.0305 9.49372C61.8515 7.85972 63.3155 6.10772 63.3825 3.52572C63.3855 3.41872 63.4415 3.31172 63.5275 3.01172L64.0465 4.31772C64.0335 4.97872 63.9745 5.63972 64.0175 6.29672C64.0925 7.43972 64.2765 8.57672 64.3285 9.71972C64.4245 11.8467 64.4705 13.9777 64.5135 16.1077C64.5825 19.5357 64.6455 22.9637 64.6885 26.3927C64.7555 31.8707 64.7995 37.3487 64.8685 42.8267C64.8765 43.6877 64.9665 44.5447 65.0205 45.4037Z" fill="#60B24F"/>
<path fill-rule="evenodd" clip-rule="evenodd" d="M62.5985 107.085C62.8615 105.77 63.2075 104.465 63.3705 103.138C63.6955 100.489 63.9185 97.8262 64.1845 95.1702L64.2505 95.1602L64.3165 95.1712C64.3846 98.4946 64.8526 101.798 65.7105 105.009C65.5345 105.241 65.2855 105.448 65.1925 105.71C64.4655 107.76 63.7805 109.826 63.0495 111.876C62.9495 112.156 62.6715 112.374 62.4755 112.62L61.7285 110.054L62.5985 107.085Z" fill="#A9AA88"/>
<path fill-rule="evenodd" clip-rule="evenodd" d="M62.4766 112.621C62.6726 112.375 62.9516 112.157 63.0506 111.877C63.7816 109.827 64.4676 107.762 65.1936 105.711C65.2866 105.449 65.5346 105.242 65.7116 105.01L66.9666 107.764C66.7186 108.116 66.3766 108.433 66.2386 108.825L63.8346 115.884C63.7356 116.167 63.3976 116.367 63.1716 116.606L62.4766 112.621Z" fill="#B6B598"/>
<path fill-rule="evenodd" clip-rule="evenodd" d="M63.1719 116.606C63.3989 116.368 63.7359 116.167 63.8349 115.884L66.2389 108.825C66.3759 108.434 66.7189 108.116 66.9669 107.764L68.1819 108.801C67.5949 109.381 67.2689 110.051 67.4649 110.898L67.0959 112.106C66.9279 112.313 66.6849 112.493 66.6019 112.73C65.7629 115.133 64.9619 117.549 64.1169 119.952C64.0099 120.257 63.7129 120.496 63.5029 120.764C63.3939 119.377 63.2829 117.993 63.1719 116.606Z" fill="#C2C1A7"/>
<path fill-rule="evenodd" clip-rule="evenodd" d="M63.5028 120.763C63.7118 120.494 64.0088 120.255 64.1168 119.951C64.9618 117.549 65.7628 115.133 66.6018 112.729C66.6848 112.493 66.9268 112.312 67.0958 112.105L66.5868 117.65C66.4508 117.807 66.2538 117.944 66.1888 118.127C65.6138 119.741 65.0718 121.367 64.4948 122.981C64.3758 123.314 64.1478 123.608 63.9698 123.919C63.8118 123.712 63.5288 123.512 63.5158 123.296C63.4648 122.455 63.4998 121.608 63.5028 120.763Z" fill="#CECDB7"/>
<path fill-rule="evenodd" clip-rule="evenodd" d="M63.9688 123.919C64.1468 123.607 64.3748 123.313 64.4938 122.981C65.0718 121.368 65.6128 119.742 66.1878 118.127C66.2528 117.944 66.4507 117.808 66.5857 117.65L66.5977 121.29L65.3797 124.414L63.9688 123.919Z" fill="#DBDAC7"/>
<path fill-rule="evenodd" clip-rule="evenodd" d="M65.3809 124.415L66.5989 121.291L66.8499 124.987L65.3809 124.415Z" fill="#EBE9DC"/>
<path fill-rule="evenodd" clip-rule="evenodd" d="M67.4634 110.898C67.2674 110.051 67.5924 109.38 68.1804 108.801L68.5174 109.031L67.4634 110.898Z" fill="#CECDB7"/>
<path fill-rule="evenodd" clip-rule="evenodd" d="M64.3156 95.1713L64.2496 95.1603L64.1836 95.1703L64.3386 94.6113L64.3156 95.1713Z" fill="#4FAA41"/>
</svg>
