<svg xmlns="http://www.w3.org/2000/svg" width="128" height="128" fill="none"><g clip-path="url(#a)"><path fill="#DF234F" d="M75.323.4c-.898 0-1.796.198-2.594.497 1.696 1.098 2.594 2.594 3.093 4.29 0 .2.1.4.1.6 0 .2.1.398.1.597.1 2.894-.799 3.293-1.397 4.99-.998 2.193-.698 4.588.499 6.483.1.2.2.5.399.7-1.297-8.38 5.686-9.579 6.983-12.173.1-2.294-1.795-3.79-3.292-4.888C77.718.598 76.52.398 75.324.398L75.323.4ZM85.8 2.192c-.1.798 0 .6-.1.998 0 .3 0 .598-.1.898-.1.3-.1.5-.2.798-.1.3-.199.5-.299.798-.1.2-.2.4-.3.698-.099.1-.199.3-.298.4-.1.1-.1.2-.2.3-.2.2-.3.497-.499.697l-.598.6c-.2.2-.4.398-.599.497-.698.5-1.496.898-2.195 1.397-.2.2-.499.3-.698.5-.2.2-.4.3-.599.498l-.598.598c-.2.2-.4.4-.5.7-.199.2-.299.498-.498.697-.1.3-.2.5-.399.798-.1.3-.2.5-.3.798-.1.3-.199.6-.199.798 0 .1 0 .3-.1.4 0 .1 0 .3-.1.4v1.395c0 .3 0 .5.1.798 0 .3.1.5.2.8.1.298.2.497.3.797.099.2.199.3.199.5l-7.583-2.895a53.181 53.181 0 0 0-3.79-.997c-.699-.2-1.397-.3-2.096-.5a61.938 61.938 0 0 0-5.986-.897h-.2c-1.995-.2-3.89-.3-5.885-.3-1.497 0-2.894.1-4.29.2-1.996.1-3.99.4-5.986.7l-1.497.298c-.997.2-1.995.4-2.993.698-.499.1-.997.3-1.496.4-.499.2-.998.398-1.397.598-.399.2-.698.3-1.097.5-.1 0-.1 0-.2.1-.3.198-.598.298-.898.497-.1 0-.2.1-.2.1-.398.2-.698.4-.997.5-.2.1-.499.2-.698.3-.1.098-.2.098-.3.198-.299.2-.598.3-.898.498-.299.2-.598.3-.798.5-.2.2-.499.3-.698.498 0 0-.1 0-.1.1-.2.1-.399.3-.598.5l-.1.1c-.2.1-.3.298-.499.398-.1 0-.1.1-.2.1-.199.1-.299.3-.498.398 0 .1-.1.1-.1.1l-.599.6-.1.1-.598.597s0 .1-.1.1l-.499.5c-.1.1-.2.1-.2.2l-.598.597c0 .1-.1.1-.1.2l-.798.797-.1.1c-.498.6-1.097 1.098-1.695 1.597-.599.498-1.198.997-1.896 1.496-.698.5-1.297.898-1.995 1.297-.699.4-1.397.698-2.095.998-.699.3-1.397.598-2.095.798-1.397.3-2.794.898-3.991.997 0-.498-.3-.399-.599-.399-.299.1-.598.1-.798.2-.3.1-.499.2-.798.3a2.96 2.96 0 0 0-.798.398c-.2.2-.499.3-.698.5-.2.2-.5.398-.699.598-.2.2-.499.4-.698.598-.2.2-.4.4-.599.7-.2.298-.399.497-.499.797-.199.2-.299.5-.498.798-.1.3-.3.598-.4.898l-.299.898c-.1.3-.1.498-.2.798v.1c-.1.3-.1.698-.1.898.1-.1.1.1.1.3v.398c0 .2.1.4.1.598.1.2.1.4.2.6.099.2.199.398.398.598.1.2.3.4.4.598.199.2.398.4.598.5.2.2.399.4.598.498.798.698.998.898 1.996 1.496.2.1.299.2.499.3h.1v.2c0 .298.1.498.199.797.1.3.2.6.3.798l.298.6c0 .1.1.1.1.2.1.298.3.497.4.697.199.2.299.5.498.698l.599.6.598.597h.1c.2.2.399.3.599.5.2.2.499.3.698.398.2.1.499.3.798.4.2.1.4.2.698.2 0 0 .1 0 .1.1.1 0 .3.1.4.1-.1 1.794-.1 3.49.1 4.09.298.697 1.795-1.398 3.192-3.692-.2 2.294-.3 4.988 0 5.786.399.798 2.294-1.796 4.09-4.59 23.345-5.387 44.695 10.775 46.99 33.622-.4-3.592-4.79-5.587-6.884-5.088-.998 2.394-2.694 5.587-5.387 7.482.199-2.195.1-4.39-.3-6.584-.698 2.993-2.095 5.886-4.09 8.28-3.093.2-6.285-1.297-7.882-3.59-.1-.1-.2-.3-.299-.4-.1-.2-.2-.499-.3-.699-.1-.2-.199-.499-.199-.698v-1.197c0-.2.1-.5.2-.699.1-.199.1-.499.2-.698.099-.2.199-.499.398-.698.599-1.597.599-2.894-.499-3.592l-.598-.3c-.1 0-.3-.099-.4-.099-.1 0-.199-.1-.299-.1-.199-.1-.498-.1-.698-.2-.2-.1-.499-.1-.698-.1-.2 0-.5-.099-.699-.099h-.498c-.3 0-.5 0-.699.1-.2 0-.499.1-.698.1-.2.1-.499.1-.699.2-.199.1-.399.2-.698.298l-.599.3c-7.682 4.988-3.092 16.76 2.096 20.152-1.996.4-3.991.798-4.59 1.198l-.1.1c1.397.897 2.894 1.596 4.49 2.194 2.095.699 4.39 1.297 5.387 1.597 2.694.598 5.488.798 8.281.598 14.566-.998 26.538-12.17 28.732-26.737.1.3.1.598.2.898.1.598.2 1.197.3 1.895.1.3.1.6.1.898v.1c0 .3.099.6.099.898 0 .4.1.698.1 1.097v4.19c0 .3-.1.5-.1.8v.298c0 .3-.1.6-.1.998-.1.3-.1.598-.2.898v.1c-.1.3-.1.598-.199.897v.1c-.1.3-.1.6-.2.898v.1l-.299.898v.1c-.1.3-.2.698-.299.997-.1.3-.2.6-.4.998-.099.3-.199.698-.398.997-.1.3-.3.599-.4.998-.099.3-.299.599-.398.898 0 .1-.1.2-.1.2s0 .1-.1.1c-2.095 4.289-5.287 8.08-9.278 11.073-.3.2-.499.4-.798.599-.1.1-.2.1-.2.2-.2.199-.499.299-.698.498l.1.2c.498-.1.898-.1 1.396-.2.898-.1 1.696-.3 2.594-.499.2 0 .5-.1.699-.2.2 0 .299-.1.498-.1s.5-.099.699-.099c.2-.1.399-.1.598-.2 3.293-.797 6.485-1.895 9.578-3.192-5.288 7.183-12.271 12.97-20.452 16.76 3.791-.299 7.582-.897 11.273-1.995a52.47 52.47 0 0 0 31.127-24.941c-1.396 7.582-4.39 14.865-8.879 21.25 3.193-2.095 6.086-4.59 8.78-7.283 7.382-7.682 12.27-17.559 13.867-28.034 1.098 5.188 1.497 10.575.998 15.863 23.844-33.222 1.995-67.64-7.183-76.72 0-.1-.1-.1-.1-.2 0 .4 0 .798-.1 1.198-.1.798-.2 1.496-.3 2.194-.199.7-.398 1.497-.598 2.195-.2.7-.499 1.397-.798 2.095-.3.7-.599 1.397-.998 1.996-.399.6-.798 1.297-1.197 1.895-.399.6-.898 1.197-1.397 1.796-.498.6-.997 1.097-1.596 1.696-.3.3-.598.6-.997.798-.3.2-.5.4-.799.698-.598.5-1.197.898-1.895 1.297-.599.4-1.297.8-1.995 1.098l-2.096.898c-.698.3-1.396.5-2.095.698-.698.2-1.496.4-2.195.5-.798.1-1.496.2-2.194.3-.5 0-1.098.098-1.597.098-.798 0-1.496-.1-2.194-.1-.799-.1-1.497-.2-2.195-.3a7.871 7.871 0 0 1-2.195-.598c.698-.1 1.496-.1 2.195-.299.798-.1 1.496-.3 2.195-.499.698-.2 1.496-.399 2.095-.698l2.095-.898c.698-.3 1.297-.698 1.995-1.097.599-.4 1.297-.898 1.896-1.297.598-.5 1.197-.998 1.696-1.497.598-.499 1.097-1.097 1.596-1.596.499-.599.998-1.197 1.397-1.796.1-.1.1-.2.2-.3.298-.498.697-1.097.997-1.595.372-.644.705-1.31.997-1.996.3-.698.6-1.397.799-2.095l.598-2.095c.1-.798.3-1.496.3-2.195.1-.798.1-1.496.1-2.195 0-.498 0-1.097-.1-1.596-.1-.798-.2-1.496-.3-2.195-.1-.798-.3-1.496-.499-2.195-.2-.698-.499-1.396-.698-2.095-.3-.698-.599-1.396-.898-1.995-.399-.698-.698-1.297-1.097-1.995-.4-.599-.898-1.198-1.297-1.796-.499-.599-.998-1.098-1.497-1.696-.299-.3-.598-.599-.898-.798-1.496-1.197-2.993-2.195-4.589-3.193-.2-.1-.399-.2-.698-.3-1.297-1.096-2.294-1.396-3.291-1.795Z"/></g><defs><clipPath id="a"><path fill="#fff" d="M0 0h128v128H0z"/></clipPath></defs></svg>