<svg width="128" height="128" viewBox="0 0 128 128" fill="none" xmlns="http://www.w3.org/2000/svg">
<path d="M113.117 26.0663C92.1683 -1.0617 53.1913 -6.0697 26.0623 14.8833C-1.06265 35.8363 -6.06565 74.8133 14.8873 101.938C35.8443 129.062 74.8244 134.062 101.945 113.105C129.059 92.1523 134.063 53.1873 113.117 26.0663Z" fill="#F37036"/>
<path d="M91.0779 24.1646C88.9413 24.3353 86.9155 25.1855 85.2969 26.5906C83.4022 28.2354 82.193 30.5308 81.9079 33.0236C81.6228 35.5163 82.2826 38.0254 83.7569 40.0556C85.2292 42.0867 87.4092 43.4922 89.8669 43.9948C92.3246 44.4974 94.8814 44.0606 97.0329 42.7706H97.0349L97.1909 42.9266C97.8994 42.5203 98.5588 42.0338 99.1559 41.4766C100.997 39.5284 102.011 36.9412 101.981 34.2606C101.952 31.5799 100.883 29.0153 98.9999 27.1076V27.1056L90.1559 35.8946L89.9999 35.7396L98.8439 26.9466C97.8202 25.9596 96.5985 25.2013 95.2596 24.722C93.9208 24.2428 92.4954 24.0534 91.0779 24.1666V24.1646ZM79.4339 38.5516C75.1939 38.5446 68.2709 43.3506 51.3669 60.2546L51.4509 60.3406C51.3589 60.3086 51.2659 60.3056 51.2659 60.3056L44.9019 66.6136C44.7385 66.769 44.6303 66.9736 44.5938 67.1962C44.5574 67.4188 44.5946 67.6472 44.6999 67.8466C44.8052 68.0461 44.9727 68.2057 45.1771 68.3012C45.3814 68.3967 45.6113 68.4228 45.8319 68.3756L56.7459 66.0476C56.7941 66.0023 56.8263 65.9427 56.8379 65.8776L57.0799 66.1276L53.3599 69.8176H53.1799L31.0939 92.0776L38.1799 98.9016C38.3781 99.0802 38.628 99.191 38.8935 99.2178C39.1589 99.2446 39.426 99.186 39.6559 99.0506C39.8878 98.9161 40.0735 98.7146 40.1886 98.4726C40.3038 98.2305 40.3429 97.9593 40.3009 97.6946L39.2659 93.1946C39.2014 93.1041 39.1667 92.9957 39.1667 92.8846C39.1667 92.7735 39.2014 92.6651 39.2659 92.5746C48.94 87.9627 57.9364 82.0467 66.0039 74.9916L61.4689 70.4546L61.5549 70.4406L58.8649 67.7516L59.0369 67.5776L59.2189 67.7636L59.1249 67.8546L66.2619 75.1476V75.1446C79.9419 62.1906 89.6519 51.7776 87.1269 44.7696C87.0118 43.9315 86.6226 43.1551 86.0199 42.5616V42.5656C85.8668 42.4515 85.7054 42.3492 85.5369 42.2596C85.4539 42.1716 85.3809 42.0816 85.2929 41.9956L85.2269 42.0616C85.0416 41.9484 84.8469 41.8514 84.6449 41.7716L84.9339 41.4796C83.1379 39.8796 81.6539 38.5556 79.4339 38.5496V38.5516ZM30.9399 92.2106L25.7689 97.3826V97.3866C25.5834 97.5015 25.4391 97.6724 25.357 97.8746C25.2748 98.0768 25.2591 98.2998 25.3119 98.5116C25.3629 98.7233 25.4794 98.9135 25.6447 99.0551C25.8101 99.1968 26.0159 99.2827 26.2329 99.3006L38.9049 100.176L30.9399 92.2106Z" fill="white"/>
<path d="M91.9502 23.3106C89.0479 23.3069 86.2607 24.4457 84.1912 26.4806C82.7187 27.9875 81.7105 29.8861 81.2867 31.9501C80.863 34.014 81.0416 36.1563 81.8012 38.1216C77.0602 36.0916 70.6462 39.6316 50.6952 59.5786C50.6812 59.6092 50.6688 59.6406 50.6582 59.6726C50.6175 59.6911 50.5777 59.7118 50.5392 59.7346L44.2302 66.0986C43.9278 66.3954 43.7292 66.7818 43.6638 67.2004C43.5984 67.6191 43.6697 68.0477 43.8672 68.4226C44.0435 68.7192 44.2931 68.9655 44.592 69.1378C44.891 69.3101 45.2292 69.4027 45.5742 69.4066L45.8872 69.2036L54.3112 67.4066L50.2812 71.4736C50.2577 71.5269 50.2396 71.5826 50.2272 71.6396L30.4772 91.4386C30.3985 91.5048 30.3333 91.5856 30.2852 91.6766L25.1992 96.7666C24.9457 97.0341 24.7725 97.3675 24.6993 97.7287C24.6261 98.0899 24.6559 98.4644 24.7852 98.8096C24.9178 99.1526 25.1427 99.4522 25.4349 99.6755C25.7272 99.8987 26.0754 100.037 26.4412 100.075L39.0592 100.955C39.2744 100.879 39.4577 100.733 39.5792 100.54C39.6877 100.389 39.7461 100.208 39.7461 100.022C39.7461 99.8363 39.6877 99.6553 39.5792 99.5046L39.5532 99.4796C39.8255 99.3366 40.0655 99.1392 40.2582 98.8996C40.4609 98.6366 40.6024 98.3318 40.6727 98.0073C40.7429 97.6828 40.74 97.3468 40.6642 97.0236L39.6802 92.8366C49.1206 88.3249 57.9659 82.6615 66.0142 75.9756C66.0923 76.02 66.1756 76.0546 66.2622 76.0786C66.5162 76.0596 66.7542 75.9506 66.9342 75.7706C80.4842 62.9406 88.4492 54.1486 88.4492 47.1686C88.4786 46.2003 88.3326 45.2348 88.0182 44.3186C89.2393 44.8249 90.542 45.1061 91.8632 45.1486L91.8482 45.1526C93.6679 45.0969 95.4468 44.5993 97.0312 43.7026C97.0326 43.7029 97.0339 43.7032 97.0352 43.7036C97.2403 43.765 97.4612 43.7453 97.6522 43.6486C98.4167 43.1984 99.1137 42.6422 99.7222 41.9966C100.753 40.9847 101.573 39.7775 102.132 38.4455C102.691 37.1134 102.98 35.6833 102.98 34.2386C102.98 32.7939 102.692 31.3638 102.133 30.0317C101.573 28.6997 100.754 27.4925 99.7232 26.4806C99.6864 26.4471 99.6469 26.4167 99.6052 26.3896C97.5467 24.413 94.803 23.3099 91.9492 23.3116L91.9502 23.3106ZM91.8632 25.0826C93.8841 25.0946 95.8456 25.7667 97.4492 26.9966L89.3812 35.1136C89.3535 35.1443 89.3281 35.1771 89.3052 35.2116C89.1598 35.3587 89.0746 35.5548 89.0662 35.7616C89.0663 35.8864 89.0944 36.0097 89.1486 36.1222C89.2028 36.2348 89.2816 36.3336 89.3792 36.4116H89.3812L95.4812 42.5116C93.8115 43.2397 91.9608 43.4466 90.1715 43.1053C88.3822 42.7639 86.7377 41.8902 85.4532 40.5986C82.8672 37.9986 82.1172 34.0946 83.5002 30.7076C84.8832 27.3176 88.1802 25.1026 91.8632 25.0826ZM98.9832 28.5146C100.302 30.1106 101.022 32.1179 101.016 34.1886C101.012 36.6144 100.046 38.9394 98.3282 40.6526C97.9839 40.9765 97.6169 41.2756 97.2302 41.5476L92.3072 36.7006L91.3442 35.7376L91.6092 35.4726L98.9822 28.5126L98.9832 28.5146ZM98.6172 32.7076C98.4363 32.6504 98.2406 32.6614 98.0672 32.7386C97.8956 32.8274 97.7662 32.9806 97.7072 33.1646C97.6783 33.2564 97.6678 33.3531 97.6764 33.4491C97.6849 33.545 97.7124 33.6383 97.7572 33.7236C97.935 34.0971 98.0051 34.5129 97.9597 34.9241C97.9143 35.3353 97.7552 35.7257 97.5002 36.0516C97.435 36.1145 97.3839 36.1905 97.3503 36.2746C97.3167 36.3587 97.3013 36.449 97.3052 36.5396C97.3092 36.7236 97.3752 36.8996 97.5002 37.0316C97.6335 37.0825 97.7809 37.0825 97.9142 37.0316C98.0345 37.0616 98.1606 37.0581 98.2791 37.0217C98.3975 36.9852 98.5037 36.917 98.5862 36.8246C99.0117 36.3028 99.2811 35.6714 99.3634 35.0031C99.4457 34.3349 99.3375 33.657 99.0512 33.0476V33.0516C98.9537 32.8875 98.7992 32.765 98.6172 32.7076ZM79.3402 39.4306C80.5471 39.4706 81.7085 39.9007 82.6502 40.6566C81.6355 40.8026 80.6951 41.2726 79.9692 41.9966L57.1622 64.7016L52.6862 60.2256C64.5142 48.4536 71.7462 42.3046 76.2422 40.2896C77.1682 39.7054 78.2456 39.4073 79.3402 39.4306ZM83.3052 42.3906C84.071 42.3906 84.8057 42.6941 85.3482 43.2346C85.637 43.5053 85.8648 43.8346 86.0164 44.2003C86.1679 44.566 86.2398 44.9599 86.2272 45.3556C86.2141 45.7498 86.1199 46.137 85.9505 46.4932C85.781 46.8494 85.5399 47.1668 85.2422 47.4256L60.9922 68.5316L58.3752 65.9146L81.2622 43.2346C81.8049 42.6944 82.5395 42.3903 83.3052 42.3906ZM86.2992 49.0886C84.6092 55.7906 75.6522 64.8716 66.3122 73.6956L62.5352 69.9226L86.2992 49.0886ZM51.3672 61.5476L51.6412 61.8176L55.1542 65.3306L45.5242 67.3906L51.3672 61.5476ZM57.1602 67.3876L57.1642 67.3916L58.3322 68.5866C58.3371 68.6148 58.3431 68.6428 58.3502 68.6706L58.4282 68.6826L58.6762 68.9366L59.4962 69.7766L54.1112 70.4366L57.1612 67.3866L57.1602 67.3876ZM61.0272 71.4636L64.6052 75.0396C56.6935 81.6185 48.0115 87.2115 38.7502 91.6956C38.4495 91.8387 38.2078 92.0817 38.0661 92.3831C37.9244 92.6845 37.8916 93.0257 37.9732 93.3486L39.0082 97.8486C39.0464 97.9014 39.0669 97.9649 39.0669 98.0301C39.0669 98.0952 39.0464 98.1587 39.0082 98.2116C38.9513 98.2626 38.8776 98.2908 38.8012 98.2908C38.7248 98.2908 38.6511 98.2626 38.5942 98.2116L32.4922 92.0596L51.3002 72.9756L61.0272 71.4636ZM31.0942 93.4036L31.9632 94.2176L36.4552 98.7096L26.4392 98.0616L31.0942 93.4036Z" fill="#F37036"/>
</svg>
