<svg width="128" height="128" viewBox="0 0 128 128" fill="none" xmlns="http://www.w3.org/2000/svg">
<g clip-path="url(#clip0_76_75)">
<path d="M66.4575 0.0137016C65.3043 -0.0624243 64.1524 0.179723 63.1274 0.71371C62.1025 1.2477 61.2439 2.053 60.6455 3.0417L12.7755 81.1137C12.1518 82.1305 11.8257 83.3018 11.8341 84.4946C11.8426 85.6874 12.1854 86.8539 12.8235 87.8617L36.3915 125.048C37.139 126.22 38.2485 127.116 39.5516 127.6C40.8546 128.084 42.28 128.13 43.6115 127.731L111.624 107.324C112.497 107.062 113.304 106.616 113.991 106.016C114.677 105.416 115.226 104.675 115.602 103.844C115.977 103.013 116.17 102.111 116.167 101.199C116.163 100.288 115.965 99.387 115.584 98.5587L71.8635 3.7087C71.388 2.65679 70.6326 1.75579 69.6797 1.10415C68.7269 0.452503 67.6132 0.0752829 66.4605 0.0137016H66.4575ZM68.2525 23.9637C68.761 23.9029 69.2754 24.01 69.7174 24.2688C70.1593 24.5275 70.5046 24.9236 70.7005 25.3967L100.861 95.1807C100.995 95.4908 101.062 95.8259 101.057 96.1639C101.053 96.5018 100.976 96.8349 100.833 97.1412C100.69 97.4475 100.484 97.72 100.228 97.9407C99.9723 98.1615 99.6725 98.3254 99.3485 98.4217L52.3525 112.446C51.9576 112.563 51.5391 112.576 51.1376 112.484C50.7361 112.392 50.3652 112.198 50.0609 111.92C49.7566 111.642 49.5293 111.291 49.401 110.899C49.2726 110.508 49.2477 110.09 49.3285 109.686L66.1585 25.8737C66.2528 25.3703 66.5088 24.9114 66.8876 24.5666C67.2665 24.2219 67.7474 24.0102 68.2575 23.9637H68.2525Z" fill="#f3f8ff"/>
</g>
<defs>
<clipPath id="clip0_76_75">
<rect width="128" height="128" fill="white"/>
</clipPath>
</defs>
</svg>
