<?xml version="1.0" encoding="UTF-8" ?>
<!DOCTYPE svg PUBLIC "-//W3C//DTD SVG 1.1//EN" "http://www.w3.org/Graphics/SVG/1.1/DTD/svg11.dtd">
<svg width="512pt" height="512pt" viewBox="0 0 512 512" version="1.1" xmlns="http://www.w3.org/2000/svg">
<g id="#cd67a5ff">
<path fill="#cd67a5" opacity="1.00" d=" M 424.48 0.00 L 499.73 0.00 C 506.03 0.51 511.46 5.93 512.00 12.22 L 512.00 84.72 C 511.49 92.45 503.68 98.74 496.01 97.06 C 489.49 95.54 483.12 93.45 476.66 91.67 C 476.67 112.11 476.70 132.56 476.65 153.00 C 476.74 157.41 474.52 161.42 471.50 164.50 C 470.44 201.04 465.15 238.26 449.46 271.61 C 446.94 278.14 438.43 281.28 432.36 277.69 C 427.74 274.69 423.78 270.79 419.44 267.41 C 416.41 264.75 412.12 262.42 411.72 257.96 C 411.08 254.06 414.17 251.16 416.81 248.83 C 427.79 239.16 435.33 226.24 440.81 212.83 C 446.74 197.88 449.97 181.95 451.12 165.94 C 451.20 164.47 451.37 162.87 450.26 161.73 C 448.14 158.98 447.29 155.48 447.36 152.05 C 447.33 129.14 447.41 106.23 447.32 83.31 C 439.66 81.08 431.83 79.41 424.32 76.71 C 418.21 74.63 414.21 68.42 414.10 62.07 C 414.02 45.68 414.07 29.29 414.07 12.89 C 414.04 6.82 418.89 1.74 424.48 0.00 Z" />
<path fill="#cd67a5" opacity="1.00" d=" M 233.67 178.67 C 242.78 174.32 252.59 169.83 262.94 171.16 C 267.88 172.23 271.19 177.14 271.16 182.05 C 271.72 191.00 266.79 198.92 262.30 206.24 C 257.40 213.06 252.79 220.13 247.11 226.35 C 236.58 238.99 224.92 250.65 212.96 261.93 C 206.60 267.58 200.33 273.37 193.42 278.34 C 182.88 285.71 168.97 288.39 156.57 284.65 C 149.77 282.62 143.33 278.10 140.51 271.40 C 137.28 264.29 136.75 256.36 136.94 248.67 C 168.29 224.17 198.04 196.96 233.67 178.67 Z" />
<path fill="#cd67a5" opacity="1.00" d=" M 330.76 210.87 C 340.23 206.35 350.18 201.34 360.97 201.89 C 365.99 201.58 370.48 205.49 371.70 210.22 C 373.27 216.50 371.44 223.02 368.67 228.68 C 363.31 239.63 356.11 249.59 348.19 258.82 C 335.64 273.96 321.78 287.99 307.22 301.19 C 297.80 309.43 288.45 318.76 276.05 322.22 C 264.17 325.62 250.11 324.77 240.24 316.72 C 231.02 308.78 229.63 295.60 230.03 284.19 C 232.52 281.96 235.19 279.96 237.80 277.89 C 251.80 266.90 265.54 255.56 279.54 244.56 C 295.76 232.10 312.70 220.50 330.76 210.87 Z" />
<path fill="#cd67a5" opacity="1.00" d=" M 358.29 308.22 C 371.64 299.95 385.52 291.52 401.17 288.60 C 407.02 287.37 414.53 288.85 416.96 295.02 C 419.95 302.74 416.76 311.12 413.03 318.00 C 404.75 333.23 393.19 346.32 381.56 359.05 C 370.97 370.29 359.88 381.07 348.20 391.17 C 340.91 397.47 333.29 403.93 323.88 406.72 C 311.89 410.49 297.54 409.77 287.42 401.72 C 279.51 395.30 277.69 384.61 277.09 375.02 C 277.24 372.83 276.14 369.84 278.50 368.49 C 297.48 353.57 316.01 338.05 335.28 323.51 C 343.06 318.58 350.34 312.88 358.29 308.22 Z" />
</g>
<g id="#f1d14bff">
<path fill="#f1d14b" opacity="1.00" d=" M 212.96 261.93 C 224.92 250.65 236.58 238.99 247.11 226.35 C 255.97 243.10 252.18 265.41 237.80 277.89 C 235.19 279.96 232.52 281.96 230.03 284.19 C 229.63 295.60 231.02 308.78 240.24 316.72 C 250.11 324.77 264.17 325.62 276.05 322.22 C 288.45 318.76 297.80 309.43 307.22 301.19 C 321.78 287.99 335.64 273.96 348.19 258.82 C 354.92 270.19 357.20 284.25 353.44 297.01 C 350.78 307.71 343.67 316.62 335.28 323.51 C 316.01 338.05 297.48 353.57 278.50 368.49 C 276.14 369.84 277.24 372.83 277.09 375.02 C 277.69 384.61 279.51 395.30 287.42 401.72 C 297.54 409.77 311.89 410.49 323.88 406.72 C 333.29 403.93 340.91 397.47 348.20 391.17 C 359.88 381.07 370.97 370.29 381.56 359.05 C 388.13 370.74 390.23 385.03 386.26 397.94 C 383.39 408.72 376.24 417.86 367.54 424.65 C 340.02 446.71 312.53 468.80 285.03 490.87 C 280.12 494.68 275.50 498.86 270.28 502.25 C 261.67 508.43 251.12 511.40 240.62 512.00 L 22.31 512.00 C 11.66 511.73 2.26 503.53 0.00 493.22 L 0.00 374.32 C 1.01 368.02 2.93 361.81 6.43 356.43 C 9.91 350.71 15.09 346.33 20.33 342.28 C 59.19 311.07 98.11 279.91 136.94 248.67 C 136.75 256.36 137.28 264.29 140.51 271.40 C 143.33 278.10 149.77 282.62 156.57 284.65 C 168.97 288.39 182.88 285.71 193.42 278.34 C 200.33 273.37 206.60 267.58 212.96 261.93 Z" />
</g>
<g id="#e8c842ff">
<path fill="#e8c842" opacity="1.00" d=" M 15.31 346.31 C 55.82 313.72 96.45 281.27 136.93 248.64 C 136.76 258.72 137.65 269.99 144.78 277.80 C 143.68 278.34 142.55 278.83 141.57 279.56 C 107.24 306.87 73.24 334.59 38.90 361.88 C 31.06 368.35 22.66 374.20 15.72 381.69 C 8.83 387.97 4.54 396.38 0.00 404.37 L 0.00 374.24 C 1.46 363.45 6.86 353.24 15.31 346.31 Z" />
<path fill="#e8c842" opacity="1.00" d=" M 220.87 290.90 C 223.85 288.52 226.69 285.94 229.98 283.99 C 229.78 293.09 230.53 302.66 235.08 310.74 C 212.35 328.37 190.16 346.72 167.55 364.52 C 152.11 377.50 136.04 389.70 120.43 402.48 C 101.88 417.24 83.45 432.16 65.00 447.05 C 49.89 459.28 34.35 471.00 19.71 483.79 C 14.29 489.90 8.81 496.17 5.19 503.56 C 2.31 500.84 1.38 496.86 0.00 493.32 L 0.00 468.12 C 6.16 463.62 12.09 458.82 17.88 453.86 C 85.65 399.67 153.20 345.21 220.87 290.90 Z" />
<path fill="#e8c842" opacity="1.00" d=" M 270.04 375.05 C 272.23 373.15 274.37 371.18 276.90 369.73 C 277.29 379.29 277.70 389.80 283.68 397.75 C 282.37 398.36 281.05 399.00 279.90 399.90 C 236.67 434.30 193.80 469.14 150.56 503.54 C 147.25 506.35 143.55 508.74 140.64 512.00 L 99.52 512.00 C 107.62 504.91 116.21 498.43 124.54 491.62 C 173.13 452.87 221.43 413.77 270.04 375.05 Z" />
</g>
</svg>
