<svg width="1200" height="268" viewBox="0 0 1200 268" fill="none" xmlns="http://www.w3.org/2000/svg">
<path fill-rule="evenodd" clip-rule="evenodd" d="M1200 252L1133 234C1067 216 933 180 800 186C667 192 533 240 400 258C267 276 133 264 67 258L-1.35564e-06 252L-2.33862e-05 7.43898e-05L67 6.85324e-05C133 6.27625e-05 267 5.10479e-05 400 3.94206e-05C533 2.77934e-05 667 1.60788e-05 800 4.45153e-06C933 -7.1757e-06 1067 -1.88903e-05 1133 -2.46603e-05L1200 -3.05176e-05L1200 252Z" fill="#6D83F2"/>
</svg>
