<svg width="933" height="628" viewBox="0 0 933 628" fill="none" xmlns="http://www.w3.org/2000/svg">
<path d="M680.894 110.081C686.254 108.734 691.68 107.361 697.254 107.441C711.08 107.534 724.907 107.534 738.734 107.521C745.534 107.441 752.187 108.921 758.907 109.721C781.214 110.921 803.307 115.454 824.454 122.601C846.067 130.201 867.467 141.067 882.414 158.894C892.36 169.908 898.507 184.094 900.334 198.774C901.507 211.001 898.387 223.134 894.374 234.588C885.814 257.721 869.987 277.081 854.374 295.801C849.4 301.454 843.56 306.254 838.4 311.734C826.054 325.361 810.627 335.574 796.254 346.867C785.48 354.747 775.174 363.348 763.654 370.161C753.587 376.241 744.48 383.934 733.6 388.601C748.654 377.654 764.84 368.307 779.947 357.401C798.694 343.334 817.867 329.721 834.814 313.454C853.987 295.001 871.654 274.694 885.12 251.668C893.867 235.988 900.094 218.121 899.054 199.974C897.84 189.694 894.974 179.441 889.68 170.481C885.254 162.708 878.614 156.561 872.307 150.334C855.734 135.574 835 126.241 813.72 120.548C788.494 112.894 762.067 111.441 736.014 108.841C724.894 108.761 713.774 108.774 702.667 108.734C695.36 108.548 688.214 110.627 680.894 110.081Z" fill="#d943f0"/>
<path d="M588.707 116.694C598.88 114.948 608.747 111.214 619.2 111.254C609.56 114.054 599.16 114.214 590.107 118.934C601.6 119.134 612.774 115.614 624.267 115.494C615.534 118.308 606.294 118.468 597.32 120.081C594.4 120.574 591.427 120.468 588.48 120.441C588.534 119.494 588.654 117.628 588.707 116.694Z" fill="#d943f0"/>
<path d="M779.36 137.255C786.72 136.241 794.96 135.801 801.413 140.215C809.827 144.908 815.333 154.255 814.227 164.015C815.853 176.428 806.253 188.215 794.48 191.068C788.307 191.388 781.627 192.215 775.92 189.281C766.413 184.895 759.96 174.468 760.373 164.001C759.973 152.268 767.893 140.468 779.36 137.255ZM780.333 138.601C775.627 140.228 770.987 142.615 767.8 146.535C759.16 157.095 759.893 174.028 769.827 183.495C780.693 193.988 800.68 192.388 809.093 179.601C814.147 172.855 813.413 163.975 812.533 156.095C808.36 143.348 793.387 134.641 780.333 138.601Z" fill="#19293C"/>
<path d="M604.053 163.547C613.907 163.667 623.44 160.147 633.333 160.88C651.6 161.427 670.147 159.227 688.12 163.294C697.72 163.134 706.947 165.8 716.027 168.614C732.427 172.734 747.28 182.254 758.547 194.8C763.84 200.027 765.774 207.427 768.2 214.227C770.24 219.787 770.32 225.787 769.787 231.614C768.494 240.36 767.72 249.4 763.774 257.467C760.52 264.054 758 271.547 751.707 275.934C750.934 267.72 755.427 260.2 755.414 252.04C755.48 244.267 755.96 236.214 753 228.854C748.854 218.214 743.307 207.574 734.067 200.48C725.054 193.387 714.24 188.92 703.454 185.28C688.747 181.76 673.787 179.187 658.733 177.854C643.627 177.76 628.413 176.974 613.413 179.014C601.267 179.334 589.2 180.88 577.2 182.76C566.547 183.627 556 185.334 545.52 187.44C534.733 189.667 523.707 190.68 513.067 193.64C503.387 196.254 493.52 198.094 483.787 200.427C461.68 206.16 439.747 212.6 418.227 220.254C380.347 232.587 343.467 247.774 307.227 264.254C278.92 278.347 250.36 292.04 223.187 308.227C204 318.947 185.813 331.307 167.387 343.254C156.227 351.134 145.427 359.507 134.4 367.587C116.68 381.774 100.227 397.48 84.4801 413.814C70.9068 429.747 58.0001 446.587 49.3468 465.76C44.5735 477.427 40.9468 489.947 41.8001 502.68C41.2401 517.88 46.6135 533.214 56.5735 544.72C63.3735 551.64 68.7601 560.134 77.1068 565.387C88.5868 572.654 100.8 578.854 113.707 583.107C128.587 587.56 143.773 590.947 159.08 593.627C171.84 594.36 184.507 596.707 197.333 596.44C216 596.454 234.68 596.347 253.347 596.414C260.147 596.507 266.933 595.68 273.693 595C281.707 593.267 289.987 594.56 298 592.854C308.92 590.334 320.28 591.52 331.187 588.854C339.173 588.6 347.08 586.92 355.093 587.307C346.96 591.587 337.84 593.134 328.893 594.587C320.413 597.187 311.427 595.787 302.88 597.92C296.4 599.347 289.707 599.027 283.2 600.254C279.44 600.92 275.613 600.694 271.827 600.654C275.067 600.947 278.307 601.267 281.533 601.76C266.72 601.16 252.133 604.72 237.333 604.414C205.307 604.374 173.28 604.52 141.267 604.307C114.493 601.52 87.2935 596.867 63.1068 584.48C45.2935 576.174 29.6535 562.814 20.2135 545.44C16.1601 537.587 12.3468 529.107 12.8135 520.054C13.1601 510.28 11.8001 500.32 14.0535 490.707C18.4535 471.787 27.4535 454.28 38.7335 438.574C44.9468 428.64 53.4668 420.52 60.9468 411.614C70.6935 401.36 80.6001 391.24 91.3735 382.08C106.187 367.747 123.587 356.547 139.907 344.054C151.04 335.414 163.307 328.427 175.013 320.6C202.16 303.2 230.44 287.587 259.04 272.707C289.907 257.84 321.067 243.56 352.68 230.36C369.267 222.734 386.72 217.334 403.72 210.76C430 201.64 456.413 192.867 483.2 185.294C497.52 181.974 511.8 178.414 526.12 175.094C542.427 172.4 558.667 169.414 574.96 166.68C584.667 165.76 594.24 163.347 604.053 163.547Z" fill="#19293C"/>
<path d="M589.84 205.814C611.493 202.76 633.6 202.48 655.24 205.787C663.693 206.08 672.307 206.72 680.16 210.174C666.44 206.894 652.28 207.334 638.413 205.107C625.24 203.987 611.92 204.267 598.84 206.214C589.387 207.667 579.733 206.48 570.307 208.294C552.987 210.72 535.667 213.28 518.48 216.587C502.92 218.6 487.88 223.227 472.64 226.814C449.147 233.667 425.733 240.827 402.693 249.094C374.987 259.507 347.533 270.64 320.827 283.414C297.76 295.694 274.107 307.014 252.333 321.547C234.053 333.787 215.48 345.694 198.573 359.827C186.213 369.134 175.413 380.267 164.667 391.334C158.24 397.92 153 405.507 146.787 412.28C149.427 406.707 153.493 402.054 157.48 397.427C182.773 367.707 214.627 344.494 247.16 323.347C270.427 307.534 295.693 295.08 320.547 282.027C349.693 268.334 379.587 256.294 409.747 245.04C436.307 236.347 462.787 227.134 490.12 221.107C495.707 219.84 501.08 217.694 506.773 216.947C519.133 215.454 531.187 212.027 543.6 210.934C551.947 209.027 560.533 208.947 568.907 207.267C575.813 205.907 582.867 206.28 589.84 205.814Z" fill="#d943f0"/>
<path d="M813.747 221.108C814.227 218.281 815.227 215.481 817.32 213.441C819.613 216.428 820.627 220.228 820.653 223.961C821.067 232.628 819.267 241.255 816.92 249.548C812.893 261.201 808.453 272.868 801.693 283.255C786.973 306.055 768.027 325.841 747.253 343.188C727.253 358.455 707.52 374.295 685.493 386.601C665.013 398.881 643.893 409.988 622.733 421.041C593.373 435.921 562.88 448.495 531.76 459.215C506.587 468.348 480.96 476.335 454.813 482.255C444.387 484.881 433.933 487.508 423.307 489.188C414 490.828 404.907 493.495 395.493 494.508C380.173 496.255 364.92 498.948 349.48 499.428C340.16 500.761 330.72 500.308 321.413 501.681C311.053 501.601 300.627 502.375 290.347 500.815C272.373 499.948 253.787 498.095 237.333 490.228C227.747 485.201 217.933 478.681 213.507 468.375C207.413 455.801 210.213 441.148 214.427 428.455C219.893 414.735 229.027 402.895 238.347 391.601C242.36 386.815 246.293 381.908 251.12 377.921C258.413 371.895 264.453 364.508 272.08 358.881C283.787 350.081 294.96 340.455 307.853 333.361C322.907 323.255 339.507 315.841 355.88 308.188C364.587 303.721 373.893 300.641 382.653 296.295C385.867 294.535 389.533 294.121 393.147 294.068C390.707 298.335 387.747 302.268 384.747 306.148C381.36 310.601 379.52 316.588 374.213 319.255C359.4 327.375 344.467 335.401 330.52 344.988C313.347 357.375 296.493 370.588 282.987 387.028C271.773 399.415 261.253 413.241 256.827 429.615C255.933 436.041 255.76 442.681 256.867 449.095C260.173 458.575 267.68 466.628 277.107 470.228C295.733 477.708 315.907 481.681 336 481.081C379.213 481.908 422.28 475.588 464.12 465.015C494.987 457.868 524.96 447.455 554.587 436.308C575.6 427.908 596.64 419.495 616.893 409.388C636.573 400.935 654.48 389.108 673.2 378.828C707.307 357.388 741.667 334.948 768.147 304.148C778.347 294.428 785.787 282.401 793.867 270.988C802.894 255.468 810.093 238.748 813.747 221.108Z" fill="#19293C"/>
<path d="M786.707 370.841C796.734 364.481 805.72 356.614 815.96 350.574C802.667 362.014 787.774 371.441 773.107 381.001C747.494 398.374 719.907 412.521 692.734 427.228C679.894 434.214 666.467 440.041 653.347 446.468C602.947 469.894 551.867 492.268 498.787 508.961C483.92 513.161 469.08 517.454 454.187 521.548C437.44 525.001 421.24 530.934 404.227 532.988C391.227 535.881 378.027 537.694 364.947 540.148C354.8 540.748 344.787 542.588 334.64 543.121C321.694 543.094 308.947 546.094 296 545.748C287.347 545.628 278.654 546.188 270.014 545.388C254.427 543.561 238.6 542.308 223.534 537.654C207.84 533.388 192.44 525.401 182.44 512.254C172.267 500.401 168.014 484.014 170.694 468.668C172.987 454.254 179.8 441.094 187.187 428.681C188.667 428.708 190.147 428.734 191.627 428.774C191.08 431.814 190.107 434.761 188.84 437.574C188.814 435.054 188.694 432.548 188.574 430.054C178.6 444.308 171.787 461.121 171.054 478.628C170.76 497.188 182.254 514.081 197.04 524.441C216.507 538.228 240.934 540.921 263.987 543.454C276.347 545.228 288.88 545.028 301.32 544.508C310.2 543.774 319 541.948 327.947 542.228C338.734 542.548 349.28 540.014 360 539.334C374.4 537.308 388.734 534.774 402.987 531.868C416.467 530.308 429.36 526.001 442.534 522.948C461.2 518.681 479.48 512.908 497.96 507.894C537.267 496.094 575.294 480.401 612.76 463.721C636.507 453.668 659.667 442.308 682.88 431.094C706.174 419.108 729.094 406.361 751.84 393.374C763.694 386.214 775.054 378.308 786.707 370.841Z" fill="#d943f0"/>
<path d="M707.36 403.614C713.387 400.214 719.04 396.094 725.493 393.508C713.573 402.521 699.973 408.881 687 416.161C639.133 441.321 589.2 462.334 538.427 480.854C506.187 491.508 473.64 501.294 440.667 509.441C424.373 514.254 407.427 516.094 390.867 519.761C373.787 523.481 356.307 524.414 339.013 526.574C316.52 528.588 293.893 529.628 271.333 528.108C255.133 526.508 238.52 524.614 223.627 517.614C211.96 512.614 200.267 505.188 194.6 493.374C201.6 503.028 210.96 511.001 222.027 515.601C237.32 522.401 254.04 525.734 270.707 526.361C300.453 529.428 330.293 525.948 359.907 523.214C367.253 521.854 374.747 521.561 382.107 520.361C396.293 517.214 410.613 514.748 424.893 512.094C442.88 507.214 461.147 503.468 478.987 498.041C506.4 490.054 533.853 481.974 560.387 471.361C610.827 452.161 660.32 430.134 707.36 403.614Z" fill="#d943f0"/>
<path d="M600.32 13.0652C621.173 8.46515 644.533 23.8918 647.386 45.2785C647.653 52.6785 648.506 60.5452 645.093 67.4118C637.48 86.1052 614.613 96.2118 595.56 90.1318C582.613 85.5052 572.653 73.8118 569.813 60.3985C566.8 52.0918 569.453 43.2785 572.573 35.4385C577.573 24.0652 588.146 15.5452 600.32 13.0652Z" fill="#d943f0"/>
<path d="M696.573 101.731C707.24 98.6777 718.387 99.6244 729.333 99.411C746.227 99.2777 763.12 99.3444 780.013 99.4377C785.16 99.3577 790.187 100.624 795.187 101.678C810.373 103.678 825.64 105.451 840.493 109.398C843.987 110.344 847.547 111.184 851.16 111.651C851.187 111.944 851.227 112.544 851.253 112.838C854.107 113.518 857 114.024 859.933 114.358C858.6 114.544 857.28 114.744 855.973 114.958C863.947 114.904 870.52 119.731 877.653 122.544C877.76 122.744 877.987 123.131 878.093 123.318C893.667 129.411 905.76 141.664 915.693 154.758C916.147 155.158 916.613 155.571 917.08 155.998C921.267 164.104 925.413 172.398 927.587 181.278C927.973 190.638 927.787 200.024 927.68 209.384C925.733 228.304 916.173 245.224 906.027 260.904C888.693 286.878 866.533 309.251 842.96 329.558C836.76 334.358 831.227 340.064 824.44 344.051C825.027 343.998 825.613 343.944 826.213 343.904C822.56 345.771 819.347 348.304 815.96 350.571C805.72 356.611 796.733 364.478 786.707 370.838C775.053 378.304 763.693 386.211 751.84 393.371C729.093 406.358 706.173 419.104 682.88 431.091C659.667 442.304 636.507 453.664 612.76 463.718C575.293 480.398 537.267 496.091 497.96 507.891C479.48 512.904 461.2 518.678 442.533 522.944C429.36 525.998 416.467 530.304 402.987 531.864C388.733 534.771 374.4 537.304 360 539.331C349.28 540.011 338.733 542.544 327.947 542.224C319 541.944 310.2 543.771 301.32 544.504C288.88 545.024 276.347 545.224 263.987 543.451C240.933 540.918 216.507 538.224 197.04 524.438C182.253 514.078 170.76 497.184 171.053 478.624C171.787 461.118 178.6 444.304 188.573 430.051C188.693 432.544 188.813 435.051 188.84 437.571C188.613 441.624 186.347 445.264 186.093 449.331C185.547 459.744 185.32 470.291 187.48 480.558C187.733 480.611 188.267 480.731 188.52 480.784C189.653 484.331 191.173 487.731 192.72 491.104C192.973 491.238 193.467 491.504 193.707 491.651C193.933 492.078 194.373 492.944 194.6 493.371C200.267 505.184 211.96 512.611 223.627 517.611C238.52 524.611 255.133 526.504 271.333 528.104C293.893 529.624 316.52 528.584 339.013 526.571C356.307 524.411 373.787 523.478 390.867 519.758C407.427 516.091 424.373 514.251 440.667 509.438C473.64 501.291 506.187 491.504 538.427 480.851C589.2 462.331 639.133 441.318 687 416.158C699.973 408.878 713.573 402.518 725.493 393.504C728.067 391.678 730.76 390.011 733.6 388.598C744.48 383.931 753.587 376.238 763.653 370.158C775.173 363.344 785.48 354.744 796.253 346.864C810.627 335.571 826.053 325.358 838.4 311.731C843.56 306.251 849.4 301.451 854.373 295.798C869.987 277.078 885.813 257.718 894.373 234.584C898.387 223.131 901.507 210.998 900.333 198.771C898.507 184.091 892.36 169.904 882.413 158.891C867.467 141.064 846.067 130.198 824.453 122.598C803.307 115.451 781.213 110.918 758.907 109.718C752.187 108.918 745.533 107.438 738.733 107.518C724.907 107.531 711.08 107.531 697.253 107.438C691.68 107.358 686.253 108.731 680.893 110.078C674.48 111.784 667.8 110.931 661.267 111.304C648.907 112.304 636.627 114.491 624.267 115.491C612.773 115.611 601.6 119.131 590.107 118.931C599.16 114.211 609.56 114.051 619.2 111.251C625.68 110.078 632.253 109.678 638.64 107.931C648 107.598 656.907 103.931 666.373 104.704C676.373 103.238 686.493 102.651 696.573 101.731Z" fill="#d943f0"/>
<path d="M780.333 138.597C793.386 134.637 808.36 143.344 812.533 156.091C813.413 163.971 814.146 172.851 809.093 179.597C800.68 192.384 780.693 193.984 769.826 183.491C759.893 174.024 759.16 157.091 767.8 146.531C770.986 142.611 775.626 140.224 780.333 138.597Z" fill="#d943f0"/>
<path d="M169.72 204.639C175.773 200.186 183.733 201.652 190.747 201.826C203.96 204.532 211.44 220.719 206.213 232.839C204.253 237.199 202.08 242.052 197.507 244.226C192.52 246.719 187.2 249.732 181.4 248.839C174.387 247.266 167.413 243.919 163.56 237.572C159.973 229.852 159.107 220.959 162.587 213.025C164.747 210.079 166.613 206.719 169.72 204.639Z" fill="#d943f0"/>
<path d="M598.84 206.212C611.92 204.265 625.24 203.985 638.413 205.105C652.28 207.332 666.44 206.892 680.16 210.172C691.307 212.612 702.373 216.078 712.027 222.305C717.373 225.238 721.56 229.932 723.973 235.518C724 234.932 724.04 234.358 724.08 233.785C727.16 239.878 729.867 246.398 730.107 253.318C730.48 259.612 728.693 265.718 727.96 271.905C724.386 282.665 719.2 292.892 712.48 302.038C708.693 307.865 703.213 312.278 699.133 317.878C691.253 328.505 681.08 337.132 671.133 345.745C653.987 358.785 636.307 371.252 617.133 381.132C616.8 381.598 616.48 382.078 616.173 382.558C599.4 389.905 583.72 400.065 565.96 405.025C565.987 405.358 566.053 406.038 566.08 406.385C563.213 407.025 560.293 407.412 557.387 407.678C558.453 401.865 561.533 396.692 563.8 391.292C565.067 387.958 568.213 386.118 571.293 384.718C571.36 384.465 571.493 383.972 571.547 383.718C573.853 383.185 576.12 382.532 578.4 381.918C577.747 381.678 577.093 381.452 576.453 381.225C580.093 379.798 583.6 378.052 587.173 376.452C587.227 376.132 587.347 375.518 587.413 375.212C588.827 374.705 590.24 374.198 591.68 373.718C591.053 373.572 590.44 373.438 589.84 373.305C592.84 372.185 595.72 370.705 598.413 368.945C622.613 353.425 645.027 334.892 663.84 313.118C667.827 307.785 671.44 302.172 675.253 296.705C682.253 285.572 687.093 272.105 684.213 258.878C682.12 251.972 678.08 245.452 672.32 241.038C663.973 235.812 654.587 232.238 644.987 230.118C635.533 227.652 625.853 225.572 616.04 225.838C605.347 226.078 594.693 223.905 584.013 225.252C573.867 226.652 563.493 224.852 553.427 227.052C538.533 227.865 523.893 230.705 509.227 233.252C501.933 234.398 494.827 236.852 487.387 236.785C487.373 237.092 487.333 237.705 487.32 238.012C466.187 241.772 445.56 247.932 425.267 254.812C423.52 255.225 421.773 255.572 420.013 255.852C421.307 255.985 422.6 256.118 423.906 256.252C419.733 256.825 415.653 257.905 411.573 258.865C413.373 258.985 415.293 258.932 417.026 259.385C407.933 259.785 400.12 265.052 391.24 266.372C391.28 266.812 391.373 267.705 391.427 268.145C389.187 268.385 386.946 268.625 384.706 268.825C384.706 269.092 384.693 269.625 384.693 269.878C367.253 275.945 350.613 283.972 333.693 291.265C311.973 301.172 291.52 313.452 270.693 325.025C267.506 326.918 264.253 328.692 261.16 330.745C250.146 337.785 239.213 344.972 228.426 352.358C216.946 361.318 205.28 370.065 194.16 379.478C186.8 386.332 179.733 393.492 172.72 400.705C158.693 416.532 146.533 434.052 136.933 452.918C134.2 458.585 132.64 464.705 130.373 470.572C127.826 477.305 127.253 484.545 125.106 491.398C124.4 491.398 122.986 491.398 122.28 491.398C119.666 484.292 120.493 476.585 121.853 469.305C122.213 459.078 126.573 449.598 129.96 440.105C135.04 430.545 140.04 420.785 146.786 412.278C153 405.505 158.24 397.918 164.666 391.332C175.413 380.265 186.213 369.132 198.573 359.825C215.48 345.692 234.053 333.785 252.333 321.545C274.106 307.012 297.76 295.692 320.826 283.412C347.533 270.638 374.986 259.505 402.693 249.092C425.733 240.825 449.147 233.665 472.64 226.812C487.88 223.225 502.92 218.598 518.48 216.585C535.666 213.278 552.987 210.718 570.307 208.292C579.733 206.478 589.387 207.665 598.84 206.212Z" fill="#d943f0"/>
<path d="M438.747 263.744C446.28 262.264 453.56 259.237 461.333 259.251C470.547 259.077 479.933 258.477 488.96 260.717C495.4 262.237 502.2 262.997 507.933 266.611C510.08 267.424 512.253 268.184 514.44 268.944C513.8 269.064 513.173 269.197 512.547 269.344C516.053 270.691 519.28 272.624 522.507 274.531C529.653 279.757 537.027 284.984 542.24 292.291C547.4 299.704 552.933 307.104 555.92 315.731C556.027 314.997 556.147 314.277 556.267 313.557C557.987 324.637 562.787 335.251 562.333 346.664C563.107 358.691 560.213 370.544 556.427 381.877C552.373 391.064 546.427 399.237 540.68 407.411C535.04 415.557 526.4 420.757 518.427 426.317C511.32 431.277 503.253 434.864 494.72 436.437C478.973 440.757 462.027 440.691 446.307 436.317C436.693 434.477 428.16 429.437 420.413 423.664C411.08 417.571 403.147 409.411 397.253 399.957C392.32 392.157 386.813 384.184 385.587 374.824C385.373 375.611 385.173 376.397 384.96 377.197C384.76 369.104 381.2 361.491 381.667 353.357C381.76 348.117 381.373 342.837 382.08 337.637C383.893 330.104 384.533 322.277 387.52 315.064C395.373 298.144 406.173 281.504 423.093 272.517C423.227 272.264 423.493 271.757 423.627 271.504C424.8 271.077 425.973 270.651 427.16 270.224C427.28 269.917 427.533 269.277 427.653 268.971C431.973 266.931 436.2 264.397 441.107 264.251C440.32 264.077 439.533 263.904 438.747 263.744Z" fill="#d943f0"/>
<path d="M802.934 413.744C812.694 413.037 822.84 412.371 832.24 415.704C832.467 416.224 832.707 416.744 832.96 417.277C841.707 421.797 848.374 430.077 850.987 439.571C851.68 446.251 851.56 453.011 851.053 459.704C847.64 469.864 841.027 479.477 830.854 483.757C823.494 488.091 814.827 487.637 806.614 487.224C789.374 483.917 776.053 466.571 777.64 448.997C775.907 432.984 788.454 418.691 802.934 413.744Z" fill="#d943f0"/>
<path d="M408.853 562.573C412.973 560 418.04 560.32 422.693 560.4C430.493 560.4 437.586 566.08 440.28 573.24C445.146 582.68 440.066 595.2 430.906 599.933C425.693 603.16 419.2 602.546 413.386 601.826C407.613 599.693 403.12 594.893 400.893 589.213C399.12 579.853 399.506 567.853 408.853 562.573Z" fill="#d943f0"/>
</svg>
