<svg width="100" height="100" viewBox="0 0 100 100" fill="none" xmlns="http://www.w3.org/2000/svg">
<g clip-path="url(#clip0_19_15458)">
<path d="M50 100C77.6142 100 100 77.6142 100 50C100 22.3858 77.6142 0 50 0C22.3858 0 0 22.3858 0 50C0 77.6142 22.3858 100 50 100Z" fill="#1F1F1F"/>
<path d="M50 93C73.7482 93 93 73.7482 93 50C93 26.2518 73.7482 7 50 7C26.2518 7 7 26.2518 7 50C7 73.7482 26.2518 93 50 93Z" fill="#6A98F0"/>
<path d="M56 19H44C40.6863 19 38 21.7758 38 25.2V74.8C38 78.2242 40.6863 81 44 81H56C59.3137 81 62 78.2242 62 74.8V25.2C62 21.7758 59.3137 19 56 19Z" fill="#1F1F1F"/>
<path d="M74.8 38H25.2C21.7758 38 19 40.6863 19 44V56C19 59.3137 21.7758 62 25.2 62H74.8C78.2242 62 81 59.3137 81 56V44C81 40.6863 78.2242 38 74.8 38Z" fill="#1F1F1F"/>
<path d="M25.6933 21.2738L21.2739 25.6932L47.7904 52.2097L52.2098 47.7903L25.6933 21.2738Z" fill="#6A98F0"/>
<path d="M47.7896 47.7903L52.209 52.2097L78.7255 25.6932L74.3061 21.2738L47.7896 47.7903Z" fill="#6A98F0"/>
<path d="M47.7904 47.7903L21.2739 74.3068L25.6933 78.7262L52.2098 52.2097L47.7904 47.7903Z" fill="#6A98F0"/>
<path d="M21.2745 25.6932L47.791 52.2097L52.2104 47.7903L25.6939 21.2738L21.2745 25.6932Z" fill="#6A98F0"/>
</g>
<defs>
<clipPath id="clip0_19_15458">
<rect width="100" height="100" fill="white"/>
</clipPath>
</defs>
</svg>
